<mxfile host="65bd71144e">
    <diagram id="invqWTWLtZDL52FzsDrU" name="erd">
        <mxGraphModel dx="1393" dy="546" grid="1" gridSize="10" guides="1" tooltips="1" connect="1" arrows="1" fold="1" page="1" pageScale="1" pageWidth="850" pageHeight="1100" math="0" shadow="0">
            <root>
                <mxCell id="0"/>
                <mxCell id="1" parent="0"/>
                <mxCell id="jHz2LKIwXYveBaCEfZe9-1" value="users" style="whiteSpace=wrap;html=1;align=center;" parent="1" vertex="1">
                    <mxGeometry x="375" y="290" width="100" height="40" as="geometry"/>
                </mxCell>
                <mxCell id="jHz2LKIwXYveBaCEfZe9-11" style="edgeStyle=none;html=1;endArrow=none;endFill=0;" parent="1" source="jHz2LKIwXYveBaCEfZe9-2" target="jHz2LKIwXYveBaCEfZe9-1" edge="1">
                    <mxGeometry relative="1" as="geometry"/>
                </mxCell>
                <mxCell id="jHz2LKIwXYveBaCEfZe9-2" value="id" style="ellipse;whiteSpace=wrap;html=1;align=center;fontStyle=4;" parent="1" vertex="1">
                    <mxGeometry x="220" y="220" width="100" height="40" as="geometry"/>
                </mxCell>
                <mxCell id="jHz2LKIwXYveBaCEfZe9-12" style="edgeStyle=none;html=1;entryX=0.25;entryY=0;entryDx=0;entryDy=0;endArrow=none;endFill=0;" parent="1" source="jHz2LKIwXYveBaCEfZe9-4" target="jHz2LKIwXYveBaCEfZe9-1" edge="1">
                    <mxGeometry relative="1" as="geometry"/>
                </mxCell>
                <mxCell id="jHz2LKIwXYveBaCEfZe9-4" value="name" style="ellipse;whiteSpace=wrap;html=1;align=center;" parent="1" vertex="1">
                    <mxGeometry x="310" y="160" width="100" height="40" as="geometry"/>
                </mxCell>
                <mxCell id="jHz2LKIwXYveBaCEfZe9-13" style="edgeStyle=none;html=1;endArrow=none;endFill=0;" parent="1" source="jHz2LKIwXYveBaCEfZe9-5" target="jHz2LKIwXYveBaCEfZe9-1" edge="1">
                    <mxGeometry relative="1" as="geometry"/>
                </mxCell>
                <mxCell id="jHz2LKIwXYveBaCEfZe9-5" value="email" style="ellipse;whiteSpace=wrap;html=1;align=center;" parent="1" vertex="1">
                    <mxGeometry x="425" y="150" width="100" height="40" as="geometry"/>
                </mxCell>
                <mxCell id="jHz2LKIwXYveBaCEfZe9-14" style="edgeStyle=none;html=1;endArrow=none;endFill=0;" parent="1" source="jHz2LKIwXYveBaCEfZe9-6" target="jHz2LKIwXYveBaCEfZe9-1" edge="1">
                    <mxGeometry relative="1" as="geometry"/>
                </mxCell>
                <mxCell id="jHz2LKIwXYveBaCEfZe9-6" value="password" style="ellipse;whiteSpace=wrap;html=1;align=center;" parent="1" vertex="1">
                    <mxGeometry x="520" y="190" width="100" height="40" as="geometry"/>
                </mxCell>
                <mxCell id="jHz2LKIwXYveBaCEfZe9-15" style="edgeStyle=none;html=1;endArrow=none;endFill=0;" parent="1" source="jHz2LKIwXYveBaCEfZe9-7" target="jHz2LKIwXYveBaCEfZe9-1" edge="1">
                    <mxGeometry relative="1" as="geometry"/>
                </mxCell>
                <mxCell id="jHz2LKIwXYveBaCEfZe9-7" value="role" style="ellipse;whiteSpace=wrap;html=1;align=center;" parent="1" vertex="1">
                    <mxGeometry x="530" y="250" width="100" height="40" as="geometry"/>
                </mxCell>
                <mxCell id="jHz2LKIwXYveBaCEfZe9-16" style="edgeStyle=none;html=1;endArrow=none;endFill=0;" parent="1" source="jHz2LKIwXYveBaCEfZe9-8" target="jHz2LKIwXYveBaCEfZe9-1" edge="1">
                    <mxGeometry relative="1" as="geometry"/>
                </mxCell>
                <mxCell id="jHz2LKIwXYveBaCEfZe9-8" value="created_at" style="ellipse;whiteSpace=wrap;html=1;align=center;" parent="1" vertex="1">
                    <mxGeometry x="530" y="310" width="100" height="40" as="geometry"/>
                </mxCell>
                <mxCell id="jHz2LKIwXYveBaCEfZe9-17" style="edgeStyle=none;html=1;endArrow=none;endFill=0;" parent="1" source="jHz2LKIwXYveBaCEfZe9-9" target="jHz2LKIwXYveBaCEfZe9-1" edge="1">
                    <mxGeometry relative="1" as="geometry"/>
                </mxCell>
                <mxCell id="jHz2LKIwXYveBaCEfZe9-9" value="updated_at" style="ellipse;whiteSpace=wrap;html=1;align=center;" parent="1" vertex="1">
                    <mxGeometry x="530" y="380" width="100" height="40" as="geometry"/>
                </mxCell>
                <mxCell id="jHz2LKIwXYveBaCEfZe9-18" value="news" style="whiteSpace=wrap;html=1;align=center;" parent="1" vertex="1">
                    <mxGeometry x="150" y="420" width="100" height="40" as="geometry"/>
                </mxCell>
                <mxCell id="jHz2LKIwXYveBaCEfZe9-19" value="agenda" style="whiteSpace=wrap;html=1;align=center;" parent="1" vertex="1">
                    <mxGeometry x="460" y="520" width="100" height="40" as="geometry"/>
                </mxCell>
                <mxCell id="a_gxfXyv12nU46Ws00Ky-26" style="edgeStyle=none;html=1;endArrow=none;endFill=0;" parent="1" source="jHz2LKIwXYveBaCEfZe9-20" target="jHz2LKIwXYveBaCEfZe9-18" edge="1">
                    <mxGeometry relative="1" as="geometry"/>
                </mxCell>
                <mxCell id="jHz2LKIwXYveBaCEfZe9-20" value="updated_at" style="ellipse;whiteSpace=wrap;html=1;align=center;" parent="1" vertex="1">
                    <mxGeometry x="50" y="670" width="100" height="40" as="geometry"/>
                </mxCell>
                <mxCell id="a_gxfXyv12nU46Ws00Ky-25" style="edgeStyle=none;html=1;endArrow=none;endFill=0;" parent="1" source="jHz2LKIwXYveBaCEfZe9-21" target="jHz2LKIwXYveBaCEfZe9-18" edge="1">
                    <mxGeometry relative="1" as="geometry"/>
                </mxCell>
                <mxCell id="jHz2LKIwXYveBaCEfZe9-21" value="created_at" style="ellipse;whiteSpace=wrap;html=1;align=center;" parent="1" vertex="1">
                    <mxGeometry x="30" y="600" width="100" height="40" as="geometry"/>
                </mxCell>
                <mxCell id="a_gxfXyv12nU46Ws00Ky-55" style="edgeStyle=none;html=1;endArrow=none;endFill=0;" parent="1" source="jHz2LKIwXYveBaCEfZe9-23" target="jHz2LKIwXYveBaCEfZe9-19" edge="1">
                    <mxGeometry relative="1" as="geometry"/>
                </mxCell>
                <mxCell id="jHz2LKIwXYveBaCEfZe9-23" value="updated_at" style="ellipse;whiteSpace=wrap;html=1;align=center;" parent="1" vertex="1">
                    <mxGeometry x="710" y="570" width="100" height="40" as="geometry"/>
                </mxCell>
                <mxCell id="a_gxfXyv12nU46Ws00Ky-54" style="edgeStyle=none;html=1;endArrow=none;endFill=0;" parent="1" source="jHz2LKIwXYveBaCEfZe9-24" target="jHz2LKIwXYveBaCEfZe9-19" edge="1">
                    <mxGeometry relative="1" as="geometry"/>
                </mxCell>
                <mxCell id="jHz2LKIwXYveBaCEfZe9-24" value="created_at" style="ellipse;whiteSpace=wrap;html=1;align=center;" parent="1" vertex="1">
                    <mxGeometry x="660" y="640" width="100" height="40" as="geometry"/>
                </mxCell>
                <mxCell id="a_gxfXyv12nU46Ws00Ky-20" style="edgeStyle=none;html=1;endArrow=none;endFill=0;" parent="1" source="jHz2LKIwXYveBaCEfZe9-25" target="jHz2LKIwXYveBaCEfZe9-18" edge="1">
                    <mxGeometry relative="1" as="geometry"/>
                </mxCell>
                <mxCell id="jHz2LKIwXYveBaCEfZe9-25" value="id" style="ellipse;whiteSpace=wrap;html=1;align=center;fontStyle=4;" parent="1" vertex="1">
                    <mxGeometry x="-40" y="330" width="100" height="40" as="geometry"/>
                </mxCell>
                <mxCell id="a_gxfXyv12nU46Ws00Ky-21" style="edgeStyle=none;html=1;endArrow=none;endFill=0;" parent="1" source="jHz2LKIwXYveBaCEfZe9-26" target="jHz2LKIwXYveBaCEfZe9-18" edge="1">
                    <mxGeometry relative="1" as="geometry"/>
                </mxCell>
                <mxCell id="jHz2LKIwXYveBaCEfZe9-26" value="user_id(FK)" style="ellipse;whiteSpace=wrap;html=1;align=center;" parent="1" vertex="1">
                    <mxGeometry x="-20" y="380" width="100" height="40" as="geometry"/>
                </mxCell>
                <mxCell id="a_gxfXyv12nU46Ws00Ky-47" style="edgeStyle=none;html=1;endArrow=none;endFill=0;" parent="1" source="jHz2LKIwXYveBaCEfZe9-28" target="jHz2LKIwXYveBaCEfZe9-19" edge="1">
                    <mxGeometry relative="1" as="geometry"/>
                </mxCell>
                <mxCell id="jHz2LKIwXYveBaCEfZe9-28" value="user_id(FK)" style="ellipse;whiteSpace=wrap;html=1;align=center;" parent="1" vertex="1">
                    <mxGeometry x="330" y="570" width="100" height="40" as="geometry"/>
                </mxCell>
                <mxCell id="jHz2LKIwXYveBaCEfZe9-29" value="galeri" style="whiteSpace=wrap;html=1;align=center;" parent="1" vertex="1">
                    <mxGeometry x="730" y="340" width="100" height="40" as="geometry"/>
                </mxCell>
                <mxCell id="a_gxfXyv12nU46Ws00Ky-5" style="edgeStyle=none;html=1;endArrow=none;endFill=0;" parent="1" source="jHz2LKIwXYveBaCEfZe9-30" target="jHz2LKIwXYveBaCEfZe9-29" edge="1">
                    <mxGeometry relative="1" as="geometry"/>
                </mxCell>
                <mxCell id="jHz2LKIwXYveBaCEfZe9-30" value="created_at" style="ellipse;whiteSpace=wrap;html=1;align=center;" parent="1" vertex="1">
                    <mxGeometry x="860" y="410" width="100" height="40" as="geometry"/>
                </mxCell>
                <mxCell id="a_gxfXyv12nU46Ws00Ky-6" style="edgeStyle=none;html=1;entryX=0.5;entryY=1;entryDx=0;entryDy=0;endArrow=none;endFill=0;" parent="1" source="jHz2LKIwXYveBaCEfZe9-31" target="jHz2LKIwXYveBaCEfZe9-29" edge="1">
                    <mxGeometry relative="1" as="geometry">
                        <mxPoint x="760" y="430" as="targetPoint"/>
                    </mxGeometry>
                </mxCell>
                <mxCell id="jHz2LKIwXYveBaCEfZe9-31" value="updated_at" style="ellipse;whiteSpace=wrap;html=1;align=center;" parent="1" vertex="1">
                    <mxGeometry x="840" y="530" width="100" height="40" as="geometry"/>
                </mxCell>
                <mxCell id="a_gxfXyv12nU46Ws00Ky-35" style="edgeStyle=none;html=1;endArrow=none;endFill=0;" parent="1" source="DYG1WWbtqaTXxzCOqZ7U-1" target="a_gxfXyv12nU46Ws00Ky-11" edge="1">
                    <mxGeometry relative="1" as="geometry"/>
                </mxCell>
                <mxCell id="DYG1WWbtqaTXxzCOqZ7U-1" value="created_at" style="ellipse;whiteSpace=wrap;html=1;align=center;" parent="1" vertex="1">
                    <mxGeometry x="460" y="900" width="100" height="40" as="geometry"/>
                </mxCell>
                <mxCell id="a_gxfXyv12nU46Ws00Ky-3" style="edgeStyle=none;html=1;endArrow=none;endFill=0;" parent="1" source="a_gxfXyv12nU46Ws00Ky-2" target="jHz2LKIwXYveBaCEfZe9-29" edge="1">
                    <mxGeometry relative="1" as="geometry"/>
                </mxCell>
                <mxCell id="a_gxfXyv12nU46Ws00Ky-2" value="id" style="ellipse;whiteSpace=wrap;html=1;align=center;fontStyle=4;" parent="1" vertex="1">
                    <mxGeometry x="660" y="200" width="100" height="40" as="geometry"/>
                </mxCell>
                <mxCell id="a_gxfXyv12nU46Ws00Ky-9" style="edgeStyle=none;html=1;endArrow=none;endFill=0;" parent="1" source="a_gxfXyv12nU46Ws00Ky-8" target="jHz2LKIwXYveBaCEfZe9-29" edge="1">
                    <mxGeometry relative="1" as="geometry"/>
                </mxCell>
                <mxCell id="a_gxfXyv12nU46Ws00Ky-8" value="image_path" style="ellipse;whiteSpace=wrap;html=1;align=center;" parent="1" vertex="1">
                    <mxGeometry x="870" y="320" width="100" height="40" as="geometry"/>
                </mxCell>
                <mxCell id="a_gxfXyv12nU46Ws00Ky-11" value="comments" style="whiteSpace=wrap;html=1;align=center;" parent="1" vertex="1">
                    <mxGeometry x="360" y="770" width="100" height="40" as="geometry"/>
                </mxCell>
                <mxCell id="a_gxfXyv12nU46Ws00Ky-30" style="edgeStyle=none;html=1;endArrow=none;endFill=0;" parent="1" source="a_gxfXyv12nU46Ws00Ky-12" target="a_gxfXyv12nU46Ws00Ky-11" edge="1">
                    <mxGeometry relative="1" as="geometry"/>
                </mxCell>
                <mxCell id="a_gxfXyv12nU46Ws00Ky-12" value="id" style="ellipse;whiteSpace=wrap;html=1;align=center;fontStyle=4;" parent="1" vertex="1">
                    <mxGeometry x="160" y="740" width="100" height="40" as="geometry"/>
                </mxCell>
                <mxCell id="a_gxfXyv12nU46Ws00Ky-31" style="edgeStyle=none;html=1;endArrow=none;endFill=0;" parent="1" source="a_gxfXyv12nU46Ws00Ky-13" target="a_gxfXyv12nU46Ws00Ky-11" edge="1">
                    <mxGeometry relative="1" as="geometry"/>
                </mxCell>
                <mxCell id="a_gxfXyv12nU46Ws00Ky-13" value="user_id(FK)" style="ellipse;whiteSpace=wrap;html=1;align=center;" parent="1" vertex="1">
                    <mxGeometry x="200" y="800" width="100" height="40" as="geometry"/>
                </mxCell>
                <mxCell id="a_gxfXyv12nU46Ws00Ky-32" style="edgeStyle=none;html=1;endArrow=none;endFill=0;" parent="1" source="a_gxfXyv12nU46Ws00Ky-14" target="a_gxfXyv12nU46Ws00Ky-11" edge="1">
                    <mxGeometry relative="1" as="geometry"/>
                </mxCell>
                <mxCell id="a_gxfXyv12nU46Ws00Ky-14" value="news_id(FK)?" style="ellipse;whiteSpace=wrap;html=1;align=center;" parent="1" vertex="1">
                    <mxGeometry x="220" y="850" width="100" height="40" as="geometry"/>
                </mxCell>
                <mxCell id="a_gxfXyv12nU46Ws00Ky-33" style="edgeStyle=none;html=1;endArrow=none;endFill=0;" parent="1" source="a_gxfXyv12nU46Ws00Ky-15" target="a_gxfXyv12nU46Ws00Ky-11" edge="1">
                    <mxGeometry relative="1" as="geometry"/>
                </mxCell>
                <mxCell id="a_gxfXyv12nU46Ws00Ky-15" value="agenda_id(FK)?" style="ellipse;whiteSpace=wrap;html=1;align=center;" parent="1" vertex="1">
                    <mxGeometry x="250" y="910" width="100" height="40" as="geometry"/>
                </mxCell>
                <mxCell id="a_gxfXyv12nU46Ws00Ky-22" style="edgeStyle=none;html=1;endArrow=none;endFill=0;" parent="1" source="a_gxfXyv12nU46Ws00Ky-16" target="jHz2LKIwXYveBaCEfZe9-18" edge="1">
                    <mxGeometry relative="1" as="geometry"/>
                </mxCell>
                <mxCell id="a_gxfXyv12nU46Ws00Ky-16" value="image_path" style="ellipse;whiteSpace=wrap;html=1;align=center;" parent="1" vertex="1">
                    <mxGeometry y="430" width="100" height="40" as="geometry"/>
                </mxCell>
                <mxCell id="a_gxfXyv12nU46Ws00Ky-23" style="edgeStyle=none;html=1;endArrow=none;endFill=0;" parent="1" source="a_gxfXyv12nU46Ws00Ky-17" target="jHz2LKIwXYveBaCEfZe9-18" edge="1">
                    <mxGeometry relative="1" as="geometry"/>
                </mxCell>
                <mxCell id="a_gxfXyv12nU46Ws00Ky-17" value="title" style="ellipse;whiteSpace=wrap;html=1;align=center;" parent="1" vertex="1">
                    <mxGeometry x="10" y="490" width="100" height="40" as="geometry"/>
                </mxCell>
                <mxCell id="a_gxfXyv12nU46Ws00Ky-24" style="edgeStyle=none;html=1;endArrow=none;endFill=0;" parent="1" source="a_gxfXyv12nU46Ws00Ky-18" target="jHz2LKIwXYveBaCEfZe9-18" edge="1">
                    <mxGeometry relative="1" as="geometry"/>
                </mxCell>
                <mxCell id="a_gxfXyv12nU46Ws00Ky-18" value="content" style="ellipse;whiteSpace=wrap;html=1;align=center;" parent="1" vertex="1">
                    <mxGeometry x="10" y="540" width="100" height="40" as="geometry"/>
                </mxCell>
                <mxCell id="a_gxfXyv12nU46Ws00Ky-34" style="edgeStyle=none;html=1;endArrow=none;endFill=0;" parent="1" source="a_gxfXyv12nU46Ws00Ky-28" target="a_gxfXyv12nU46Ws00Ky-11" edge="1">
                    <mxGeometry relative="1" as="geometry"/>
                </mxCell>
                <mxCell id="a_gxfXyv12nU46Ws00Ky-28" value="comment" style="ellipse;whiteSpace=wrap;html=1;align=center;" parent="1" vertex="1">
                    <mxGeometry x="360" y="910" width="100" height="40" as="geometry"/>
                </mxCell>
                <mxCell id="a_gxfXyv12nU46Ws00Ky-36" style="edgeStyle=none;html=1;endArrow=none;endFill=0;" parent="1" source="a_gxfXyv12nU46Ws00Ky-29" target="a_gxfXyv12nU46Ws00Ky-11" edge="1">
                    <mxGeometry relative="1" as="geometry"/>
                </mxCell>
                <mxCell id="a_gxfXyv12nU46Ws00Ky-29" value="updated_at" style="ellipse;whiteSpace=wrap;html=1;align=center;" parent="1" vertex="1">
                    <mxGeometry x="570" y="910" width="100" height="40" as="geometry"/>
                </mxCell>
                <mxCell id="a_gxfXyv12nU46Ws00Ky-46" style="edgeStyle=none;html=1;endArrow=none;endFill=0;" parent="1" source="a_gxfXyv12nU46Ws00Ky-37" target="jHz2LKIwXYveBaCEfZe9-19" edge="1">
                    <mxGeometry relative="1" as="geometry"/>
                </mxCell>
                <mxCell id="a_gxfXyv12nU46Ws00Ky-37" value="id" style="ellipse;whiteSpace=wrap;html=1;align=center;fontStyle=4;" parent="1" vertex="1">
                    <mxGeometry x="320" y="510" width="100" height="40" as="geometry"/>
                </mxCell>
                <mxCell id="a_gxfXyv12nU46Ws00Ky-48" style="edgeStyle=none;html=1;endArrow=none;endFill=0;" parent="1" source="a_gxfXyv12nU46Ws00Ky-38" target="jHz2LKIwXYveBaCEfZe9-19" edge="1">
                    <mxGeometry relative="1" as="geometry"/>
                </mxCell>
                <mxCell id="a_gxfXyv12nU46Ws00Ky-38" value="image_path" style="ellipse;whiteSpace=wrap;html=1;align=center;" parent="1" vertex="1">
                    <mxGeometry x="350" y="610" width="100" height="40" as="geometry"/>
                </mxCell>
                <mxCell id="a_gxfXyv12nU46Ws00Ky-50" style="edgeStyle=none;html=1;endArrow=none;endFill=0;" parent="1" source="a_gxfXyv12nU46Ws00Ky-40" target="jHz2LKIwXYveBaCEfZe9-19" edge="1">
                    <mxGeometry relative="1" as="geometry"/>
                </mxCell>
                <mxCell id="a_gxfXyv12nU46Ws00Ky-40" value="title" style="ellipse;whiteSpace=wrap;html=1;align=center;" parent="1" vertex="1">
                    <mxGeometry x="375" y="670" width="100" height="40" as="geometry"/>
                </mxCell>
                <mxCell id="a_gxfXyv12nU46Ws00Ky-51" style="edgeStyle=none;html=1;endArrow=none;endFill=0;" parent="1" source="a_gxfXyv12nU46Ws00Ky-42" target="jHz2LKIwXYveBaCEfZe9-19" edge="1">
                    <mxGeometry relative="1" as="geometry"/>
                </mxCell>
                <mxCell id="a_gxfXyv12nU46Ws00Ky-42" value="location" style="ellipse;whiteSpace=wrap;html=1;align=center;" parent="1" vertex="1">
                    <mxGeometry x="450" y="710" width="100" height="40" as="geometry"/>
                </mxCell>
                <mxCell id="a_gxfXyv12nU46Ws00Ky-52" style="edgeStyle=none;html=1;endArrow=none;endFill=0;" parent="1" source="a_gxfXyv12nU46Ws00Ky-43" target="jHz2LKIwXYveBaCEfZe9-19" edge="1">
                    <mxGeometry relative="1" as="geometry"/>
                </mxCell>
                <mxCell id="a_gxfXyv12nU46Ws00Ky-43" value="date" style="ellipse;whiteSpace=wrap;html=1;align=center;" parent="1" vertex="1">
                    <mxGeometry x="560" y="720" width="100" height="40" as="geometry"/>
                </mxCell>
                <mxCell id="a_gxfXyv12nU46Ws00Ky-53" style="edgeStyle=none;html=1;endArrow=none;endFill=0;" parent="1" source="a_gxfXyv12nU46Ws00Ky-44" target="jHz2LKIwXYveBaCEfZe9-19" edge="1">
                    <mxGeometry relative="1" as="geometry"/>
                </mxCell>
                <mxCell id="a_gxfXyv12nU46Ws00Ky-44" value="time" style="ellipse;whiteSpace=wrap;html=1;align=center;" parent="1" vertex="1">
                    <mxGeometry x="490" y="660" width="100" height="40" as="geometry"/>
                </mxCell>
                <mxCell id="a_gxfXyv12nU46Ws00Ky-58" style="html=1;endArrow=none;endFill=0;" parent="1" source="a_gxfXyv12nU46Ws00Ky-57" target="jHz2LKIwXYveBaCEfZe9-19" edge="1">
                    <mxGeometry relative="1" as="geometry"/>
                </mxCell>
                <mxCell id="a_gxfXyv12nU46Ws00Ky-57" value="content" style="ellipse;whiteSpace=wrap;html=1;align=center;" parent="1" vertex="1">
                    <mxGeometry x="570" y="640" width="100" height="40" as="geometry"/>
                </mxCell>
                <mxCell id="a_gxfXyv12nU46Ws00Ky-78" style="edgeStyle=none;html=1;endArrow=none;endFill=0;" parent="1" edge="1">
                    <mxGeometry relative="1" as="geometry">
                        <mxPoint x="300.40816326530603" y="339.044081632653" as="sourcePoint"/>
                        <mxPoint x="375" y="320.9612121212121" as="targetPoint"/>
                    </mxGeometry>
                </mxCell>
                <mxCell id="a_gxfXyv12nU46Ws00Ky-82" value="1" style="edgeLabel;html=1;align=center;verticalAlign=middle;resizable=0;points=[];" parent="a_gxfXyv12nU46Ws00Ky-78" vertex="1" connectable="0">
                    <mxGeometry x="0.2269" y="-1" relative="1" as="geometry">
                        <mxPoint as="offset"/>
                    </mxGeometry>
                </mxCell>
                <mxCell id="a_gxfXyv12nU46Ws00Ky-79" style="edgeStyle=none;html=1;endArrow=none;endFill=0;" parent="1" source="a_gxfXyv12nU46Ws00Ky-59" target="jHz2LKIwXYveBaCEfZe9-18" edge="1">
                    <mxGeometry relative="1" as="geometry"/>
                </mxCell>
                <mxCell id="a_gxfXyv12nU46Ws00Ky-83" value="m" style="edgeLabel;html=1;align=center;verticalAlign=middle;resizable=0;points=[];" parent="a_gxfXyv12nU46Ws00Ky-79" vertex="1" connectable="0">
                    <mxGeometry x="-0.2946" y="1" relative="1" as="geometry">
                        <mxPoint as="offset"/>
                    </mxGeometry>
                </mxCell>
                <mxCell id="a_gxfXyv12nU46Ws00Ky-59" value="memiliki" style="shape=rhombus;perimeter=rhombusPerimeter;whiteSpace=wrap;html=1;align=center;" parent="1" vertex="1">
                    <mxGeometry x="200" y="320" width="120" height="60" as="geometry"/>
                </mxCell>
                <mxCell id="a_gxfXyv12nU46Ws00Ky-76" style="edgeStyle=none;html=1;endArrow=none;endFill=0;" parent="1" source="a_gxfXyv12nU46Ws00Ky-60" target="jHz2LKIwXYveBaCEfZe9-1" edge="1">
                    <mxGeometry relative="1" as="geometry"/>
                </mxCell>
                <mxCell id="a_gxfXyv12nU46Ws00Ky-80" value="1" style="edgeLabel;html=1;align=center;verticalAlign=middle;resizable=0;points=[];" parent="a_gxfXyv12nU46Ws00Ky-76" vertex="1" connectable="0">
                    <mxGeometry x="0.0533" y="-2" relative="1" as="geometry">
                        <mxPoint as="offset"/>
                    </mxGeometry>
                </mxCell>
                <mxCell id="a_gxfXyv12nU46Ws00Ky-77" style="edgeStyle=none;html=1;endArrow=none;endFill=0;" parent="1" source="a_gxfXyv12nU46Ws00Ky-60" target="jHz2LKIwXYveBaCEfZe9-19" edge="1">
                    <mxGeometry relative="1" as="geometry"/>
                </mxCell>
                <mxCell id="a_gxfXyv12nU46Ws00Ky-81" value="m" style="edgeLabel;html=1;align=center;verticalAlign=middle;resizable=0;points=[];" parent="a_gxfXyv12nU46Ws00Ky-77" vertex="1" connectable="0">
                    <mxGeometry x="0.1894" y="-1" relative="1" as="geometry">
                        <mxPoint as="offset"/>
                    </mxGeometry>
                </mxCell>
                <mxCell id="a_gxfXyv12nU46Ws00Ky-60" value="memiliki" style="shape=rhombus;perimeter=rhombusPerimeter;whiteSpace=wrap;html=1;align=center;" parent="1" vertex="1">
                    <mxGeometry x="410" y="430" width="120" height="60" as="geometry"/>
                </mxCell>
                <mxCell id="a_gxfXyv12nU46Ws00Ky-64" style="html=1;endArrow=none;endFill=0;" parent="1" source="a_gxfXyv12nU46Ws00Ky-61" target="jHz2LKIwXYveBaCEfZe9-1" edge="1">
                    <mxGeometry relative="1" as="geometry"/>
                </mxCell>
                <mxCell id="a_gxfXyv12nU46Ws00Ky-66" value="1" style="edgeLabel;html=1;align=center;verticalAlign=middle;resizable=0;points=[];" parent="a_gxfXyv12nU46Ws00Ky-64" vertex="1" connectable="0">
                    <mxGeometry x="0.2643" y="-4" relative="1" as="geometry">
                        <mxPoint y="-1" as="offset"/>
                    </mxGeometry>
                </mxCell>
                <mxCell id="a_gxfXyv12nU46Ws00Ky-61" value="memiliki" style="shape=rhombus;perimeter=rhombusPerimeter;whiteSpace=wrap;html=1;align=center;" parent="1" vertex="1">
                    <mxGeometry x="200" y="650" width="120" height="60" as="geometry"/>
                </mxCell>
                <mxCell id="a_gxfXyv12nU46Ws00Ky-68" style="html=1;endArrow=none;endFill=0;" parent="1" source="a_gxfXyv12nU46Ws00Ky-62" target="jHz2LKIwXYveBaCEfZe9-18" edge="1">
                    <mxGeometry relative="1" as="geometry"/>
                </mxCell>
                <mxCell id="a_gxfXyv12nU46Ws00Ky-70" value="1" style="edgeLabel;html=1;align=center;verticalAlign=middle;resizable=0;points=[];" parent="a_gxfXyv12nU46Ws00Ky-68" vertex="1" connectable="0">
                    <mxGeometry x="0.058" y="-4" relative="1" as="geometry">
                        <mxPoint y="1" as="offset"/>
                    </mxGeometry>
                </mxCell>
                <mxCell id="a_gxfXyv12nU46Ws00Ky-69" style="html=1;endArrow=none;endFill=0;" parent="1" source="a_gxfXyv12nU46Ws00Ky-62" target="a_gxfXyv12nU46Ws00Ky-11" edge="1">
                    <mxGeometry relative="1" as="geometry"/>
                </mxCell>
                <mxCell id="a_gxfXyv12nU46Ws00Ky-71" value="m" style="edgeLabel;html=1;align=center;verticalAlign=middle;resizable=0;points=[];" parent="a_gxfXyv12nU46Ws00Ky-69" vertex="1" connectable="0">
                    <mxGeometry x="0.3209" y="-1" relative="1" as="geometry">
                        <mxPoint as="offset"/>
                    </mxGeometry>
                </mxCell>
                <mxCell id="a_gxfXyv12nU46Ws00Ky-62" value="memiliki" style="shape=rhombus;perimeter=rhombusPerimeter;whiteSpace=wrap;html=1;align=center;" parent="1" vertex="1">
                    <mxGeometry x="130" y="560" width="120" height="60" as="geometry"/>
                </mxCell>
                <mxCell id="a_gxfXyv12nU46Ws00Ky-72" style="html=1;endArrow=none;endFill=0;" parent="1" source="a_gxfXyv12nU46Ws00Ky-63" target="a_gxfXyv12nU46Ws00Ky-11" edge="1">
                    <mxGeometry relative="1" as="geometry"/>
                </mxCell>
                <mxCell id="a_gxfXyv12nU46Ws00Ky-75" value="m" style="edgeLabel;html=1;align=center;verticalAlign=middle;resizable=0;points=[];" parent="a_gxfXyv12nU46Ws00Ky-72" vertex="1" connectable="0">
                    <mxGeometry x="0.1907" y="-4" relative="1" as="geometry">
                        <mxPoint as="offset"/>
                    </mxGeometry>
                </mxCell>
                <mxCell id="a_gxfXyv12nU46Ws00Ky-73" style="edgeStyle=none;html=1;endArrow=none;endFill=0;" parent="1" source="a_gxfXyv12nU46Ws00Ky-63" target="jHz2LKIwXYveBaCEfZe9-19" edge="1">
                    <mxGeometry relative="1" as="geometry"/>
                </mxCell>
                <mxCell id="a_gxfXyv12nU46Ws00Ky-74" value="1" style="edgeLabel;html=1;align=center;verticalAlign=middle;resizable=0;points=[];" parent="a_gxfXyv12nU46Ws00Ky-73" vertex="1" connectable="0">
                    <mxGeometry x="-0.1388" y="-3" relative="1" as="geometry">
                        <mxPoint as="offset"/>
                    </mxGeometry>
                </mxCell>
                <mxCell id="a_gxfXyv12nU46Ws00Ky-63" value="memiliki" style="shape=rhombus;perimeter=rhombusPerimeter;whiteSpace=wrap;html=1;align=center;" parent="1" vertex="1">
                    <mxGeometry x="770" y="840" width="120" height="60" as="geometry"/>
                </mxCell>
                <mxCell id="a_gxfXyv12nU46Ws00Ky-65" style="html=1;endArrow=none;endFill=0;" parent="1" source="a_gxfXyv12nU46Ws00Ky-61" target="a_gxfXyv12nU46Ws00Ky-11" edge="1">
                    <mxGeometry relative="1" as="geometry"/>
                </mxCell>
                <mxCell id="a_gxfXyv12nU46Ws00Ky-67" value="m" style="edgeLabel;html=1;align=center;verticalAlign=middle;resizable=0;points=[];" parent="a_gxfXyv12nU46Ws00Ky-65" vertex="1" connectable="0">
                    <mxGeometry x="-0.0543" y="2" relative="1" as="geometry">
                        <mxPoint as="offset"/>
                    </mxGeometry>
                </mxCell>
                <mxCell id="3" style="html=1;endArrow=none;endFill=0;" parent="1" source="2" target="jHz2LKIwXYveBaCEfZe9-29" edge="1">
                    <mxGeometry relative="1" as="geometry"/>
                </mxCell>
                <mxCell id="2" value="user_id(FK)" style="ellipse;whiteSpace=wrap;html=1;align=center;" parent="1" vertex="1">
                    <mxGeometry x="800" y="230" width="100" height="40" as="geometry"/>
                </mxCell>
                <mxCell id="5" style="html=1;endArrow=none;endFill=0;" parent="1" source="4" target="jHz2LKIwXYveBaCEfZe9-1" edge="1">
                    <mxGeometry relative="1" as="geometry"/>
                </mxCell>
                <mxCell id="7" value="1" style="edgeLabel;html=1;align=center;verticalAlign=middle;resizable=0;points=[];" parent="5" vertex="1" connectable="0">
                    <mxGeometry x="-0.0735" y="1" relative="1" as="geometry">
                        <mxPoint as="offset"/>
                    </mxGeometry>
                </mxCell>
                <mxCell id="6" value="M" style="html=1;endArrow=none;endFill=0;" parent="1" source="4" target="jHz2LKIwXYveBaCEfZe9-29" edge="1">
                    <mxGeometry relative="1" as="geometry"/>
                </mxCell>
                <mxCell id="4" value="memiliki" style="shape=rhombus;perimeter=rhombusPerimeter;whiteSpace=wrap;html=1;align=center;" parent="1" vertex="1">
                    <mxGeometry x="580" y="490" width="120" height="60" as="geometry"/>
                </mxCell>
            </root>
        </mxGraphModel>
    </diagram>
    <diagram id="2fYibKPSpLpt57OZB-eR" name="activity-diagram">
        <mxGraphModel dx="1393" dy="546" grid="1" gridSize="10" guides="1" tooltips="1" connect="1" arrows="1" fold="1" page="1" pageScale="1" pageWidth="850" pageHeight="1100" math="0" shadow="0">
            <root>
                <mxCell id="0"/>
                <mxCell id="1" parent="0"/>
                <mxCell id="GQ8aunAzsTg9zXno-Nds-16" value="" style="rounded=0;whiteSpace=wrap;html=1;" parent="1" vertex="1">
                    <mxGeometry x="170" y="50" width="300" height="320" as="geometry"/>
                </mxCell>
                <mxCell id="GQ8aunAzsTg9zXno-Nds-1" value="" style="ellipse;html=1;shape=startState;fillColor=#000000;strokeColor=#ff0000;" parent="1" vertex="1">
                    <mxGeometry x="230" y="60" width="30" height="30" as="geometry"/>
                </mxCell>
                <mxCell id="GQ8aunAzsTg9zXno-Nds-2" value="" style="edgeStyle=orthogonalEdgeStyle;html=1;verticalAlign=bottom;endArrow=open;endSize=8;strokeColor=#ff0000;" parent="1" source="GQ8aunAzsTg9zXno-Nds-1" edge="1">
                    <mxGeometry relative="1" as="geometry">
                        <mxPoint x="245" y="130" as="targetPoint"/>
                    </mxGeometry>
                </mxCell>
                <mxCell id="GQ8aunAzsTg9zXno-Nds-3" value="Input data(email, password)" style="rounded=1;whiteSpace=wrap;html=1;arcSize=40;fontColor=#000000;fillColor=#ffffc0;strokeColor=#ff0000;" parent="1" vertex="1">
                    <mxGeometry x="185" y="130" width="120" height="40" as="geometry"/>
                </mxCell>
                <mxCell id="GQ8aunAzsTg9zXno-Nds-4" value="" style="edgeStyle=orthogonalEdgeStyle;html=1;verticalAlign=bottom;endArrow=open;endSize=8;strokeColor=#ff0000;" parent="1" source="GQ8aunAzsTg9zXno-Nds-3" target="GQ8aunAzsTg9zXno-Nds-8" edge="1">
                    <mxGeometry relative="1" as="geometry">
                        <mxPoint x="245" y="230" as="targetPoint"/>
                    </mxGeometry>
                </mxCell>
                <mxCell id="GQ8aunAzsTg9zXno-Nds-8" value="Is valid" style="rhombus;whiteSpace=wrap;html=1;fontColor=#000000;fillColor=#ffffc0;strokeColor=#ff0000;" parent="1" vertex="1">
                    <mxGeometry x="205" y="230" width="80" height="40" as="geometry"/>
                </mxCell>
                <mxCell id="GQ8aunAzsTg9zXno-Nds-9" value="no" style="edgeStyle=orthogonalEdgeStyle;html=1;align=left;verticalAlign=bottom;endArrow=open;endSize=8;strokeColor=#ff0000;" parent="1" source="GQ8aunAzsTg9zXno-Nds-8" target="GQ8aunAzsTg9zXno-Nds-11" edge="1">
                    <mxGeometry x="-1" relative="1" as="geometry">
                        <mxPoint x="380" y="260" as="targetPoint"/>
                    </mxGeometry>
                </mxCell>
                <mxCell id="GQ8aunAzsTg9zXno-Nds-10" value="yes" style="edgeStyle=orthogonalEdgeStyle;html=1;align=left;verticalAlign=top;endArrow=open;endSize=8;strokeColor=#ff0000;" parent="1" source="GQ8aunAzsTg9zXno-Nds-8" target="GQ8aunAzsTg9zXno-Nds-15" edge="1">
                    <mxGeometry x="-1" relative="1" as="geometry">
                        <mxPoint x="240" y="340" as="targetPoint"/>
                    </mxGeometry>
                </mxCell>
                <mxCell id="GQ8aunAzsTg9zXno-Nds-11" value="Tampilkan Error" style="rounded=1;whiteSpace=wrap;html=1;arcSize=40;fontColor=#000000;fillColor=#ffffc0;strokeColor=#ff0000;" parent="1" vertex="1">
                    <mxGeometry x="340" y="230" width="120" height="40" as="geometry"/>
                </mxCell>
                <mxCell id="GQ8aunAzsTg9zXno-Nds-12" value="" style="edgeStyle=orthogonalEdgeStyle;html=1;verticalAlign=bottom;endArrow=open;endSize=8;strokeColor=#ff0000;entryX=1;entryY=0.5;entryDx=0;entryDy=0;exitX=0.5;exitY=0;exitDx=0;exitDy=0;" parent="1" source="GQ8aunAzsTg9zXno-Nds-11" target="GQ8aunAzsTg9zXno-Nds-3" edge="1">
                    <mxGeometry relative="1" as="geometry">
                        <mxPoint x="440" y="340" as="targetPoint"/>
                        <Array as="points">
                            <mxPoint x="400" y="150"/>
                        </Array>
                    </mxGeometry>
                </mxCell>
                <mxCell id="GQ8aunAzsTg9zXno-Nds-15" value="" style="ellipse;html=1;shape=endState;fillColor=#000000;strokeColor=#ff0000;" parent="1" vertex="1">
                    <mxGeometry x="230" y="325" width="30" height="30" as="geometry"/>
                </mxCell>
                <mxCell id="GQ8aunAzsTg9zXno-Nds-17" value="Login System" style="text;html=1;align=center;verticalAlign=middle;whiteSpace=wrap;rounded=0;" parent="1" vertex="1">
                    <mxGeometry x="320" y="70" width="60" height="30" as="geometry"/>
                </mxCell>
                <mxCell id="GQ8aunAzsTg9zXno-Nds-30" value="" style="rounded=0;whiteSpace=wrap;html=1;" parent="1" vertex="1">
                    <mxGeometry x="-160" y="50" width="300" height="320" as="geometry"/>
                </mxCell>
                <mxCell id="GQ8aunAzsTg9zXno-Nds-31" value="" style="ellipse;html=1;shape=startState;fillColor=#000000;strokeColor=#ff0000;" parent="1" vertex="1">
                    <mxGeometry x="-100" y="60" width="30" height="30" as="geometry"/>
                </mxCell>
                <mxCell id="GQ8aunAzsTg9zXno-Nds-32" value="" style="edgeStyle=orthogonalEdgeStyle;html=1;verticalAlign=bottom;endArrow=open;endSize=8;strokeColor=#ff0000;" parent="1" source="GQ8aunAzsTg9zXno-Nds-31" edge="1">
                    <mxGeometry relative="1" as="geometry">
                        <mxPoint x="-85" y="130" as="targetPoint"/>
                    </mxGeometry>
                </mxCell>
                <mxCell id="GQ8aunAzsTg9zXno-Nds-33" value="Input data(name, email, password)" style="rounded=1;whiteSpace=wrap;html=1;arcSize=40;fontColor=#000000;fillColor=#ffffc0;strokeColor=#ff0000;" parent="1" vertex="1">
                    <mxGeometry x="-145" y="130" width="120" height="40" as="geometry"/>
                </mxCell>
                <mxCell id="GQ8aunAzsTg9zXno-Nds-34" value="" style="edgeStyle=orthogonalEdgeStyle;html=1;verticalAlign=bottom;endArrow=open;endSize=8;strokeColor=#ff0000;" parent="1" source="GQ8aunAzsTg9zXno-Nds-33" target="GQ8aunAzsTg9zXno-Nds-35" edge="1">
                    <mxGeometry relative="1" as="geometry">
                        <mxPoint x="-85" y="230" as="targetPoint"/>
                    </mxGeometry>
                </mxCell>
                <mxCell id="GQ8aunAzsTg9zXno-Nds-35" value="Is valid" style="rhombus;whiteSpace=wrap;html=1;fontColor=#000000;fillColor=#ffffc0;strokeColor=#ff0000;" parent="1" vertex="1">
                    <mxGeometry x="-125" y="230" width="80" height="40" as="geometry"/>
                </mxCell>
                <mxCell id="GQ8aunAzsTg9zXno-Nds-36" value="no" style="edgeStyle=orthogonalEdgeStyle;html=1;align=left;verticalAlign=bottom;endArrow=open;endSize=8;strokeColor=#ff0000;" parent="1" source="GQ8aunAzsTg9zXno-Nds-35" target="GQ8aunAzsTg9zXno-Nds-38" edge="1">
                    <mxGeometry x="-1" relative="1" as="geometry">
                        <mxPoint x="50" y="260" as="targetPoint"/>
                    </mxGeometry>
                </mxCell>
                <mxCell id="GQ8aunAzsTg9zXno-Nds-37" value="yes" style="edgeStyle=orthogonalEdgeStyle;html=1;align=left;verticalAlign=top;endArrow=open;endSize=8;strokeColor=#ff0000;" parent="1" source="GQ8aunAzsTg9zXno-Nds-35" target="GQ8aunAzsTg9zXno-Nds-40" edge="1">
                    <mxGeometry x="-1" relative="1" as="geometry">
                        <mxPoint x="-90" y="340" as="targetPoint"/>
                    </mxGeometry>
                </mxCell>
                <mxCell id="GQ8aunAzsTg9zXno-Nds-38" value="Tampilkan Error" style="rounded=1;whiteSpace=wrap;html=1;arcSize=40;fontColor=#000000;fillColor=#ffffc0;strokeColor=#ff0000;" parent="1" vertex="1">
                    <mxGeometry x="10" y="230" width="120" height="40" as="geometry"/>
                </mxCell>
                <mxCell id="GQ8aunAzsTg9zXno-Nds-39" value="" style="edgeStyle=orthogonalEdgeStyle;html=1;verticalAlign=bottom;endArrow=open;endSize=8;strokeColor=#ff0000;entryX=1;entryY=0.5;entryDx=0;entryDy=0;exitX=0.5;exitY=0;exitDx=0;exitDy=0;" parent="1" source="GQ8aunAzsTg9zXno-Nds-38" target="GQ8aunAzsTg9zXno-Nds-33" edge="1">
                    <mxGeometry relative="1" as="geometry">
                        <mxPoint x="110" y="340" as="targetPoint"/>
                        <Array as="points">
                            <mxPoint x="70" y="150"/>
                        </Array>
                    </mxGeometry>
                </mxCell>
                <mxCell id="GQ8aunAzsTg9zXno-Nds-40" value="" style="ellipse;html=1;shape=endState;fillColor=#000000;strokeColor=#ff0000;" parent="1" vertex="1">
                    <mxGeometry x="-100" y="325" width="30" height="30" as="geometry"/>
                </mxCell>
                <mxCell id="GQ8aunAzsTg9zXno-Nds-41" value="Register System" style="text;html=1;align=center;verticalAlign=middle;whiteSpace=wrap;rounded=0;" parent="1" vertex="1">
                    <mxGeometry x="-10" y="70" width="60" height="30" as="geometry"/>
                </mxCell>
                <mxCell id="GQ8aunAzsTg9zXno-Nds-42" value="" style="rounded=0;whiteSpace=wrap;html=1;" parent="1" vertex="1">
                    <mxGeometry x="510" y="50" width="310" height="450" as="geometry"/>
                </mxCell>
                <mxCell id="GQ8aunAzsTg9zXno-Nds-43" value="" style="ellipse;html=1;shape=startState;fillColor=#000000;strokeColor=#ff0000;" parent="1" vertex="1">
                    <mxGeometry x="570" y="60" width="30" height="30" as="geometry"/>
                </mxCell>
                <mxCell id="GQ8aunAzsTg9zXno-Nds-44" value="" style="edgeStyle=orthogonalEdgeStyle;html=1;verticalAlign=bottom;endArrow=open;endSize=8;strokeColor=#ff0000;" parent="1" source="GQ8aunAzsTg9zXno-Nds-43" target="GQ8aunAzsTg9zXno-Nds-54" edge="1">
                    <mxGeometry relative="1" as="geometry">
                        <mxPoint x="585" y="130" as="targetPoint"/>
                    </mxGeometry>
                </mxCell>
                <mxCell id="GQ8aunAzsTg9zXno-Nds-45" value="Input data(name, email, password) Baru" style="rounded=1;whiteSpace=wrap;html=1;arcSize=40;fontColor=#000000;fillColor=#ffffc0;strokeColor=#ff0000;" parent="1" vertex="1">
                    <mxGeometry x="522.5" y="260" width="120" height="40" as="geometry"/>
                </mxCell>
                <mxCell id="GQ8aunAzsTg9zXno-Nds-46" value="" style="edgeStyle=orthogonalEdgeStyle;html=1;verticalAlign=bottom;endArrow=open;endSize=8;strokeColor=#ff0000;" parent="1" source="GQ8aunAzsTg9zXno-Nds-45" target="GQ8aunAzsTg9zXno-Nds-47" edge="1">
                    <mxGeometry relative="1" as="geometry">
                        <mxPoint x="585" y="165" as="targetPoint"/>
                    </mxGeometry>
                </mxCell>
                <mxCell id="GQ8aunAzsTg9zXno-Nds-47" value="Is valid" style="rhombus;whiteSpace=wrap;html=1;fontColor=#000000;fillColor=#ffffc0;strokeColor=#ff0000;" parent="1" vertex="1">
                    <mxGeometry x="542.5" y="360" width="80" height="40" as="geometry"/>
                </mxCell>
                <mxCell id="GQ8aunAzsTg9zXno-Nds-48" value="no" style="edgeStyle=orthogonalEdgeStyle;html=1;align=left;verticalAlign=bottom;endArrow=open;endSize=8;strokeColor=#ff0000;" parent="1" source="GQ8aunAzsTg9zXno-Nds-47" target="GQ8aunAzsTg9zXno-Nds-50" edge="1">
                    <mxGeometry x="-1" relative="1" as="geometry">
                        <mxPoint x="720" y="195" as="targetPoint"/>
                    </mxGeometry>
                </mxCell>
                <mxCell id="GQ8aunAzsTg9zXno-Nds-49" value="yes" style="edgeStyle=orthogonalEdgeStyle;html=1;align=left;verticalAlign=top;endArrow=open;endSize=8;strokeColor=#ff0000;" parent="1" source="GQ8aunAzsTg9zXno-Nds-47" target="GQ8aunAzsTg9zXno-Nds-52" edge="1">
                    <mxGeometry x="-1" relative="1" as="geometry">
                        <mxPoint x="580" y="275" as="targetPoint"/>
                    </mxGeometry>
                </mxCell>
                <mxCell id="GQ8aunAzsTg9zXno-Nds-50" value="Tampilkan Error" style="rounded=1;whiteSpace=wrap;html=1;arcSize=40;fontColor=#000000;fillColor=#ffffc0;strokeColor=#ff0000;" parent="1" vertex="1">
                    <mxGeometry x="677.5" y="360" width="120" height="40" as="geometry"/>
                </mxCell>
                <mxCell id="GQ8aunAzsTg9zXno-Nds-51" value="" style="edgeStyle=orthogonalEdgeStyle;html=1;verticalAlign=bottom;endArrow=open;endSize=8;strokeColor=#ff0000;entryX=1;entryY=0.5;entryDx=0;entryDy=0;exitX=0.5;exitY=0;exitDx=0;exitDy=0;" parent="1" source="GQ8aunAzsTg9zXno-Nds-50" target="GQ8aunAzsTg9zXno-Nds-45" edge="1">
                    <mxGeometry relative="1" as="geometry">
                        <mxPoint x="777.5" y="470" as="targetPoint"/>
                        <Array as="points">
                            <mxPoint x="737.5" y="280"/>
                        </Array>
                    </mxGeometry>
                </mxCell>
                <mxCell id="GQ8aunAzsTg9zXno-Nds-52" value="" style="ellipse;html=1;shape=endState;fillColor=#000000;strokeColor=#ff0000;" parent="1" vertex="1">
                    <mxGeometry x="567.5" y="455" width="30" height="30" as="geometry"/>
                </mxCell>
                <mxCell id="GQ8aunAzsTg9zXno-Nds-53" value="Update Own Account System" style="text;html=1;align=center;verticalAlign=middle;whiteSpace=wrap;rounded=0;" parent="1" vertex="1">
                    <mxGeometry x="660" y="70" width="90" height="30" as="geometry"/>
                </mxCell>
                <mxCell id="GQ8aunAzsTg9zXno-Nds-54" value="User Sudah Login" style="rhombus;whiteSpace=wrap;html=1;fontColor=#000000;fillColor=#ffffc0;strokeColor=#ff0000;" parent="1" vertex="1">
                    <mxGeometry x="542.5" y="130" width="85" height="70" as="geometry"/>
                </mxCell>
                <mxCell id="GQ8aunAzsTg9zXno-Nds-55" value="no" style="edgeStyle=orthogonalEdgeStyle;html=1;align=left;verticalAlign=bottom;endArrow=open;endSize=8;strokeColor=#ff0000;" parent="1" source="GQ8aunAzsTg9zXno-Nds-54" target="GQ8aunAzsTg9zXno-Nds-58" edge="1">
                    <mxGeometry x="-1" relative="1" as="geometry">
                        <mxPoint x="730" y="150" as="targetPoint"/>
                    </mxGeometry>
                </mxCell>
                <mxCell id="GQ8aunAzsTg9zXno-Nds-56" value="yes" style="html=1;align=left;verticalAlign=top;endArrow=open;endSize=8;strokeColor=#ff0000;" parent="1" source="GQ8aunAzsTg9zXno-Nds-54" target="GQ8aunAzsTg9zXno-Nds-45" edge="1">
                    <mxGeometry x="-1" relative="1" as="geometry">
                        <mxPoint x="600" y="230" as="targetPoint"/>
                    </mxGeometry>
                </mxCell>
                <mxCell id="GQ8aunAzsTg9zXno-Nds-58" value="Redirect System Login" style="rounded=1;whiteSpace=wrap;html=1;arcSize=40;fontColor=#000000;fillColor=#ffffc0;strokeColor=#ff0000;" parent="1" vertex="1">
                    <mxGeometry x="690" y="145" width="120" height="40" as="geometry"/>
                </mxCell>
                <mxCell id="GQ8aunAzsTg9zXno-Nds-76" value="" style="rounded=0;whiteSpace=wrap;html=1;" parent="1" vertex="1">
                    <mxGeometry x="870" y="50" width="310" height="450" as="geometry"/>
                </mxCell>
                <mxCell id="GQ8aunAzsTg9zXno-Nds-77" value="" style="ellipse;html=1;shape=startState;fillColor=#000000;strokeColor=#ff0000;" parent="1" vertex="1">
                    <mxGeometry x="930" y="60" width="30" height="30" as="geometry"/>
                </mxCell>
                <mxCell id="GQ8aunAzsTg9zXno-Nds-78" value="" style="edgeStyle=orthogonalEdgeStyle;html=1;verticalAlign=bottom;endArrow=open;endSize=8;strokeColor=#ff0000;" parent="1" source="GQ8aunAzsTg9zXno-Nds-77" target="GQ8aunAzsTg9zXno-Nds-88" edge="1">
                    <mxGeometry relative="1" as="geometry">
                        <mxPoint x="945" y="130" as="targetPoint"/>
                    </mxGeometry>
                </mxCell>
                <mxCell id="GQ8aunAzsTg9zXno-Nds-79" value="Input Password" style="rounded=1;whiteSpace=wrap;html=1;arcSize=40;fontColor=#000000;fillColor=#ffffc0;strokeColor=#ff0000;" parent="1" vertex="1">
                    <mxGeometry x="882.5" y="260" width="120" height="40" as="geometry"/>
                </mxCell>
                <mxCell id="GQ8aunAzsTg9zXno-Nds-80" value="" style="edgeStyle=orthogonalEdgeStyle;html=1;verticalAlign=bottom;endArrow=open;endSize=8;strokeColor=#ff0000;" parent="1" source="GQ8aunAzsTg9zXno-Nds-79" target="GQ8aunAzsTg9zXno-Nds-81" edge="1">
                    <mxGeometry relative="1" as="geometry">
                        <mxPoint x="945" y="165" as="targetPoint"/>
                    </mxGeometry>
                </mxCell>
                <mxCell id="GQ8aunAzsTg9zXno-Nds-81" value="Is valid" style="rhombus;whiteSpace=wrap;html=1;fontColor=#000000;fillColor=#ffffc0;strokeColor=#ff0000;" parent="1" vertex="1">
                    <mxGeometry x="902.5" y="360" width="80" height="40" as="geometry"/>
                </mxCell>
                <mxCell id="GQ8aunAzsTg9zXno-Nds-82" value="no" style="edgeStyle=orthogonalEdgeStyle;html=1;align=left;verticalAlign=bottom;endArrow=open;endSize=8;strokeColor=#ff0000;" parent="1" source="GQ8aunAzsTg9zXno-Nds-81" target="GQ8aunAzsTg9zXno-Nds-84" edge="1">
                    <mxGeometry x="-1" relative="1" as="geometry">
                        <mxPoint x="1080" y="195" as="targetPoint"/>
                    </mxGeometry>
                </mxCell>
                <mxCell id="GQ8aunAzsTg9zXno-Nds-83" value="yes" style="edgeStyle=orthogonalEdgeStyle;html=1;align=left;verticalAlign=top;endArrow=open;endSize=8;strokeColor=#ff0000;" parent="1" source="GQ8aunAzsTg9zXno-Nds-81" target="GQ8aunAzsTg9zXno-Nds-86" edge="1">
                    <mxGeometry x="-1" relative="1" as="geometry">
                        <mxPoint x="940" y="275" as="targetPoint"/>
                    </mxGeometry>
                </mxCell>
                <mxCell id="GQ8aunAzsTg9zXno-Nds-84" value="Tampilkan Error" style="rounded=1;whiteSpace=wrap;html=1;arcSize=40;fontColor=#000000;fillColor=#ffffc0;strokeColor=#ff0000;" parent="1" vertex="1">
                    <mxGeometry x="1037.5" y="360" width="120" height="40" as="geometry"/>
                </mxCell>
                <mxCell id="GQ8aunAzsTg9zXno-Nds-85" value="" style="edgeStyle=orthogonalEdgeStyle;html=1;verticalAlign=bottom;endArrow=open;endSize=8;strokeColor=#ff0000;entryX=1;entryY=0.5;entryDx=0;entryDy=0;exitX=0.5;exitY=0;exitDx=0;exitDy=0;" parent="1" source="GQ8aunAzsTg9zXno-Nds-84" target="GQ8aunAzsTg9zXno-Nds-79" edge="1">
                    <mxGeometry relative="1" as="geometry">
                        <mxPoint x="1137.5" y="470" as="targetPoint"/>
                        <Array as="points">
                            <mxPoint x="1097.5" y="280"/>
                        </Array>
                    </mxGeometry>
                </mxCell>
                <mxCell id="GQ8aunAzsTg9zXno-Nds-86" value="" style="ellipse;html=1;shape=endState;fillColor=#000000;strokeColor=#ff0000;" parent="1" vertex="1">
                    <mxGeometry x="927.5" y="455" width="30" height="30" as="geometry"/>
                </mxCell>
                <mxCell id="GQ8aunAzsTg9zXno-Nds-87" value="Delete Own Account System" style="text;html=1;align=center;verticalAlign=middle;whiteSpace=wrap;rounded=0;" parent="1" vertex="1">
                    <mxGeometry x="1020" y="70" width="90" height="30" as="geometry"/>
                </mxCell>
                <mxCell id="GQ8aunAzsTg9zXno-Nds-88" value="User Sudah Login" style="rhombus;whiteSpace=wrap;html=1;fontColor=#000000;fillColor=#ffffc0;strokeColor=#ff0000;" parent="1" vertex="1">
                    <mxGeometry x="902.5" y="130" width="85" height="70" as="geometry"/>
                </mxCell>
                <mxCell id="GQ8aunAzsTg9zXno-Nds-89" value="no" style="edgeStyle=orthogonalEdgeStyle;html=1;align=left;verticalAlign=bottom;endArrow=open;endSize=8;strokeColor=#ff0000;" parent="1" source="GQ8aunAzsTg9zXno-Nds-88" target="GQ8aunAzsTg9zXno-Nds-91" edge="1">
                    <mxGeometry x="-1" relative="1" as="geometry">
                        <mxPoint x="1090" y="150" as="targetPoint"/>
                    </mxGeometry>
                </mxCell>
                <mxCell id="GQ8aunAzsTg9zXno-Nds-90" value="yes" style="html=1;align=left;verticalAlign=top;endArrow=open;endSize=8;strokeColor=#ff0000;" parent="1" source="GQ8aunAzsTg9zXno-Nds-88" target="GQ8aunAzsTg9zXno-Nds-79" edge="1">
                    <mxGeometry x="-1" relative="1" as="geometry">
                        <mxPoint x="960" y="230" as="targetPoint"/>
                    </mxGeometry>
                </mxCell>
                <mxCell id="GQ8aunAzsTg9zXno-Nds-91" value="Redirect System Login" style="rounded=1;whiteSpace=wrap;html=1;arcSize=40;fontColor=#000000;fillColor=#ffffc0;strokeColor=#ff0000;" parent="1" vertex="1">
                    <mxGeometry x="1050" y="145" width="120" height="40" as="geometry"/>
                </mxCell>
                <mxCell id="eLHap7w39RxIFrQCzyfE-1" value="" style="rounded=0;whiteSpace=wrap;html=1;" parent="1" vertex="1">
                    <mxGeometry x="-160" y="540" width="310" height="450" as="geometry"/>
                </mxCell>
                <mxCell id="eLHap7w39RxIFrQCzyfE-2" value="" style="ellipse;html=1;shape=startState;fillColor=#000000;strokeColor=#ff0000;" parent="1" vertex="1">
                    <mxGeometry x="-103" y="550" width="30" height="30" as="geometry"/>
                </mxCell>
                <mxCell id="eLHap7w39RxIFrQCzyfE-3" value="" style="edgeStyle=orthogonalEdgeStyle;html=1;verticalAlign=bottom;endArrow=open;endSize=8;strokeColor=#ff0000;" parent="1" source="eLHap7w39RxIFrQCzyfE-2" target="eLHap7w39RxIFrQCzyfE-13" edge="1">
                    <mxGeometry relative="1" as="geometry">
                        <mxPoint x="-88" y="620" as="targetPoint"/>
                    </mxGeometry>
                </mxCell>
                <mxCell id="eLHap7w39RxIFrQCzyfE-4" value="Pilih Berita" style="rounded=1;whiteSpace=wrap;html=1;arcSize=40;fontColor=#000000;fillColor=#ffffc0;strokeColor=#ff0000;" parent="1" vertex="1">
                    <mxGeometry x="-145" y="750" width="120" height="40" as="geometry"/>
                </mxCell>
                <mxCell id="eLHap7w39RxIFrQCzyfE-11" value="" style="ellipse;html=1;shape=endState;fillColor=#000000;strokeColor=#ff0000;" parent="1" vertex="1">
                    <mxGeometry x="-100" y="945" width="30" height="30" as="geometry"/>
                </mxCell>
                <mxCell id="eLHap7w39RxIFrQCzyfE-12" value="Membuat Komentar Berita System" style="text;html=1;align=center;verticalAlign=middle;whiteSpace=wrap;rounded=0;" parent="1" vertex="1">
                    <mxGeometry x="-13" y="560" width="90" height="30" as="geometry"/>
                </mxCell>
                <mxCell id="eLHap7w39RxIFrQCzyfE-13" value="User Sudah Login" style="rhombus;whiteSpace=wrap;html=1;fontColor=#000000;fillColor=#ffffc0;strokeColor=#ff0000;" parent="1" vertex="1">
                    <mxGeometry x="-130.5" y="620" width="85" height="70" as="geometry"/>
                </mxCell>
                <mxCell id="eLHap7w39RxIFrQCzyfE-14" value="no" style="edgeStyle=orthogonalEdgeStyle;html=1;align=left;verticalAlign=bottom;endArrow=open;endSize=8;strokeColor=#ff0000;" parent="1" source="eLHap7w39RxIFrQCzyfE-13" target="eLHap7w39RxIFrQCzyfE-16" edge="1">
                    <mxGeometry x="-1" relative="1" as="geometry">
                        <mxPoint x="57" y="640" as="targetPoint"/>
                    </mxGeometry>
                </mxCell>
                <mxCell id="eLHap7w39RxIFrQCzyfE-15" value="yes" style="html=1;align=left;verticalAlign=top;endArrow=open;endSize=8;strokeColor=#ff0000;" parent="1" source="eLHap7w39RxIFrQCzyfE-13" target="eLHap7w39RxIFrQCzyfE-4" edge="1">
                    <mxGeometry x="-1" relative="1" as="geometry">
                        <mxPoint x="-73" y="720" as="targetPoint"/>
                    </mxGeometry>
                </mxCell>
                <mxCell id="eLHap7w39RxIFrQCzyfE-16" value="Redirect System Login" style="rounded=1;whiteSpace=wrap;html=1;arcSize=40;fontColor=#000000;fillColor=#ffffc0;strokeColor=#ff0000;" parent="1" vertex="1">
                    <mxGeometry x="17" y="635" width="120" height="40" as="geometry"/>
                </mxCell>
                <mxCell id="lv1OmBNpbQH_UQtoect8-6" value="&lt;span style=&quot;color: rgb(0, 0, 0);&quot;&gt;Input data(image, title, content)&lt;/span&gt;" style="rounded=1;whiteSpace=wrap;html=1;arcSize=40;fontColor=#000000;fillColor=#ffffc0;strokeColor=#ff0000;" parent="1" vertex="1">
                    <mxGeometry x="-145" y="850" width="120" height="40" as="geometry"/>
                </mxCell>
                <mxCell id="lv1OmBNpbQH_UQtoect8-7" value="" style="edgeStyle=orthogonalEdgeStyle;html=1;verticalAlign=bottom;endArrow=open;endSize=8;strokeColor=#ff0000;" parent="1" source="lv1OmBNpbQH_UQtoect8-6" target="eLHap7w39RxIFrQCzyfE-11" edge="1">
                    <mxGeometry relative="1" as="geometry">
                        <mxPoint x="-88" y="930" as="targetPoint"/>
                    </mxGeometry>
                </mxCell>
                <mxCell id="lv1OmBNpbQH_UQtoect8-9" value="" style="html=1;verticalAlign=bottom;endArrow=open;endSize=8;strokeColor=#ff0000;" parent="1" source="eLHap7w39RxIFrQCzyfE-4" target="lv1OmBNpbQH_UQtoect8-6" edge="1">
                    <mxGeometry relative="1" as="geometry">
                        <mxPoint x="-80" y="955" as="targetPoint"/>
                        <mxPoint x="20" y="920" as="sourcePoint"/>
                    </mxGeometry>
                </mxCell>
                <mxCell id="lv1OmBNpbQH_UQtoect8-10" value="" style="rounded=0;whiteSpace=wrap;html=1;" parent="1" vertex="1">
                    <mxGeometry x="205" y="540" width="310" height="450" as="geometry"/>
                </mxCell>
                <mxCell id="lv1OmBNpbQH_UQtoect8-11" value="" style="ellipse;html=1;shape=startState;fillColor=#000000;strokeColor=#ff0000;" parent="1" vertex="1">
                    <mxGeometry x="262" y="550" width="30" height="30" as="geometry"/>
                </mxCell>
                <mxCell id="lv1OmBNpbQH_UQtoect8-12" value="" style="edgeStyle=orthogonalEdgeStyle;html=1;verticalAlign=bottom;endArrow=open;endSize=8;strokeColor=#ff0000;" parent="1" source="lv1OmBNpbQH_UQtoect8-11" target="lv1OmBNpbQH_UQtoect8-16" edge="1">
                    <mxGeometry relative="1" as="geometry">
                        <mxPoint x="277" y="620" as="targetPoint"/>
                    </mxGeometry>
                </mxCell>
                <mxCell id="lv1OmBNpbQH_UQtoect8-13" value="Pilih Komentar" style="rounded=1;whiteSpace=wrap;html=1;arcSize=40;fontColor=#000000;fillColor=#ffffc0;strokeColor=#ff0000;" parent="1" vertex="1">
                    <mxGeometry x="220" y="750" width="120" height="40" as="geometry"/>
                </mxCell>
                <mxCell id="lv1OmBNpbQH_UQtoect8-14" value="" style="ellipse;html=1;shape=endState;fillColor=#000000;strokeColor=#ff0000;" parent="1" vertex="1">
                    <mxGeometry x="265" y="945" width="30" height="30" as="geometry"/>
                </mxCell>
                <mxCell id="lv1OmBNpbQH_UQtoect8-15" value="Mengupdate Komentar Berita System" style="text;html=1;align=center;verticalAlign=middle;whiteSpace=wrap;rounded=0;" parent="1" vertex="1">
                    <mxGeometry x="352" y="560" width="90" height="30" as="geometry"/>
                </mxCell>
                <mxCell id="lv1OmBNpbQH_UQtoect8-16" value="User Sudah Login" style="rhombus;whiteSpace=wrap;html=1;fontColor=#000000;fillColor=#ffffc0;strokeColor=#ff0000;" parent="1" vertex="1">
                    <mxGeometry x="234.5" y="620" width="85" height="70" as="geometry"/>
                </mxCell>
                <mxCell id="lv1OmBNpbQH_UQtoect8-17" value="no" style="edgeStyle=orthogonalEdgeStyle;html=1;align=left;verticalAlign=bottom;endArrow=open;endSize=8;strokeColor=#ff0000;" parent="1" source="lv1OmBNpbQH_UQtoect8-16" target="lv1OmBNpbQH_UQtoect8-19" edge="1">
                    <mxGeometry x="-1" relative="1" as="geometry">
                        <mxPoint x="422" y="640" as="targetPoint"/>
                    </mxGeometry>
                </mxCell>
                <mxCell id="lv1OmBNpbQH_UQtoect8-18" value="yes" style="html=1;align=left;verticalAlign=top;endArrow=open;endSize=8;strokeColor=#ff0000;" parent="1" source="lv1OmBNpbQH_UQtoect8-16" target="lv1OmBNpbQH_UQtoect8-13" edge="1">
                    <mxGeometry x="-1" relative="1" as="geometry">
                        <mxPoint x="292" y="720" as="targetPoint"/>
                    </mxGeometry>
                </mxCell>
                <mxCell id="lv1OmBNpbQH_UQtoect8-19" value="Redirect System Login" style="rounded=1;whiteSpace=wrap;html=1;arcSize=40;fontColor=#000000;fillColor=#ffffc0;strokeColor=#ff0000;" parent="1" vertex="1">
                    <mxGeometry x="382" y="635" width="120" height="40" as="geometry"/>
                </mxCell>
                <mxCell id="lv1OmBNpbQH_UQtoect8-20" value="&lt;span style=&quot;color: rgb(0, 0, 0);&quot;&gt;Input data(image, title, content) Baru&lt;/span&gt;" style="rounded=1;whiteSpace=wrap;html=1;arcSize=40;fontColor=#000000;fillColor=#ffffc0;strokeColor=#ff0000;" parent="1" vertex="1">
                    <mxGeometry x="220" y="850" width="120" height="40" as="geometry"/>
                </mxCell>
                <mxCell id="lv1OmBNpbQH_UQtoect8-21" value="" style="edgeStyle=orthogonalEdgeStyle;html=1;verticalAlign=bottom;endArrow=open;endSize=8;strokeColor=#ff0000;" parent="1" source="lv1OmBNpbQH_UQtoect8-20" target="lv1OmBNpbQH_UQtoect8-14" edge="1">
                    <mxGeometry relative="1" as="geometry">
                        <mxPoint x="277" y="930" as="targetPoint"/>
                    </mxGeometry>
                </mxCell>
                <mxCell id="lv1OmBNpbQH_UQtoect8-22" value="" style="html=1;verticalAlign=bottom;endArrow=open;endSize=8;strokeColor=#ff0000;" parent="1" source="lv1OmBNpbQH_UQtoect8-13" target="lv1OmBNpbQH_UQtoect8-20" edge="1">
                    <mxGeometry relative="1" as="geometry">
                        <mxPoint x="285" y="955" as="targetPoint"/>
                        <mxPoint x="385" y="920" as="sourcePoint"/>
                    </mxGeometry>
                </mxCell>
                <mxCell id="lv1OmBNpbQH_UQtoect8-24" value="" style="rounded=0;whiteSpace=wrap;html=1;" parent="1" vertex="1">
                    <mxGeometry x="550" y="540" width="310" height="575" as="geometry"/>
                </mxCell>
                <mxCell id="lv1OmBNpbQH_UQtoect8-25" value="" style="ellipse;html=1;shape=startState;fillColor=#000000;strokeColor=#ff0000;" parent="1" vertex="1">
                    <mxGeometry x="607" y="550" width="30" height="30" as="geometry"/>
                </mxCell>
                <mxCell id="lv1OmBNpbQH_UQtoect8-26" value="" style="edgeStyle=orthogonalEdgeStyle;html=1;verticalAlign=bottom;endArrow=open;endSize=8;strokeColor=#ff0000;" parent="1" source="lv1OmBNpbQH_UQtoect8-25" target="lv1OmBNpbQH_UQtoect8-30" edge="1">
                    <mxGeometry relative="1" as="geometry">
                        <mxPoint x="622" y="620" as="targetPoint"/>
                    </mxGeometry>
                </mxCell>
                <mxCell id="lv1OmBNpbQH_UQtoect8-27" value="Pilih Komentar" style="rounded=1;whiteSpace=wrap;html=1;arcSize=40;fontColor=#000000;fillColor=#ffffc0;strokeColor=#ff0000;" parent="1" vertex="1">
                    <mxGeometry x="565" y="750" width="120" height="40" as="geometry"/>
                </mxCell>
                <mxCell id="lv1OmBNpbQH_UQtoect8-28" value="" style="ellipse;html=1;shape=endState;fillColor=#000000;strokeColor=#ff0000;" parent="1" vertex="1">
                    <mxGeometry x="610" y="1065" width="30" height="30" as="geometry"/>
                </mxCell>
                <mxCell id="lv1OmBNpbQH_UQtoect8-29" value="Menghapus Komentar Berita System" style="text;html=1;align=center;verticalAlign=middle;whiteSpace=wrap;rounded=0;" parent="1" vertex="1">
                    <mxGeometry x="697" y="560" width="90" height="30" as="geometry"/>
                </mxCell>
                <mxCell id="lv1OmBNpbQH_UQtoect8-30" value="User Sudah Login" style="rhombus;whiteSpace=wrap;html=1;fontColor=#000000;fillColor=#ffffc0;strokeColor=#ff0000;" parent="1" vertex="1">
                    <mxGeometry x="579.5" y="620" width="85" height="70" as="geometry"/>
                </mxCell>
                <mxCell id="lv1OmBNpbQH_UQtoect8-31" value="no" style="edgeStyle=orthogonalEdgeStyle;html=1;align=left;verticalAlign=bottom;endArrow=open;endSize=8;strokeColor=#ff0000;" parent="1" source="lv1OmBNpbQH_UQtoect8-30" target="lv1OmBNpbQH_UQtoect8-33" edge="1">
                    <mxGeometry x="-1" relative="1" as="geometry">
                        <mxPoint x="767" y="640" as="targetPoint"/>
                    </mxGeometry>
                </mxCell>
                <mxCell id="lv1OmBNpbQH_UQtoect8-32" value="yes" style="html=1;align=left;verticalAlign=top;endArrow=open;endSize=8;strokeColor=#ff0000;" parent="1" source="lv1OmBNpbQH_UQtoect8-30" target="lv1OmBNpbQH_UQtoect8-27" edge="1">
                    <mxGeometry x="-1" relative="1" as="geometry">
                        <mxPoint x="637" y="720" as="targetPoint"/>
                    </mxGeometry>
                </mxCell>
                <mxCell id="lv1OmBNpbQH_UQtoect8-33" value="Redirect System Login" style="rounded=1;whiteSpace=wrap;html=1;arcSize=40;fontColor=#000000;fillColor=#ffffc0;strokeColor=#ff0000;" parent="1" vertex="1">
                    <mxGeometry x="727" y="635" width="120" height="40" as="geometry"/>
                </mxCell>
                <mxCell id="lv1OmBNpbQH_UQtoect8-34" value="&lt;span style=&quot;color: rgb(0, 0, 0);&quot;&gt;Masukkan Password&lt;/span&gt;" style="rounded=1;whiteSpace=wrap;html=1;arcSize=40;fontColor=#000000;fillColor=#ffffc0;strokeColor=#ff0000;" parent="1" vertex="1">
                    <mxGeometry x="565" y="850" width="120" height="40" as="geometry"/>
                </mxCell>
                <mxCell id="lv1OmBNpbQH_UQtoect8-35" value="" style="edgeStyle=orthogonalEdgeStyle;html=1;verticalAlign=bottom;endArrow=open;endSize=8;strokeColor=#ff0000;" parent="1" source="lv1OmBNpbQH_UQtoect8-34" target="lv1OmBNpbQH_UQtoect8-42" edge="1">
                    <mxGeometry relative="1" as="geometry">
                        <mxPoint x="622" y="930" as="targetPoint"/>
                    </mxGeometry>
                </mxCell>
                <mxCell id="lv1OmBNpbQH_UQtoect8-36" value="" style="html=1;verticalAlign=bottom;endArrow=open;endSize=8;strokeColor=#ff0000;" parent="1" source="lv1OmBNpbQH_UQtoect8-27" target="lv1OmBNpbQH_UQtoect8-34" edge="1">
                    <mxGeometry relative="1" as="geometry">
                        <mxPoint x="630" y="955" as="targetPoint"/>
                        <mxPoint x="730" y="920" as="sourcePoint"/>
                    </mxGeometry>
                </mxCell>
                <mxCell id="lv1OmBNpbQH_UQtoect8-42" value="Is Valid" style="rhombus;whiteSpace=wrap;html=1;fontColor=#000000;fillColor=#ffffc0;strokeColor=#ff0000;" parent="1" vertex="1">
                    <mxGeometry x="584.5" y="945" width="80" height="40" as="geometry"/>
                </mxCell>
                <mxCell id="lv1OmBNpbQH_UQtoect8-43" value="no" style="edgeStyle=orthogonalEdgeStyle;html=1;align=left;verticalAlign=bottom;endArrow=open;endSize=8;strokeColor=#ff0000;" parent="1" source="lv1OmBNpbQH_UQtoect8-42" target="lv1OmBNpbQH_UQtoect8-49" edge="1">
                    <mxGeometry x="-1" relative="1" as="geometry">
                        <mxPoint x="907.5" y="860" as="targetPoint"/>
                    </mxGeometry>
                </mxCell>
                <mxCell id="lv1OmBNpbQH_UQtoect8-44" value="yes" style="edgeStyle=orthogonalEdgeStyle;html=1;align=left;verticalAlign=top;endArrow=open;endSize=8;strokeColor=#ff0000;" parent="1" source="lv1OmBNpbQH_UQtoect8-42" target="lv1OmBNpbQH_UQtoect8-28" edge="1">
                    <mxGeometry x="-1" relative="1" as="geometry">
                        <mxPoint x="767.5" y="940" as="targetPoint"/>
                    </mxGeometry>
                </mxCell>
                <mxCell id="lv1OmBNpbQH_UQtoect8-49" value="Tampilkan Error" style="rounded=1;whiteSpace=wrap;html=1;arcSize=40;fontColor=#000000;fillColor=#ffffc0;strokeColor=#ff0000;" parent="1" vertex="1">
                    <mxGeometry x="707.5" y="945" width="120" height="40" as="geometry"/>
                </mxCell>
                <mxCell id="lv1OmBNpbQH_UQtoect8-50" value="" style="edgeStyle=orthogonalEdgeStyle;html=1;verticalAlign=bottom;endArrow=open;endSize=8;strokeColor=#ff0000;exitX=0.5;exitY=0;exitDx=0;exitDy=0;entryX=1;entryY=0.5;entryDx=0;entryDy=0;" parent="1" source="lv1OmBNpbQH_UQtoect8-49" target="lv1OmBNpbQH_UQtoect8-34" edge="1">
                    <mxGeometry relative="1" as="geometry">
                        <mxPoint x="634.5" y="955" as="targetPoint"/>
                        <mxPoint x="635.5" y="900" as="sourcePoint"/>
                    </mxGeometry>
                </mxCell>
                <mxCell id="lv1OmBNpbQH_UQtoect8-95" value="" style="rounded=0;whiteSpace=wrap;html=1;" parent="1" vertex="1">
                    <mxGeometry x="-145" y="1180" width="310" height="450" as="geometry"/>
                </mxCell>
                <mxCell id="lv1OmBNpbQH_UQtoect8-96" value="" style="ellipse;html=1;shape=startState;fillColor=#000000;strokeColor=#ff0000;" parent="1" vertex="1">
                    <mxGeometry x="-88" y="1190" width="30" height="30" as="geometry"/>
                </mxCell>
                <mxCell id="lv1OmBNpbQH_UQtoect8-97" value="" style="edgeStyle=orthogonalEdgeStyle;html=1;verticalAlign=bottom;endArrow=open;endSize=8;strokeColor=#ff0000;" parent="1" source="lv1OmBNpbQH_UQtoect8-96" target="lv1OmBNpbQH_UQtoect8-101" edge="1">
                    <mxGeometry relative="1" as="geometry">
                        <mxPoint x="-73" y="1260" as="targetPoint"/>
                    </mxGeometry>
                </mxCell>
                <mxCell id="lv1OmBNpbQH_UQtoect8-98" value="Pilih Agenda" style="rounded=1;whiteSpace=wrap;html=1;arcSize=40;fontColor=#000000;fillColor=#ffffc0;strokeColor=#ff0000;" parent="1" vertex="1">
                    <mxGeometry x="-130" y="1390" width="120" height="40" as="geometry"/>
                </mxCell>
                <mxCell id="lv1OmBNpbQH_UQtoect8-99" value="" style="ellipse;html=1;shape=endState;fillColor=#000000;strokeColor=#ff0000;" parent="1" vertex="1">
                    <mxGeometry x="-85" y="1585" width="30" height="30" as="geometry"/>
                </mxCell>
                <mxCell id="lv1OmBNpbQH_UQtoect8-100" value="Membuat Komentar Agenda System" style="text;html=1;align=center;verticalAlign=middle;whiteSpace=wrap;rounded=0;" parent="1" vertex="1">
                    <mxGeometry x="2" y="1200" width="90" height="30" as="geometry"/>
                </mxCell>
                <mxCell id="lv1OmBNpbQH_UQtoect8-101" value="User Sudah Login" style="rhombus;whiteSpace=wrap;html=1;fontColor=#000000;fillColor=#ffffc0;strokeColor=#ff0000;" parent="1" vertex="1">
                    <mxGeometry x="-115.5" y="1260" width="85" height="70" as="geometry"/>
                </mxCell>
                <mxCell id="lv1OmBNpbQH_UQtoect8-102" value="no" style="edgeStyle=orthogonalEdgeStyle;html=1;align=left;verticalAlign=bottom;endArrow=open;endSize=8;strokeColor=#ff0000;" parent="1" source="lv1OmBNpbQH_UQtoect8-101" target="lv1OmBNpbQH_UQtoect8-104" edge="1">
                    <mxGeometry x="-1" relative="1" as="geometry">
                        <mxPoint x="72" y="1280" as="targetPoint"/>
                    </mxGeometry>
                </mxCell>
                <mxCell id="lv1OmBNpbQH_UQtoect8-103" value="yes" style="html=1;align=left;verticalAlign=top;endArrow=open;endSize=8;strokeColor=#ff0000;" parent="1" source="lv1OmBNpbQH_UQtoect8-101" target="lv1OmBNpbQH_UQtoect8-98" edge="1">
                    <mxGeometry x="-1" relative="1" as="geometry">
                        <mxPoint x="-58" y="1360" as="targetPoint"/>
                    </mxGeometry>
                </mxCell>
                <mxCell id="lv1OmBNpbQH_UQtoect8-104" value="Redirect System Login" style="rounded=1;whiteSpace=wrap;html=1;arcSize=40;fontColor=#000000;fillColor=#ffffc0;strokeColor=#ff0000;" parent="1" vertex="1">
                    <mxGeometry x="32" y="1275" width="120" height="40" as="geometry"/>
                </mxCell>
                <mxCell id="lv1OmBNpbQH_UQtoect8-105" value="&lt;span style=&quot;color: rgb(0, 0, 0);&quot;&gt;Input data(image, title, content, lokasi, tanggal, waktu) Baru&lt;/span&gt;" style="rounded=1;whiteSpace=wrap;html=1;arcSize=40;fontColor=#000000;fillColor=#ffffc0;strokeColor=#ff0000;" parent="1" vertex="1">
                    <mxGeometry x="-135" y="1490" width="130" height="60" as="geometry"/>
                </mxCell>
                <mxCell id="lv1OmBNpbQH_UQtoect8-106" value="" style="edgeStyle=orthogonalEdgeStyle;html=1;verticalAlign=bottom;endArrow=open;endSize=8;strokeColor=#ff0000;" parent="1" source="lv1OmBNpbQH_UQtoect8-105" target="lv1OmBNpbQH_UQtoect8-99" edge="1">
                    <mxGeometry relative="1" as="geometry">
                        <mxPoint x="-73" y="1570" as="targetPoint"/>
                    </mxGeometry>
                </mxCell>
                <mxCell id="lv1OmBNpbQH_UQtoect8-107" value="" style="html=1;verticalAlign=bottom;endArrow=open;endSize=8;strokeColor=#ff0000;" parent="1" source="lv1OmBNpbQH_UQtoect8-98" target="lv1OmBNpbQH_UQtoect8-105" edge="1">
                    <mxGeometry relative="1" as="geometry">
                        <mxPoint x="-65" y="1595" as="targetPoint"/>
                        <mxPoint x="35" y="1560" as="sourcePoint"/>
                    </mxGeometry>
                </mxCell>
                <mxCell id="lv1OmBNpbQH_UQtoect8-108" value="" style="rounded=0;whiteSpace=wrap;html=1;" parent="1" vertex="1">
                    <mxGeometry x="220" y="1180" width="310" height="450" as="geometry"/>
                </mxCell>
                <mxCell id="lv1OmBNpbQH_UQtoect8-109" value="" style="ellipse;html=1;shape=startState;fillColor=#000000;strokeColor=#ff0000;" parent="1" vertex="1">
                    <mxGeometry x="277" y="1190" width="30" height="30" as="geometry"/>
                </mxCell>
                <mxCell id="lv1OmBNpbQH_UQtoect8-110" value="" style="edgeStyle=orthogonalEdgeStyle;html=1;verticalAlign=bottom;endArrow=open;endSize=8;strokeColor=#ff0000;" parent="1" source="lv1OmBNpbQH_UQtoect8-109" target="lv1OmBNpbQH_UQtoect8-114" edge="1">
                    <mxGeometry relative="1" as="geometry">
                        <mxPoint x="292" y="1260" as="targetPoint"/>
                    </mxGeometry>
                </mxCell>
                <mxCell id="lv1OmBNpbQH_UQtoect8-111" value="Pilih Komentar" style="rounded=1;whiteSpace=wrap;html=1;arcSize=40;fontColor=#000000;fillColor=#ffffc0;strokeColor=#ff0000;" parent="1" vertex="1">
                    <mxGeometry x="235" y="1390" width="120" height="40" as="geometry"/>
                </mxCell>
                <mxCell id="lv1OmBNpbQH_UQtoect8-112" value="" style="ellipse;html=1;shape=endState;fillColor=#000000;strokeColor=#ff0000;" parent="1" vertex="1">
                    <mxGeometry x="280" y="1585" width="30" height="30" as="geometry"/>
                </mxCell>
                <mxCell id="lv1OmBNpbQH_UQtoect8-113" value="Mengupdate Komentar Agenda System" style="text;html=1;align=center;verticalAlign=middle;whiteSpace=wrap;rounded=0;" parent="1" vertex="1">
                    <mxGeometry x="367" y="1200" width="90" height="30" as="geometry"/>
                </mxCell>
                <mxCell id="lv1OmBNpbQH_UQtoect8-114" value="User Sudah Login" style="rhombus;whiteSpace=wrap;html=1;fontColor=#000000;fillColor=#ffffc0;strokeColor=#ff0000;" parent="1" vertex="1">
                    <mxGeometry x="249.5" y="1260" width="85" height="70" as="geometry"/>
                </mxCell>
                <mxCell id="lv1OmBNpbQH_UQtoect8-115" value="no" style="edgeStyle=orthogonalEdgeStyle;html=1;align=left;verticalAlign=bottom;endArrow=open;endSize=8;strokeColor=#ff0000;" parent="1" source="lv1OmBNpbQH_UQtoect8-114" target="lv1OmBNpbQH_UQtoect8-117" edge="1">
                    <mxGeometry x="-1" relative="1" as="geometry">
                        <mxPoint x="437" y="1280" as="targetPoint"/>
                    </mxGeometry>
                </mxCell>
                <mxCell id="lv1OmBNpbQH_UQtoect8-116" value="yes" style="html=1;align=left;verticalAlign=top;endArrow=open;endSize=8;strokeColor=#ff0000;" parent="1" source="lv1OmBNpbQH_UQtoect8-114" target="lv1OmBNpbQH_UQtoect8-111" edge="1">
                    <mxGeometry x="-1" relative="1" as="geometry">
                        <mxPoint x="307" y="1360" as="targetPoint"/>
                    </mxGeometry>
                </mxCell>
                <mxCell id="lv1OmBNpbQH_UQtoect8-117" value="Redirect System Login" style="rounded=1;whiteSpace=wrap;html=1;arcSize=40;fontColor=#000000;fillColor=#ffffc0;strokeColor=#ff0000;" parent="1" vertex="1">
                    <mxGeometry x="397" y="1275" width="120" height="40" as="geometry"/>
                </mxCell>
                <mxCell id="lv1OmBNpbQH_UQtoect8-118" value="&lt;span style=&quot;color: rgb(0, 0, 0);&quot;&gt;Input data(image, title, content, lokasi, tanggal, waktu) Baru&lt;/span&gt;" style="rounded=1;whiteSpace=wrap;html=1;arcSize=40;fontColor=#000000;fillColor=#ffffc0;strokeColor=#ff0000;" parent="1" vertex="1">
                    <mxGeometry x="227.5" y="1490" width="135" height="70" as="geometry"/>
                </mxCell>
                <mxCell id="lv1OmBNpbQH_UQtoect8-119" value="" style="edgeStyle=orthogonalEdgeStyle;html=1;verticalAlign=bottom;endArrow=open;endSize=8;strokeColor=#ff0000;" parent="1" source="lv1OmBNpbQH_UQtoect8-118" target="lv1OmBNpbQH_UQtoect8-112" edge="1">
                    <mxGeometry relative="1" as="geometry">
                        <mxPoint x="292" y="1570" as="targetPoint"/>
                    </mxGeometry>
                </mxCell>
                <mxCell id="lv1OmBNpbQH_UQtoect8-120" value="" style="html=1;verticalAlign=bottom;endArrow=open;endSize=8;strokeColor=#ff0000;" parent="1" source="lv1OmBNpbQH_UQtoect8-111" target="lv1OmBNpbQH_UQtoect8-118" edge="1">
                    <mxGeometry relative="1" as="geometry">
                        <mxPoint x="300" y="1595" as="targetPoint"/>
                        <mxPoint x="400" y="1560" as="sourcePoint"/>
                    </mxGeometry>
                </mxCell>
                <mxCell id="lv1OmBNpbQH_UQtoect8-121" value="" style="rounded=0;whiteSpace=wrap;html=1;" parent="1" vertex="1">
                    <mxGeometry x="565" y="1180" width="310" height="575" as="geometry"/>
                </mxCell>
                <mxCell id="lv1OmBNpbQH_UQtoect8-122" value="" style="ellipse;html=1;shape=startState;fillColor=#000000;strokeColor=#ff0000;" parent="1" vertex="1">
                    <mxGeometry x="622" y="1190" width="30" height="30" as="geometry"/>
                </mxCell>
                <mxCell id="lv1OmBNpbQH_UQtoect8-123" value="" style="edgeStyle=orthogonalEdgeStyle;html=1;verticalAlign=bottom;endArrow=open;endSize=8;strokeColor=#ff0000;" parent="1" source="lv1OmBNpbQH_UQtoect8-122" target="lv1OmBNpbQH_UQtoect8-127" edge="1">
                    <mxGeometry relative="1" as="geometry">
                        <mxPoint x="637" y="1260" as="targetPoint"/>
                    </mxGeometry>
                </mxCell>
                <mxCell id="lv1OmBNpbQH_UQtoect8-124" value="Pilih Komentar" style="rounded=1;whiteSpace=wrap;html=1;arcSize=40;fontColor=#000000;fillColor=#ffffc0;strokeColor=#ff0000;" parent="1" vertex="1">
                    <mxGeometry x="580" y="1390" width="120" height="40" as="geometry"/>
                </mxCell>
                <mxCell id="lv1OmBNpbQH_UQtoect8-125" value="" style="ellipse;html=1;shape=endState;fillColor=#000000;strokeColor=#ff0000;" parent="1" vertex="1">
                    <mxGeometry x="625" y="1705" width="30" height="30" as="geometry"/>
                </mxCell>
                <mxCell id="lv1OmBNpbQH_UQtoect8-126" value="Menghapus Komentar Agenda System" style="text;html=1;align=center;verticalAlign=middle;whiteSpace=wrap;rounded=0;" parent="1" vertex="1">
                    <mxGeometry x="712" y="1200" width="90" height="30" as="geometry"/>
                </mxCell>
                <mxCell id="lv1OmBNpbQH_UQtoect8-127" value="User Sudah Login" style="rhombus;whiteSpace=wrap;html=1;fontColor=#000000;fillColor=#ffffc0;strokeColor=#ff0000;" parent="1" vertex="1">
                    <mxGeometry x="594.5" y="1260" width="85" height="70" as="geometry"/>
                </mxCell>
                <mxCell id="lv1OmBNpbQH_UQtoect8-128" value="no" style="edgeStyle=orthogonalEdgeStyle;html=1;align=left;verticalAlign=bottom;endArrow=open;endSize=8;strokeColor=#ff0000;" parent="1" source="lv1OmBNpbQH_UQtoect8-127" target="lv1OmBNpbQH_UQtoect8-130" edge="1">
                    <mxGeometry x="-1" relative="1" as="geometry">
                        <mxPoint x="782" y="1280" as="targetPoint"/>
                    </mxGeometry>
                </mxCell>
                <mxCell id="lv1OmBNpbQH_UQtoect8-129" value="yes" style="html=1;align=left;verticalAlign=top;endArrow=open;endSize=8;strokeColor=#ff0000;" parent="1" source="lv1OmBNpbQH_UQtoect8-127" target="lv1OmBNpbQH_UQtoect8-124" edge="1">
                    <mxGeometry x="-1" relative="1" as="geometry">
                        <mxPoint x="652" y="1360" as="targetPoint"/>
                    </mxGeometry>
                </mxCell>
                <mxCell id="lv1OmBNpbQH_UQtoect8-130" value="Redirect System Login" style="rounded=1;whiteSpace=wrap;html=1;arcSize=40;fontColor=#000000;fillColor=#ffffc0;strokeColor=#ff0000;" parent="1" vertex="1">
                    <mxGeometry x="742" y="1275" width="120" height="40" as="geometry"/>
                </mxCell>
                <mxCell id="lv1OmBNpbQH_UQtoect8-131" value="&lt;span style=&quot;color: rgb(0, 0, 0);&quot;&gt;Masukkan Password&lt;/span&gt;" style="rounded=1;whiteSpace=wrap;html=1;arcSize=40;fontColor=#000000;fillColor=#ffffc0;strokeColor=#ff0000;" parent="1" vertex="1">
                    <mxGeometry x="580" y="1490" width="120" height="40" as="geometry"/>
                </mxCell>
                <mxCell id="lv1OmBNpbQH_UQtoect8-132" value="" style="edgeStyle=orthogonalEdgeStyle;html=1;verticalAlign=bottom;endArrow=open;endSize=8;strokeColor=#ff0000;" parent="1" source="lv1OmBNpbQH_UQtoect8-131" target="lv1OmBNpbQH_UQtoect8-134" edge="1">
                    <mxGeometry relative="1" as="geometry">
                        <mxPoint x="637" y="1570" as="targetPoint"/>
                    </mxGeometry>
                </mxCell>
                <mxCell id="lv1OmBNpbQH_UQtoect8-133" value="" style="html=1;verticalAlign=bottom;endArrow=open;endSize=8;strokeColor=#ff0000;" parent="1" source="lv1OmBNpbQH_UQtoect8-124" target="lv1OmBNpbQH_UQtoect8-131" edge="1">
                    <mxGeometry relative="1" as="geometry">
                        <mxPoint x="645" y="1595" as="targetPoint"/>
                        <mxPoint x="745" y="1560" as="sourcePoint"/>
                    </mxGeometry>
                </mxCell>
                <mxCell id="lv1OmBNpbQH_UQtoect8-134" value="Is Valid" style="rhombus;whiteSpace=wrap;html=1;fontColor=#000000;fillColor=#ffffc0;strokeColor=#ff0000;" parent="1" vertex="1">
                    <mxGeometry x="599.5" y="1585" width="80" height="40" as="geometry"/>
                </mxCell>
                <mxCell id="lv1OmBNpbQH_UQtoect8-135" value="no" style="edgeStyle=orthogonalEdgeStyle;html=1;align=left;verticalAlign=bottom;endArrow=open;endSize=8;strokeColor=#ff0000;" parent="1" source="lv1OmBNpbQH_UQtoect8-134" target="lv1OmBNpbQH_UQtoect8-137" edge="1">
                    <mxGeometry x="-1" relative="1" as="geometry">
                        <mxPoint x="922.5" y="1500" as="targetPoint"/>
                    </mxGeometry>
                </mxCell>
                <mxCell id="lv1OmBNpbQH_UQtoect8-136" value="yes" style="edgeStyle=orthogonalEdgeStyle;html=1;align=left;verticalAlign=top;endArrow=open;endSize=8;strokeColor=#ff0000;" parent="1" source="lv1OmBNpbQH_UQtoect8-134" target="lv1OmBNpbQH_UQtoect8-125" edge="1">
                    <mxGeometry x="-1" relative="1" as="geometry">
                        <mxPoint x="782.5" y="1580" as="targetPoint"/>
                    </mxGeometry>
                </mxCell>
                <mxCell id="lv1OmBNpbQH_UQtoect8-137" value="Tampilkan Error" style="rounded=1;whiteSpace=wrap;html=1;arcSize=40;fontColor=#000000;fillColor=#ffffc0;strokeColor=#ff0000;" parent="1" vertex="1">
                    <mxGeometry x="722.5" y="1585" width="120" height="40" as="geometry"/>
                </mxCell>
                <mxCell id="lv1OmBNpbQH_UQtoect8-138" value="" style="edgeStyle=orthogonalEdgeStyle;html=1;verticalAlign=bottom;endArrow=open;endSize=8;strokeColor=#ff0000;exitX=0.5;exitY=0;exitDx=0;exitDy=0;entryX=1;entryY=0.5;entryDx=0;entryDy=0;" parent="1" source="lv1OmBNpbQH_UQtoect8-137" target="lv1OmBNpbQH_UQtoect8-131" edge="1">
                    <mxGeometry relative="1" as="geometry">
                        <mxPoint x="649.5" y="1595" as="targetPoint"/>
                        <mxPoint x="650.5" y="1540" as="sourcePoint"/>
                    </mxGeometry>
                </mxCell>
                <mxCell id="Zl3rUJQbuVN9b4rkIxgS-1" value="" style="rounded=0;whiteSpace=wrap;html=1;" parent="1" vertex="1">
                    <mxGeometry x="-158" y="1830" width="310" height="360" as="geometry"/>
                </mxCell>
                <mxCell id="Zl3rUJQbuVN9b4rkIxgS-2" value="" style="ellipse;html=1;shape=startState;fillColor=#000000;strokeColor=#ff0000;" parent="1" vertex="1">
                    <mxGeometry x="-101" y="1840" width="30" height="30" as="geometry"/>
                </mxCell>
                <mxCell id="Zl3rUJQbuVN9b4rkIxgS-3" value="" style="edgeStyle=orthogonalEdgeStyle;html=1;verticalAlign=bottom;endArrow=open;endSize=8;strokeColor=#ff0000;" parent="1" source="Zl3rUJQbuVN9b4rkIxgS-2" target="Zl3rUJQbuVN9b4rkIxgS-7" edge="1">
                    <mxGeometry relative="1" as="geometry">
                        <mxPoint x="-86" y="1910" as="targetPoint"/>
                    </mxGeometry>
                </mxCell>
                <mxCell id="Zl3rUJQbuVN9b4rkIxgS-5" value="" style="ellipse;html=1;shape=endState;fillColor=#000000;strokeColor=#ff0000;" parent="1" vertex="1">
                    <mxGeometry x="-98" y="2150" width="30" height="30" as="geometry"/>
                </mxCell>
                <mxCell id="Zl3rUJQbuVN9b4rkIxgS-6" value="Membuat Agenda System" style="text;html=1;align=center;verticalAlign=middle;whiteSpace=wrap;rounded=0;" parent="1" vertex="1">
                    <mxGeometry x="-11" y="1850" width="90" height="30" as="geometry"/>
                </mxCell>
                <mxCell id="Zl3rUJQbuVN9b4rkIxgS-7" value="User Sudah Login" style="rhombus;whiteSpace=wrap;html=1;fontColor=#000000;fillColor=#ffffc0;strokeColor=#ff0000;" parent="1" vertex="1">
                    <mxGeometry x="-128.5" y="1910" width="85" height="70" as="geometry"/>
                </mxCell>
                <mxCell id="Zl3rUJQbuVN9b4rkIxgS-8" value="no" style="edgeStyle=orthogonalEdgeStyle;html=1;align=left;verticalAlign=bottom;endArrow=open;endSize=8;strokeColor=#ff0000;" parent="1" source="Zl3rUJQbuVN9b4rkIxgS-7" target="Zl3rUJQbuVN9b4rkIxgS-10" edge="1">
                    <mxGeometry x="-1" relative="1" as="geometry">
                        <mxPoint x="59" y="1930" as="targetPoint"/>
                    </mxGeometry>
                </mxCell>
                <mxCell id="Zl3rUJQbuVN9b4rkIxgS-9" value="yes" style="html=1;align=left;verticalAlign=top;endArrow=open;endSize=8;strokeColor=#ff0000;" parent="1" source="Zl3rUJQbuVN9b4rkIxgS-7" target="Zl3rUJQbuVN9b4rkIxgS-11" edge="1">
                    <mxGeometry x="-1" relative="1" as="geometry">
                        <mxPoint x="-83.52173913043475" y="2040" as="targetPoint"/>
                    </mxGeometry>
                </mxCell>
                <mxCell id="Zl3rUJQbuVN9b4rkIxgS-10" value="Redirect System Login" style="rounded=1;whiteSpace=wrap;html=1;arcSize=40;fontColor=#000000;fillColor=#ffffc0;strokeColor=#ff0000;" parent="1" vertex="1">
                    <mxGeometry x="19" y="1925" width="120" height="40" as="geometry"/>
                </mxCell>
                <mxCell id="Zl3rUJQbuVN9b4rkIxgS-11" value="&lt;span style=&quot;color: rgb(0, 0, 0);&quot;&gt;Input data(image, title, content, lokasi, tanggal, waktu) Baru&lt;/span&gt;" style="rounded=1;whiteSpace=wrap;html=1;arcSize=40;fontColor=#000000;fillColor=#ffffc0;strokeColor=#ff0000;" parent="1" vertex="1">
                    <mxGeometry x="-148" y="2040" width="130" height="60" as="geometry"/>
                </mxCell>
                <mxCell id="Zl3rUJQbuVN9b4rkIxgS-12" value="" style="edgeStyle=orthogonalEdgeStyle;html=1;verticalAlign=bottom;endArrow=open;endSize=8;strokeColor=#ff0000;" parent="1" source="Zl3rUJQbuVN9b4rkIxgS-11" target="Zl3rUJQbuVN9b4rkIxgS-5" edge="1">
                    <mxGeometry relative="1" as="geometry">
                        <mxPoint x="-86" y="2220" as="targetPoint"/>
                    </mxGeometry>
                </mxCell>
                <mxCell id="Zl3rUJQbuVN9b4rkIxgS-14" value="" style="rounded=0;whiteSpace=wrap;html=1;" parent="1" vertex="1">
                    <mxGeometry x="207" y="1830" width="310" height="450" as="geometry"/>
                </mxCell>
                <mxCell id="Zl3rUJQbuVN9b4rkIxgS-15" value="" style="ellipse;html=1;shape=startState;fillColor=#000000;strokeColor=#ff0000;" parent="1" vertex="1">
                    <mxGeometry x="264" y="1840" width="30" height="30" as="geometry"/>
                </mxCell>
                <mxCell id="Zl3rUJQbuVN9b4rkIxgS-16" value="" style="edgeStyle=orthogonalEdgeStyle;html=1;verticalAlign=bottom;endArrow=open;endSize=8;strokeColor=#ff0000;" parent="1" source="Zl3rUJQbuVN9b4rkIxgS-15" target="Zl3rUJQbuVN9b4rkIxgS-20" edge="1">
                    <mxGeometry relative="1" as="geometry">
                        <mxPoint x="279" y="1910" as="targetPoint"/>
                    </mxGeometry>
                </mxCell>
                <mxCell id="Zl3rUJQbuVN9b4rkIxgS-17" value="Pilih Agenda" style="rounded=1;whiteSpace=wrap;html=1;arcSize=40;fontColor=#000000;fillColor=#ffffc0;strokeColor=#ff0000;" parent="1" vertex="1">
                    <mxGeometry x="222" y="2040" width="120" height="40" as="geometry"/>
                </mxCell>
                <mxCell id="Zl3rUJQbuVN9b4rkIxgS-18" value="" style="ellipse;html=1;shape=endState;fillColor=#000000;strokeColor=#ff0000;" parent="1" vertex="1">
                    <mxGeometry x="267" y="2235" width="30" height="30" as="geometry"/>
                </mxCell>
                <mxCell id="Zl3rUJQbuVN9b4rkIxgS-19" value="Mengupdate Agenda System" style="text;html=1;align=center;verticalAlign=middle;whiteSpace=wrap;rounded=0;" parent="1" vertex="1">
                    <mxGeometry x="354" y="1850" width="90" height="30" as="geometry"/>
                </mxCell>
                <mxCell id="Zl3rUJQbuVN9b4rkIxgS-20" value="User Sudah Login" style="rhombus;whiteSpace=wrap;html=1;fontColor=#000000;fillColor=#ffffc0;strokeColor=#ff0000;" parent="1" vertex="1">
                    <mxGeometry x="236.5" y="1910" width="85" height="70" as="geometry"/>
                </mxCell>
                <mxCell id="Zl3rUJQbuVN9b4rkIxgS-21" value="no" style="edgeStyle=orthogonalEdgeStyle;html=1;align=left;verticalAlign=bottom;endArrow=open;endSize=8;strokeColor=#ff0000;" parent="1" source="Zl3rUJQbuVN9b4rkIxgS-20" target="Zl3rUJQbuVN9b4rkIxgS-23" edge="1">
                    <mxGeometry x="-1" relative="1" as="geometry">
                        <mxPoint x="424" y="1930" as="targetPoint"/>
                    </mxGeometry>
                </mxCell>
                <mxCell id="Zl3rUJQbuVN9b4rkIxgS-22" value="yes" style="html=1;align=left;verticalAlign=top;endArrow=open;endSize=8;strokeColor=#ff0000;" parent="1" source="Zl3rUJQbuVN9b4rkIxgS-20" target="Zl3rUJQbuVN9b4rkIxgS-17" edge="1">
                    <mxGeometry x="-1" relative="1" as="geometry">
                        <mxPoint x="294" y="2010" as="targetPoint"/>
                    </mxGeometry>
                </mxCell>
                <mxCell id="Zl3rUJQbuVN9b4rkIxgS-23" value="Redirect System Login" style="rounded=1;whiteSpace=wrap;html=1;arcSize=40;fontColor=#000000;fillColor=#ffffc0;strokeColor=#ff0000;" parent="1" vertex="1">
                    <mxGeometry x="384" y="1925" width="120" height="40" as="geometry"/>
                </mxCell>
                <mxCell id="Zl3rUJQbuVN9b4rkIxgS-24" value="&lt;span style=&quot;color: rgb(0, 0, 0);&quot;&gt;Input data(image, title, content, lokasi, tanggal, waktu) Baru&lt;/span&gt;" style="rounded=1;whiteSpace=wrap;html=1;arcSize=40;fontColor=#000000;fillColor=#ffffc0;strokeColor=#ff0000;" parent="1" vertex="1">
                    <mxGeometry x="214.5" y="2140" width="135" height="70" as="geometry"/>
                </mxCell>
                <mxCell id="Zl3rUJQbuVN9b4rkIxgS-25" value="" style="edgeStyle=orthogonalEdgeStyle;html=1;verticalAlign=bottom;endArrow=open;endSize=8;strokeColor=#ff0000;" parent="1" source="Zl3rUJQbuVN9b4rkIxgS-24" target="Zl3rUJQbuVN9b4rkIxgS-18" edge="1">
                    <mxGeometry relative="1" as="geometry">
                        <mxPoint x="279" y="2220" as="targetPoint"/>
                    </mxGeometry>
                </mxCell>
                <mxCell id="Zl3rUJQbuVN9b4rkIxgS-26" value="" style="html=1;verticalAlign=bottom;endArrow=open;endSize=8;strokeColor=#ff0000;" parent="1" source="Zl3rUJQbuVN9b4rkIxgS-17" target="Zl3rUJQbuVN9b4rkIxgS-24" edge="1">
                    <mxGeometry relative="1" as="geometry">
                        <mxPoint x="287" y="2245" as="targetPoint"/>
                        <mxPoint x="387" y="2210" as="sourcePoint"/>
                    </mxGeometry>
                </mxCell>
                <mxCell id="Zl3rUJQbuVN9b4rkIxgS-27" value="" style="rounded=0;whiteSpace=wrap;html=1;" parent="1" vertex="1">
                    <mxGeometry x="552" y="1830" width="310" height="575" as="geometry"/>
                </mxCell>
                <mxCell id="Zl3rUJQbuVN9b4rkIxgS-28" value="" style="ellipse;html=1;shape=startState;fillColor=#000000;strokeColor=#ff0000;" parent="1" vertex="1">
                    <mxGeometry x="609" y="1840" width="30" height="30" as="geometry"/>
                </mxCell>
                <mxCell id="Zl3rUJQbuVN9b4rkIxgS-29" value="" style="edgeStyle=orthogonalEdgeStyle;html=1;verticalAlign=bottom;endArrow=open;endSize=8;strokeColor=#ff0000;" parent="1" source="Zl3rUJQbuVN9b4rkIxgS-28" target="Zl3rUJQbuVN9b4rkIxgS-33" edge="1">
                    <mxGeometry relative="1" as="geometry">
                        <mxPoint x="624" y="1910" as="targetPoint"/>
                    </mxGeometry>
                </mxCell>
                <mxCell id="Zl3rUJQbuVN9b4rkIxgS-30" value="Pilih Agenda" style="rounded=1;whiteSpace=wrap;html=1;arcSize=40;fontColor=#000000;fillColor=#ffffc0;strokeColor=#ff0000;" parent="1" vertex="1">
                    <mxGeometry x="567" y="2040" width="120" height="40" as="geometry"/>
                </mxCell>
                <mxCell id="Zl3rUJQbuVN9b4rkIxgS-31" value="" style="ellipse;html=1;shape=endState;fillColor=#000000;strokeColor=#ff0000;" parent="1" vertex="1">
                    <mxGeometry x="612" y="2355" width="30" height="30" as="geometry"/>
                </mxCell>
                <mxCell id="Zl3rUJQbuVN9b4rkIxgS-32" value="Menghapus Agenda System" style="text;html=1;align=center;verticalAlign=middle;whiteSpace=wrap;rounded=0;" parent="1" vertex="1">
                    <mxGeometry x="699" y="1850" width="90" height="30" as="geometry"/>
                </mxCell>
                <mxCell id="Zl3rUJQbuVN9b4rkIxgS-33" value="User Sudah Login" style="rhombus;whiteSpace=wrap;html=1;fontColor=#000000;fillColor=#ffffc0;strokeColor=#ff0000;" parent="1" vertex="1">
                    <mxGeometry x="581.5" y="1910" width="85" height="70" as="geometry"/>
                </mxCell>
                <mxCell id="Zl3rUJQbuVN9b4rkIxgS-34" value="no" style="edgeStyle=orthogonalEdgeStyle;html=1;align=left;verticalAlign=bottom;endArrow=open;endSize=8;strokeColor=#ff0000;" parent="1" source="Zl3rUJQbuVN9b4rkIxgS-33" target="Zl3rUJQbuVN9b4rkIxgS-36" edge="1">
                    <mxGeometry x="-1" relative="1" as="geometry">
                        <mxPoint x="769" y="1930" as="targetPoint"/>
                    </mxGeometry>
                </mxCell>
                <mxCell id="Zl3rUJQbuVN9b4rkIxgS-35" value="yes" style="html=1;align=left;verticalAlign=top;endArrow=open;endSize=8;strokeColor=#ff0000;" parent="1" source="Zl3rUJQbuVN9b4rkIxgS-33" target="Zl3rUJQbuVN9b4rkIxgS-30" edge="1">
                    <mxGeometry x="-1" relative="1" as="geometry">
                        <mxPoint x="639" y="2010" as="targetPoint"/>
                    </mxGeometry>
                </mxCell>
                <mxCell id="Zl3rUJQbuVN9b4rkIxgS-36" value="Redirect System Login" style="rounded=1;whiteSpace=wrap;html=1;arcSize=40;fontColor=#000000;fillColor=#ffffc0;strokeColor=#ff0000;" parent="1" vertex="1">
                    <mxGeometry x="729" y="1925" width="120" height="40" as="geometry"/>
                </mxCell>
                <mxCell id="Zl3rUJQbuVN9b4rkIxgS-37" value="&lt;span style=&quot;color: rgb(0, 0, 0);&quot;&gt;Masukkan Password&lt;/span&gt;" style="rounded=1;whiteSpace=wrap;html=1;arcSize=40;fontColor=#000000;fillColor=#ffffc0;strokeColor=#ff0000;" parent="1" vertex="1">
                    <mxGeometry x="567" y="2140" width="120" height="40" as="geometry"/>
                </mxCell>
                <mxCell id="Zl3rUJQbuVN9b4rkIxgS-38" value="" style="edgeStyle=orthogonalEdgeStyle;html=1;verticalAlign=bottom;endArrow=open;endSize=8;strokeColor=#ff0000;" parent="1" source="Zl3rUJQbuVN9b4rkIxgS-37" target="Zl3rUJQbuVN9b4rkIxgS-40" edge="1">
                    <mxGeometry relative="1" as="geometry">
                        <mxPoint x="624" y="2220" as="targetPoint"/>
                    </mxGeometry>
                </mxCell>
                <mxCell id="Zl3rUJQbuVN9b4rkIxgS-39" value="" style="html=1;verticalAlign=bottom;endArrow=open;endSize=8;strokeColor=#ff0000;" parent="1" source="Zl3rUJQbuVN9b4rkIxgS-30" target="Zl3rUJQbuVN9b4rkIxgS-37" edge="1">
                    <mxGeometry relative="1" as="geometry">
                        <mxPoint x="632" y="2245" as="targetPoint"/>
                        <mxPoint x="732" y="2210" as="sourcePoint"/>
                    </mxGeometry>
                </mxCell>
                <mxCell id="Zl3rUJQbuVN9b4rkIxgS-40" value="Is Valid" style="rhombus;whiteSpace=wrap;html=1;fontColor=#000000;fillColor=#ffffc0;strokeColor=#ff0000;" parent="1" vertex="1">
                    <mxGeometry x="586.5" y="2235" width="80" height="40" as="geometry"/>
                </mxCell>
                <mxCell id="Zl3rUJQbuVN9b4rkIxgS-41" value="no" style="edgeStyle=orthogonalEdgeStyle;html=1;align=left;verticalAlign=bottom;endArrow=open;endSize=8;strokeColor=#ff0000;" parent="1" source="Zl3rUJQbuVN9b4rkIxgS-40" target="Zl3rUJQbuVN9b4rkIxgS-43" edge="1">
                    <mxGeometry x="-1" relative="1" as="geometry">
                        <mxPoint x="909.5" y="2150" as="targetPoint"/>
                    </mxGeometry>
                </mxCell>
                <mxCell id="Zl3rUJQbuVN9b4rkIxgS-42" value="yes" style="edgeStyle=orthogonalEdgeStyle;html=1;align=left;verticalAlign=top;endArrow=open;endSize=8;strokeColor=#ff0000;" parent="1" source="Zl3rUJQbuVN9b4rkIxgS-40" target="Zl3rUJQbuVN9b4rkIxgS-31" edge="1">
                    <mxGeometry x="-1" relative="1" as="geometry">
                        <mxPoint x="769.5" y="2230" as="targetPoint"/>
                    </mxGeometry>
                </mxCell>
                <mxCell id="Zl3rUJQbuVN9b4rkIxgS-43" value="Tampilkan Error" style="rounded=1;whiteSpace=wrap;html=1;arcSize=40;fontColor=#000000;fillColor=#ffffc0;strokeColor=#ff0000;" parent="1" vertex="1">
                    <mxGeometry x="709.5" y="2235" width="120" height="40" as="geometry"/>
                </mxCell>
                <mxCell id="Zl3rUJQbuVN9b4rkIxgS-44" value="" style="edgeStyle=orthogonalEdgeStyle;html=1;verticalAlign=bottom;endArrow=open;endSize=8;strokeColor=#ff0000;exitX=0.5;exitY=0;exitDx=0;exitDy=0;entryX=1;entryY=0.5;entryDx=0;entryDy=0;" parent="1" source="Zl3rUJQbuVN9b4rkIxgS-43" target="Zl3rUJQbuVN9b4rkIxgS-37" edge="1">
                    <mxGeometry relative="1" as="geometry">
                        <mxPoint x="636.5" y="2245" as="targetPoint"/>
                        <mxPoint x="637.5" y="2190" as="sourcePoint"/>
                    </mxGeometry>
                </mxCell>
                <mxCell id="Zl3rUJQbuVN9b4rkIxgS-45" value="" style="rounded=0;whiteSpace=wrap;html=1;" parent="1" vertex="1">
                    <mxGeometry x="-177.5" y="2463" width="310" height="347" as="geometry"/>
                </mxCell>
                <mxCell id="Zl3rUJQbuVN9b4rkIxgS-46" value="" style="ellipse;html=1;shape=startState;fillColor=#000000;strokeColor=#ff0000;" parent="1" vertex="1">
                    <mxGeometry x="-120.5" y="2473" width="30" height="30" as="geometry"/>
                </mxCell>
                <mxCell id="Zl3rUJQbuVN9b4rkIxgS-47" value="" style="edgeStyle=orthogonalEdgeStyle;html=1;verticalAlign=bottom;endArrow=open;endSize=8;strokeColor=#ff0000;" parent="1" source="Zl3rUJQbuVN9b4rkIxgS-46" target="Zl3rUJQbuVN9b4rkIxgS-51" edge="1">
                    <mxGeometry relative="1" as="geometry">
                        <mxPoint x="-105.5" y="2543" as="targetPoint"/>
                    </mxGeometry>
                </mxCell>
                <mxCell id="Zl3rUJQbuVN9b4rkIxgS-49" value="" style="ellipse;html=1;shape=endState;fillColor=#000000;strokeColor=#ff0000;" parent="1" vertex="1">
                    <mxGeometry x="-118.5" y="2770" width="30" height="30" as="geometry"/>
                </mxCell>
                <mxCell id="Zl3rUJQbuVN9b4rkIxgS-50" value="Membuat Berita System" style="text;html=1;align=center;verticalAlign=middle;whiteSpace=wrap;rounded=0;" parent="1" vertex="1">
                    <mxGeometry x="-30.5" y="2483" width="90" height="30" as="geometry"/>
                </mxCell>
                <mxCell id="Zl3rUJQbuVN9b4rkIxgS-51" value="User Sudah Login" style="rhombus;whiteSpace=wrap;html=1;fontColor=#000000;fillColor=#ffffc0;strokeColor=#ff0000;" parent="1" vertex="1">
                    <mxGeometry x="-148" y="2543" width="85" height="70" as="geometry"/>
                </mxCell>
                <mxCell id="Zl3rUJQbuVN9b4rkIxgS-52" value="no" style="edgeStyle=orthogonalEdgeStyle;html=1;align=left;verticalAlign=bottom;endArrow=open;endSize=8;strokeColor=#ff0000;" parent="1" source="Zl3rUJQbuVN9b4rkIxgS-51" target="Zl3rUJQbuVN9b4rkIxgS-54" edge="1">
                    <mxGeometry x="-1" relative="1" as="geometry">
                        <mxPoint x="39.5" y="2563" as="targetPoint"/>
                    </mxGeometry>
                </mxCell>
                <mxCell id="Zl3rUJQbuVN9b4rkIxgS-53" value="yes" style="html=1;align=left;verticalAlign=top;endArrow=open;endSize=8;strokeColor=#ff0000;" parent="1" source="Zl3rUJQbuVN9b4rkIxgS-51" target="Zl3rUJQbuVN9b4rkIxgS-55" edge="1">
                    <mxGeometry x="-1" relative="1" as="geometry">
                        <mxPoint x="-103.02173913043475" y="2672.9999999999995" as="targetPoint"/>
                    </mxGeometry>
                </mxCell>
                <mxCell id="Zl3rUJQbuVN9b4rkIxgS-54" value="Redirect System Login" style="rounded=1;whiteSpace=wrap;html=1;arcSize=40;fontColor=#000000;fillColor=#ffffc0;strokeColor=#ff0000;" parent="1" vertex="1">
                    <mxGeometry x="-0.5" y="2558" width="120" height="40" as="geometry"/>
                </mxCell>
                <mxCell id="Zl3rUJQbuVN9b4rkIxgS-55" value="&lt;span style=&quot;color: rgb(0, 0, 0);&quot;&gt;Input data(image, title, content)&lt;/span&gt;" style="rounded=1;whiteSpace=wrap;html=1;arcSize=40;fontColor=#000000;fillColor=#ffffc0;strokeColor=#ff0000;" parent="1" vertex="1">
                    <mxGeometry x="-163.5" y="2680" width="120" height="40" as="geometry"/>
                </mxCell>
                <mxCell id="Zl3rUJQbuVN9b4rkIxgS-56" value="" style="edgeStyle=orthogonalEdgeStyle;html=1;verticalAlign=bottom;endArrow=open;endSize=8;strokeColor=#ff0000;" parent="1" source="Zl3rUJQbuVN9b4rkIxgS-55" target="Zl3rUJQbuVN9b4rkIxgS-49" edge="1">
                    <mxGeometry relative="1" as="geometry">
                        <mxPoint x="-105.5" y="2853" as="targetPoint"/>
                    </mxGeometry>
                </mxCell>
                <mxCell id="Zl3rUJQbuVN9b4rkIxgS-58" value="" style="rounded=0;whiteSpace=wrap;html=1;" parent="1" vertex="1">
                    <mxGeometry x="187.5" y="2463" width="310" height="450" as="geometry"/>
                </mxCell>
                <mxCell id="Zl3rUJQbuVN9b4rkIxgS-59" value="" style="ellipse;html=1;shape=startState;fillColor=#000000;strokeColor=#ff0000;" parent="1" vertex="1">
                    <mxGeometry x="244.5" y="2473" width="30" height="30" as="geometry"/>
                </mxCell>
                <mxCell id="Zl3rUJQbuVN9b4rkIxgS-60" value="" style="edgeStyle=orthogonalEdgeStyle;html=1;verticalAlign=bottom;endArrow=open;endSize=8;strokeColor=#ff0000;" parent="1" source="Zl3rUJQbuVN9b4rkIxgS-59" target="Zl3rUJQbuVN9b4rkIxgS-64" edge="1">
                    <mxGeometry relative="1" as="geometry">
                        <mxPoint x="259.5" y="2543" as="targetPoint"/>
                    </mxGeometry>
                </mxCell>
                <mxCell id="Zl3rUJQbuVN9b4rkIxgS-61" value="Pilih Berita" style="rounded=1;whiteSpace=wrap;html=1;arcSize=40;fontColor=#000000;fillColor=#ffffc0;strokeColor=#ff0000;" parent="1" vertex="1">
                    <mxGeometry x="202.5" y="2673" width="120" height="40" as="geometry"/>
                </mxCell>
                <mxCell id="Zl3rUJQbuVN9b4rkIxgS-62" value="" style="ellipse;html=1;shape=endState;fillColor=#000000;strokeColor=#ff0000;" parent="1" vertex="1">
                    <mxGeometry x="247.5" y="2868" width="30" height="30" as="geometry"/>
                </mxCell>
                <mxCell id="Zl3rUJQbuVN9b4rkIxgS-63" value="Mengupdate&amp;nbsp; Berita System" style="text;html=1;align=center;verticalAlign=middle;whiteSpace=wrap;rounded=0;" parent="1" vertex="1">
                    <mxGeometry x="334.5" y="2483" width="90" height="30" as="geometry"/>
                </mxCell>
                <mxCell id="Zl3rUJQbuVN9b4rkIxgS-64" value="User Sudah Login" style="rhombus;whiteSpace=wrap;html=1;fontColor=#000000;fillColor=#ffffc0;strokeColor=#ff0000;" parent="1" vertex="1">
                    <mxGeometry x="217" y="2543" width="85" height="70" as="geometry"/>
                </mxCell>
                <mxCell id="Zl3rUJQbuVN9b4rkIxgS-65" value="no" style="edgeStyle=orthogonalEdgeStyle;html=1;align=left;verticalAlign=bottom;endArrow=open;endSize=8;strokeColor=#ff0000;" parent="1" source="Zl3rUJQbuVN9b4rkIxgS-64" target="Zl3rUJQbuVN9b4rkIxgS-67" edge="1">
                    <mxGeometry x="-1" relative="1" as="geometry">
                        <mxPoint x="404.5" y="2563" as="targetPoint"/>
                    </mxGeometry>
                </mxCell>
                <mxCell id="Zl3rUJQbuVN9b4rkIxgS-66" value="yes" style="html=1;align=left;verticalAlign=top;endArrow=open;endSize=8;strokeColor=#ff0000;" parent="1" source="Zl3rUJQbuVN9b4rkIxgS-64" target="Zl3rUJQbuVN9b4rkIxgS-61" edge="1">
                    <mxGeometry x="-1" relative="1" as="geometry">
                        <mxPoint x="274.5" y="2643" as="targetPoint"/>
                    </mxGeometry>
                </mxCell>
                <mxCell id="Zl3rUJQbuVN9b4rkIxgS-67" value="Redirect System Login" style="rounded=1;whiteSpace=wrap;html=1;arcSize=40;fontColor=#000000;fillColor=#ffffc0;strokeColor=#ff0000;" parent="1" vertex="1">
                    <mxGeometry x="364.5" y="2558" width="120" height="40" as="geometry"/>
                </mxCell>
                <mxCell id="Zl3rUJQbuVN9b4rkIxgS-68" value="&lt;span style=&quot;color: rgb(0, 0, 0);&quot;&gt;Input data(image, title, content) Baru&lt;/span&gt;" style="rounded=1;whiteSpace=wrap;html=1;arcSize=40;fontColor=#000000;fillColor=#ffffc0;strokeColor=#ff0000;" parent="1" vertex="1">
                    <mxGeometry x="202.5" y="2773" width="120" height="40" as="geometry"/>
                </mxCell>
                <mxCell id="Zl3rUJQbuVN9b4rkIxgS-69" value="" style="edgeStyle=orthogonalEdgeStyle;html=1;verticalAlign=bottom;endArrow=open;endSize=8;strokeColor=#ff0000;" parent="1" source="Zl3rUJQbuVN9b4rkIxgS-68" target="Zl3rUJQbuVN9b4rkIxgS-62" edge="1">
                    <mxGeometry relative="1" as="geometry">
                        <mxPoint x="259.5" y="2853" as="targetPoint"/>
                    </mxGeometry>
                </mxCell>
                <mxCell id="Zl3rUJQbuVN9b4rkIxgS-70" value="" style="html=1;verticalAlign=bottom;endArrow=open;endSize=8;strokeColor=#ff0000;" parent="1" source="Zl3rUJQbuVN9b4rkIxgS-61" target="Zl3rUJQbuVN9b4rkIxgS-68" edge="1">
                    <mxGeometry relative="1" as="geometry">
                        <mxPoint x="267.5" y="2878" as="targetPoint"/>
                        <mxPoint x="367.5" y="2843" as="sourcePoint"/>
                    </mxGeometry>
                </mxCell>
                <mxCell id="Zl3rUJQbuVN9b4rkIxgS-71" value="" style="rounded=0;whiteSpace=wrap;html=1;" parent="1" vertex="1">
                    <mxGeometry x="532.5" y="2463" width="310" height="575" as="geometry"/>
                </mxCell>
                <mxCell id="Zl3rUJQbuVN9b4rkIxgS-72" value="" style="ellipse;html=1;shape=startState;fillColor=#000000;strokeColor=#ff0000;" parent="1" vertex="1">
                    <mxGeometry x="589.5" y="2473" width="30" height="30" as="geometry"/>
                </mxCell>
                <mxCell id="Zl3rUJQbuVN9b4rkIxgS-73" value="" style="edgeStyle=orthogonalEdgeStyle;html=1;verticalAlign=bottom;endArrow=open;endSize=8;strokeColor=#ff0000;" parent="1" source="Zl3rUJQbuVN9b4rkIxgS-72" target="Zl3rUJQbuVN9b4rkIxgS-77" edge="1">
                    <mxGeometry relative="1" as="geometry">
                        <mxPoint x="604.5" y="2543" as="targetPoint"/>
                    </mxGeometry>
                </mxCell>
                <mxCell id="Zl3rUJQbuVN9b4rkIxgS-74" value="Pilih Berita" style="rounded=1;whiteSpace=wrap;html=1;arcSize=40;fontColor=#000000;fillColor=#ffffc0;strokeColor=#ff0000;" parent="1" vertex="1">
                    <mxGeometry x="547.5" y="2673" width="120" height="40" as="geometry"/>
                </mxCell>
                <mxCell id="Zl3rUJQbuVN9b4rkIxgS-75" value="" style="ellipse;html=1;shape=endState;fillColor=#000000;strokeColor=#ff0000;" parent="1" vertex="1">
                    <mxGeometry x="592.5" y="2988" width="30" height="30" as="geometry"/>
                </mxCell>
                <mxCell id="Zl3rUJQbuVN9b4rkIxgS-76" value="Menghapus&amp;nbsp; Berita System" style="text;html=1;align=center;verticalAlign=middle;whiteSpace=wrap;rounded=0;" parent="1" vertex="1">
                    <mxGeometry x="679.5" y="2483" width="90" height="30" as="geometry"/>
                </mxCell>
                <mxCell id="Zl3rUJQbuVN9b4rkIxgS-77" value="User Sudah Login" style="rhombus;whiteSpace=wrap;html=1;fontColor=#000000;fillColor=#ffffc0;strokeColor=#ff0000;" parent="1" vertex="1">
                    <mxGeometry x="562" y="2543" width="85" height="70" as="geometry"/>
                </mxCell>
                <mxCell id="Zl3rUJQbuVN9b4rkIxgS-78" value="no" style="edgeStyle=orthogonalEdgeStyle;html=1;align=left;verticalAlign=bottom;endArrow=open;endSize=8;strokeColor=#ff0000;" parent="1" source="Zl3rUJQbuVN9b4rkIxgS-77" target="Zl3rUJQbuVN9b4rkIxgS-80" edge="1">
                    <mxGeometry x="-1" relative="1" as="geometry">
                        <mxPoint x="749.5" y="2563" as="targetPoint"/>
                    </mxGeometry>
                </mxCell>
                <mxCell id="Zl3rUJQbuVN9b4rkIxgS-79" value="yes" style="html=1;align=left;verticalAlign=top;endArrow=open;endSize=8;strokeColor=#ff0000;" parent="1" source="Zl3rUJQbuVN9b4rkIxgS-77" target="Zl3rUJQbuVN9b4rkIxgS-74" edge="1">
                    <mxGeometry x="-1" relative="1" as="geometry">
                        <mxPoint x="619.5" y="2643" as="targetPoint"/>
                    </mxGeometry>
                </mxCell>
                <mxCell id="Zl3rUJQbuVN9b4rkIxgS-80" value="Redirect System Login" style="rounded=1;whiteSpace=wrap;html=1;arcSize=40;fontColor=#000000;fillColor=#ffffc0;strokeColor=#ff0000;" parent="1" vertex="1">
                    <mxGeometry x="709.5" y="2558" width="120" height="40" as="geometry"/>
                </mxCell>
                <mxCell id="Zl3rUJQbuVN9b4rkIxgS-81" value="&lt;span style=&quot;color: rgb(0, 0, 0);&quot;&gt;Masukkan Password&lt;/span&gt;" style="rounded=1;whiteSpace=wrap;html=1;arcSize=40;fontColor=#000000;fillColor=#ffffc0;strokeColor=#ff0000;" parent="1" vertex="1">
                    <mxGeometry x="547.5" y="2773" width="120" height="40" as="geometry"/>
                </mxCell>
                <mxCell id="Zl3rUJQbuVN9b4rkIxgS-82" value="" style="edgeStyle=orthogonalEdgeStyle;html=1;verticalAlign=bottom;endArrow=open;endSize=8;strokeColor=#ff0000;" parent="1" source="Zl3rUJQbuVN9b4rkIxgS-81" target="Zl3rUJQbuVN9b4rkIxgS-84" edge="1">
                    <mxGeometry relative="1" as="geometry">
                        <mxPoint x="604.5" y="2853" as="targetPoint"/>
                    </mxGeometry>
                </mxCell>
                <mxCell id="Zl3rUJQbuVN9b4rkIxgS-83" value="" style="html=1;verticalAlign=bottom;endArrow=open;endSize=8;strokeColor=#ff0000;" parent="1" source="Zl3rUJQbuVN9b4rkIxgS-74" target="Zl3rUJQbuVN9b4rkIxgS-81" edge="1">
                    <mxGeometry relative="1" as="geometry">
                        <mxPoint x="612.5" y="2878" as="targetPoint"/>
                        <mxPoint x="712.5" y="2843" as="sourcePoint"/>
                    </mxGeometry>
                </mxCell>
                <mxCell id="Zl3rUJQbuVN9b4rkIxgS-84" value="Is Valid" style="rhombus;whiteSpace=wrap;html=1;fontColor=#000000;fillColor=#ffffc0;strokeColor=#ff0000;" parent="1" vertex="1">
                    <mxGeometry x="567" y="2868" width="80" height="40" as="geometry"/>
                </mxCell>
                <mxCell id="Zl3rUJQbuVN9b4rkIxgS-85" value="no" style="edgeStyle=orthogonalEdgeStyle;html=1;align=left;verticalAlign=bottom;endArrow=open;endSize=8;strokeColor=#ff0000;" parent="1" source="Zl3rUJQbuVN9b4rkIxgS-84" target="Zl3rUJQbuVN9b4rkIxgS-87" edge="1">
                    <mxGeometry x="-1" relative="1" as="geometry">
                        <mxPoint x="890" y="2783" as="targetPoint"/>
                    </mxGeometry>
                </mxCell>
                <mxCell id="Zl3rUJQbuVN9b4rkIxgS-86" value="yes" style="edgeStyle=orthogonalEdgeStyle;html=1;align=left;verticalAlign=top;endArrow=open;endSize=8;strokeColor=#ff0000;" parent="1" source="Zl3rUJQbuVN9b4rkIxgS-84" target="Zl3rUJQbuVN9b4rkIxgS-75" edge="1">
                    <mxGeometry x="-1" relative="1" as="geometry">
                        <mxPoint x="750" y="2863" as="targetPoint"/>
                    </mxGeometry>
                </mxCell>
                <mxCell id="Zl3rUJQbuVN9b4rkIxgS-87" value="Tampilkan Error" style="rounded=1;whiteSpace=wrap;html=1;arcSize=40;fontColor=#000000;fillColor=#ffffc0;strokeColor=#ff0000;" parent="1" vertex="1">
                    <mxGeometry x="690" y="2868" width="120" height="40" as="geometry"/>
                </mxCell>
                <mxCell id="Zl3rUJQbuVN9b4rkIxgS-88" value="" style="edgeStyle=orthogonalEdgeStyle;html=1;verticalAlign=bottom;endArrow=open;endSize=8;strokeColor=#ff0000;exitX=0.5;exitY=0;exitDx=0;exitDy=0;entryX=1;entryY=0.5;entryDx=0;entryDy=0;" parent="1" source="Zl3rUJQbuVN9b4rkIxgS-87" target="Zl3rUJQbuVN9b4rkIxgS-81" edge="1">
                    <mxGeometry relative="1" as="geometry">
                        <mxPoint x="617" y="2878" as="targetPoint"/>
                        <mxPoint x="618" y="2823" as="sourcePoint"/>
                    </mxGeometry>
                </mxCell>
                <mxCell id="Zl3rUJQbuVN9b4rkIxgS-131" value="" style="rounded=0;whiteSpace=wrap;html=1;" parent="1" vertex="1">
                    <mxGeometry x="-173" y="3100" width="310" height="347" as="geometry"/>
                </mxCell>
                <mxCell id="Zl3rUJQbuVN9b4rkIxgS-132" value="" style="ellipse;html=1;shape=startState;fillColor=#000000;strokeColor=#ff0000;" parent="1" vertex="1">
                    <mxGeometry x="-116" y="3110" width="30" height="30" as="geometry"/>
                </mxCell>
                <mxCell id="Zl3rUJQbuVN9b4rkIxgS-133" value="" style="edgeStyle=orthogonalEdgeStyle;html=1;verticalAlign=bottom;endArrow=open;endSize=8;strokeColor=#ff0000;" parent="1" source="Zl3rUJQbuVN9b4rkIxgS-132" target="Zl3rUJQbuVN9b4rkIxgS-136" edge="1">
                    <mxGeometry relative="1" as="geometry">
                        <mxPoint x="-101" y="3180" as="targetPoint"/>
                    </mxGeometry>
                </mxCell>
                <mxCell id="Zl3rUJQbuVN9b4rkIxgS-134" value="" style="ellipse;html=1;shape=endState;fillColor=#000000;strokeColor=#ff0000;" parent="1" vertex="1">
                    <mxGeometry x="-114" y="3407" width="30" height="30" as="geometry"/>
                </mxCell>
                <mxCell id="Zl3rUJQbuVN9b4rkIxgS-135" value="Membuat Galeri System" style="text;html=1;align=center;verticalAlign=middle;whiteSpace=wrap;rounded=0;" parent="1" vertex="1">
                    <mxGeometry x="-26" y="3120" width="90" height="30" as="geometry"/>
                </mxCell>
                <mxCell id="Zl3rUJQbuVN9b4rkIxgS-136" value="User Sudah Login" style="rhombus;whiteSpace=wrap;html=1;fontColor=#000000;fillColor=#ffffc0;strokeColor=#ff0000;" parent="1" vertex="1">
                    <mxGeometry x="-143.5" y="3180" width="85" height="70" as="geometry"/>
                </mxCell>
                <mxCell id="Zl3rUJQbuVN9b4rkIxgS-137" value="no" style="edgeStyle=orthogonalEdgeStyle;html=1;align=left;verticalAlign=bottom;endArrow=open;endSize=8;strokeColor=#ff0000;" parent="1" source="Zl3rUJQbuVN9b4rkIxgS-136" target="Zl3rUJQbuVN9b4rkIxgS-139" edge="1">
                    <mxGeometry x="-1" relative="1" as="geometry">
                        <mxPoint x="44" y="3200" as="targetPoint"/>
                    </mxGeometry>
                </mxCell>
                <mxCell id="Zl3rUJQbuVN9b4rkIxgS-138" value="yes" style="html=1;align=left;verticalAlign=top;endArrow=open;endSize=8;strokeColor=#ff0000;" parent="1" source="Zl3rUJQbuVN9b4rkIxgS-136" target="Zl3rUJQbuVN9b4rkIxgS-140" edge="1">
                    <mxGeometry x="-1" relative="1" as="geometry">
                        <mxPoint x="-98.52173913043475" y="3309.9999999999995" as="targetPoint"/>
                    </mxGeometry>
                </mxCell>
                <mxCell id="Zl3rUJQbuVN9b4rkIxgS-139" value="Redirect System Login" style="rounded=1;whiteSpace=wrap;html=1;arcSize=40;fontColor=#000000;fillColor=#ffffc0;strokeColor=#ff0000;" parent="1" vertex="1">
                    <mxGeometry x="4" y="3195" width="120" height="40" as="geometry"/>
                </mxCell>
                <mxCell id="Zl3rUJQbuVN9b4rkIxgS-140" value="&lt;span style=&quot;color: rgb(0, 0, 0);&quot;&gt;Input Gambar&lt;/span&gt;" style="rounded=1;whiteSpace=wrap;html=1;arcSize=40;fontColor=#000000;fillColor=#ffffc0;strokeColor=#ff0000;" parent="1" vertex="1">
                    <mxGeometry x="-159" y="3317" width="120" height="40" as="geometry"/>
                </mxCell>
                <mxCell id="Zl3rUJQbuVN9b4rkIxgS-141" value="" style="edgeStyle=orthogonalEdgeStyle;html=1;verticalAlign=bottom;endArrow=open;endSize=8;strokeColor=#ff0000;" parent="1" source="Zl3rUJQbuVN9b4rkIxgS-140" target="Zl3rUJQbuVN9b4rkIxgS-134" edge="1">
                    <mxGeometry relative="1" as="geometry">
                        <mxPoint x="-101" y="3490" as="targetPoint"/>
                    </mxGeometry>
                </mxCell>
                <mxCell id="Zl3rUJQbuVN9b4rkIxgS-142" value="" style="rounded=0;whiteSpace=wrap;html=1;" parent="1" vertex="1">
                    <mxGeometry x="192" y="3100" width="310" height="450" as="geometry"/>
                </mxCell>
                <mxCell id="Zl3rUJQbuVN9b4rkIxgS-143" value="" style="ellipse;html=1;shape=startState;fillColor=#000000;strokeColor=#ff0000;" parent="1" vertex="1">
                    <mxGeometry x="249" y="3110" width="30" height="30" as="geometry"/>
                </mxCell>
                <mxCell id="Zl3rUJQbuVN9b4rkIxgS-144" value="" style="edgeStyle=orthogonalEdgeStyle;html=1;verticalAlign=bottom;endArrow=open;endSize=8;strokeColor=#ff0000;" parent="1" source="Zl3rUJQbuVN9b4rkIxgS-143" target="Zl3rUJQbuVN9b4rkIxgS-148" edge="1">
                    <mxGeometry relative="1" as="geometry">
                        <mxPoint x="264" y="3180" as="targetPoint"/>
                    </mxGeometry>
                </mxCell>
                <mxCell id="Zl3rUJQbuVN9b4rkIxgS-145" value="Pilih Galeri" style="rounded=1;whiteSpace=wrap;html=1;arcSize=40;fontColor=#000000;fillColor=#ffffc0;strokeColor=#ff0000;" parent="1" vertex="1">
                    <mxGeometry x="207" y="3310" width="120" height="40" as="geometry"/>
                </mxCell>
                <mxCell id="Zl3rUJQbuVN9b4rkIxgS-146" value="" style="ellipse;html=1;shape=endState;fillColor=#000000;strokeColor=#ff0000;" parent="1" vertex="1">
                    <mxGeometry x="252" y="3505" width="30" height="30" as="geometry"/>
                </mxCell>
                <mxCell id="Zl3rUJQbuVN9b4rkIxgS-147" value="Mengupdate&amp;nbsp; Galeri System" style="text;html=1;align=center;verticalAlign=middle;whiteSpace=wrap;rounded=0;" parent="1" vertex="1">
                    <mxGeometry x="339" y="3120" width="90" height="30" as="geometry"/>
                </mxCell>
                <mxCell id="Zl3rUJQbuVN9b4rkIxgS-148" value="User Sudah Login" style="rhombus;whiteSpace=wrap;html=1;fontColor=#000000;fillColor=#ffffc0;strokeColor=#ff0000;" parent="1" vertex="1">
                    <mxGeometry x="221.5" y="3180" width="85" height="70" as="geometry"/>
                </mxCell>
                <mxCell id="Zl3rUJQbuVN9b4rkIxgS-149" value="no" style="edgeStyle=orthogonalEdgeStyle;html=1;align=left;verticalAlign=bottom;endArrow=open;endSize=8;strokeColor=#ff0000;" parent="1" source="Zl3rUJQbuVN9b4rkIxgS-148" target="Zl3rUJQbuVN9b4rkIxgS-151" edge="1">
                    <mxGeometry x="-1" relative="1" as="geometry">
                        <mxPoint x="409" y="3200" as="targetPoint"/>
                    </mxGeometry>
                </mxCell>
                <mxCell id="Zl3rUJQbuVN9b4rkIxgS-150" value="yes" style="html=1;align=left;verticalAlign=top;endArrow=open;endSize=8;strokeColor=#ff0000;" parent="1" source="Zl3rUJQbuVN9b4rkIxgS-148" target="Zl3rUJQbuVN9b4rkIxgS-145" edge="1">
                    <mxGeometry x="-1" relative="1" as="geometry">
                        <mxPoint x="279" y="3280" as="targetPoint"/>
                    </mxGeometry>
                </mxCell>
                <mxCell id="Zl3rUJQbuVN9b4rkIxgS-151" value="Redirect System Login" style="rounded=1;whiteSpace=wrap;html=1;arcSize=40;fontColor=#000000;fillColor=#ffffc0;strokeColor=#ff0000;" parent="1" vertex="1">
                    <mxGeometry x="369" y="3195" width="120" height="40" as="geometry"/>
                </mxCell>
                <mxCell id="Zl3rUJQbuVN9b4rkIxgS-152" value="&lt;span style=&quot;color: rgb(0, 0, 0);&quot;&gt;Input Gambar Baru&lt;/span&gt;" style="rounded=1;whiteSpace=wrap;html=1;arcSize=40;fontColor=#000000;fillColor=#ffffc0;strokeColor=#ff0000;" parent="1" vertex="1">
                    <mxGeometry x="207" y="3410" width="120" height="40" as="geometry"/>
                </mxCell>
                <mxCell id="Zl3rUJQbuVN9b4rkIxgS-153" value="" style="edgeStyle=orthogonalEdgeStyle;html=1;verticalAlign=bottom;endArrow=open;endSize=8;strokeColor=#ff0000;" parent="1" source="Zl3rUJQbuVN9b4rkIxgS-152" target="Zl3rUJQbuVN9b4rkIxgS-146" edge="1">
                    <mxGeometry relative="1" as="geometry">
                        <mxPoint x="264" y="3490" as="targetPoint"/>
                    </mxGeometry>
                </mxCell>
                <mxCell id="Zl3rUJQbuVN9b4rkIxgS-154" value="" style="html=1;verticalAlign=bottom;endArrow=open;endSize=8;strokeColor=#ff0000;" parent="1" source="Zl3rUJQbuVN9b4rkIxgS-145" target="Zl3rUJQbuVN9b4rkIxgS-152" edge="1">
                    <mxGeometry relative="1" as="geometry">
                        <mxPoint x="272" y="3515" as="targetPoint"/>
                        <mxPoint x="372" y="3480" as="sourcePoint"/>
                    </mxGeometry>
                </mxCell>
                <mxCell id="Zl3rUJQbuVN9b4rkIxgS-155" value="" style="rounded=0;whiteSpace=wrap;html=1;" parent="1" vertex="1">
                    <mxGeometry x="537" y="3100" width="310" height="575" as="geometry"/>
                </mxCell>
                <mxCell id="Zl3rUJQbuVN9b4rkIxgS-156" value="" style="ellipse;html=1;shape=startState;fillColor=#000000;strokeColor=#ff0000;" parent="1" vertex="1">
                    <mxGeometry x="594" y="3110" width="30" height="30" as="geometry"/>
                </mxCell>
                <mxCell id="Zl3rUJQbuVN9b4rkIxgS-157" value="" style="edgeStyle=orthogonalEdgeStyle;html=1;verticalAlign=bottom;endArrow=open;endSize=8;strokeColor=#ff0000;" parent="1" source="Zl3rUJQbuVN9b4rkIxgS-156" target="Zl3rUJQbuVN9b4rkIxgS-161" edge="1">
                    <mxGeometry relative="1" as="geometry">
                        <mxPoint x="609" y="3180" as="targetPoint"/>
                    </mxGeometry>
                </mxCell>
                <mxCell id="Zl3rUJQbuVN9b4rkIxgS-158" value="Pilih Galeri" style="rounded=1;whiteSpace=wrap;html=1;arcSize=40;fontColor=#000000;fillColor=#ffffc0;strokeColor=#ff0000;" parent="1" vertex="1">
                    <mxGeometry x="552" y="3310" width="120" height="40" as="geometry"/>
                </mxCell>
                <mxCell id="Zl3rUJQbuVN9b4rkIxgS-159" value="" style="ellipse;html=1;shape=endState;fillColor=#000000;strokeColor=#ff0000;" parent="1" vertex="1">
                    <mxGeometry x="597" y="3625" width="30" height="30" as="geometry"/>
                </mxCell>
                <mxCell id="Zl3rUJQbuVN9b4rkIxgS-160" value="Menghapus&amp;nbsp; Galeri System" style="text;html=1;align=center;verticalAlign=middle;whiteSpace=wrap;rounded=0;" parent="1" vertex="1">
                    <mxGeometry x="684" y="3120" width="90" height="30" as="geometry"/>
                </mxCell>
                <mxCell id="Zl3rUJQbuVN9b4rkIxgS-161" value="User Sudah Login" style="rhombus;whiteSpace=wrap;html=1;fontColor=#000000;fillColor=#ffffc0;strokeColor=#ff0000;" parent="1" vertex="1">
                    <mxGeometry x="566.5" y="3180" width="85" height="70" as="geometry"/>
                </mxCell>
                <mxCell id="Zl3rUJQbuVN9b4rkIxgS-162" value="no" style="edgeStyle=orthogonalEdgeStyle;html=1;align=left;verticalAlign=bottom;endArrow=open;endSize=8;strokeColor=#ff0000;" parent="1" source="Zl3rUJQbuVN9b4rkIxgS-161" target="Zl3rUJQbuVN9b4rkIxgS-164" edge="1">
                    <mxGeometry x="-1" relative="1" as="geometry">
                        <mxPoint x="754" y="3200" as="targetPoint"/>
                    </mxGeometry>
                </mxCell>
                <mxCell id="Zl3rUJQbuVN9b4rkIxgS-163" value="yes" style="html=1;align=left;verticalAlign=top;endArrow=open;endSize=8;strokeColor=#ff0000;" parent="1" source="Zl3rUJQbuVN9b4rkIxgS-161" target="Zl3rUJQbuVN9b4rkIxgS-158" edge="1">
                    <mxGeometry x="-1" relative="1" as="geometry">
                        <mxPoint x="624" y="3280" as="targetPoint"/>
                    </mxGeometry>
                </mxCell>
                <mxCell id="Zl3rUJQbuVN9b4rkIxgS-164" value="Redirect System Login" style="rounded=1;whiteSpace=wrap;html=1;arcSize=40;fontColor=#000000;fillColor=#ffffc0;strokeColor=#ff0000;" parent="1" vertex="1">
                    <mxGeometry x="714" y="3195" width="120" height="40" as="geometry"/>
                </mxCell>
                <mxCell id="Zl3rUJQbuVN9b4rkIxgS-165" value="&lt;span style=&quot;color: rgb(0, 0, 0);&quot;&gt;Masukkan Password&lt;/span&gt;" style="rounded=1;whiteSpace=wrap;html=1;arcSize=40;fontColor=#000000;fillColor=#ffffc0;strokeColor=#ff0000;" parent="1" vertex="1">
                    <mxGeometry x="552" y="3410" width="120" height="40" as="geometry"/>
                </mxCell>
                <mxCell id="Zl3rUJQbuVN9b4rkIxgS-166" value="" style="edgeStyle=orthogonalEdgeStyle;html=1;verticalAlign=bottom;endArrow=open;endSize=8;strokeColor=#ff0000;" parent="1" source="Zl3rUJQbuVN9b4rkIxgS-165" target="Zl3rUJQbuVN9b4rkIxgS-168" edge="1">
                    <mxGeometry relative="1" as="geometry">
                        <mxPoint x="609" y="3490" as="targetPoint"/>
                    </mxGeometry>
                </mxCell>
                <mxCell id="Zl3rUJQbuVN9b4rkIxgS-167" value="" style="html=1;verticalAlign=bottom;endArrow=open;endSize=8;strokeColor=#ff0000;" parent="1" source="Zl3rUJQbuVN9b4rkIxgS-158" target="Zl3rUJQbuVN9b4rkIxgS-165" edge="1">
                    <mxGeometry relative="1" as="geometry">
                        <mxPoint x="617" y="3515" as="targetPoint"/>
                        <mxPoint x="717" y="3480" as="sourcePoint"/>
                    </mxGeometry>
                </mxCell>
                <mxCell id="Zl3rUJQbuVN9b4rkIxgS-168" value="Is Valid" style="rhombus;whiteSpace=wrap;html=1;fontColor=#000000;fillColor=#ffffc0;strokeColor=#ff0000;" parent="1" vertex="1">
                    <mxGeometry x="571.5" y="3505" width="80" height="40" as="geometry"/>
                </mxCell>
                <mxCell id="Zl3rUJQbuVN9b4rkIxgS-169" value="no" style="edgeStyle=orthogonalEdgeStyle;html=1;align=left;verticalAlign=bottom;endArrow=open;endSize=8;strokeColor=#ff0000;" parent="1" source="Zl3rUJQbuVN9b4rkIxgS-168" target="Zl3rUJQbuVN9b4rkIxgS-171" edge="1">
                    <mxGeometry x="-1" relative="1" as="geometry">
                        <mxPoint x="894.5" y="3420" as="targetPoint"/>
                    </mxGeometry>
                </mxCell>
                <mxCell id="Zl3rUJQbuVN9b4rkIxgS-170" value="yes" style="edgeStyle=orthogonalEdgeStyle;html=1;align=left;verticalAlign=top;endArrow=open;endSize=8;strokeColor=#ff0000;" parent="1" source="Zl3rUJQbuVN9b4rkIxgS-168" target="Zl3rUJQbuVN9b4rkIxgS-159" edge="1">
                    <mxGeometry x="-1" relative="1" as="geometry">
                        <mxPoint x="754.5" y="3500" as="targetPoint"/>
                    </mxGeometry>
                </mxCell>
                <mxCell id="Zl3rUJQbuVN9b4rkIxgS-171" value="Tampilkan Error" style="rounded=1;whiteSpace=wrap;html=1;arcSize=40;fontColor=#000000;fillColor=#ffffc0;strokeColor=#ff0000;" parent="1" vertex="1">
                    <mxGeometry x="694.5" y="3505" width="120" height="40" as="geometry"/>
                </mxCell>
                <mxCell id="Zl3rUJQbuVN9b4rkIxgS-172" value="" style="edgeStyle=orthogonalEdgeStyle;html=1;verticalAlign=bottom;endArrow=open;endSize=8;strokeColor=#ff0000;exitX=0.5;exitY=0;exitDx=0;exitDy=0;entryX=1;entryY=0.5;entryDx=0;entryDy=0;" parent="1" source="Zl3rUJQbuVN9b4rkIxgS-171" target="Zl3rUJQbuVN9b4rkIxgS-165" edge="1">
                    <mxGeometry relative="1" as="geometry">
                        <mxPoint x="621.5" y="3515" as="targetPoint"/>
                        <mxPoint x="622.5" y="3460" as="sourcePoint"/>
                    </mxGeometry>
                </mxCell>
                <mxCell id="Zl3rUJQbuVN9b4rkIxgS-215" value="" style="rounded=0;whiteSpace=wrap;html=1;" parent="1" vertex="1">
                    <mxGeometry x="-190" y="3720" width="310" height="347" as="geometry"/>
                </mxCell>
                <mxCell id="Zl3rUJQbuVN9b4rkIxgS-216" value="" style="ellipse;html=1;shape=startState;fillColor=#000000;strokeColor=#ff0000;" parent="1" vertex="1">
                    <mxGeometry x="-133" y="3730" width="30" height="30" as="geometry"/>
                </mxCell>
                <mxCell id="Zl3rUJQbuVN9b4rkIxgS-217" value="" style="edgeStyle=orthogonalEdgeStyle;html=1;verticalAlign=bottom;endArrow=open;endSize=8;strokeColor=#ff0000;" parent="1" source="Zl3rUJQbuVN9b4rkIxgS-216" target="Zl3rUJQbuVN9b4rkIxgS-220" edge="1">
                    <mxGeometry relative="1" as="geometry">
                        <mxPoint x="-118" y="3800" as="targetPoint"/>
                    </mxGeometry>
                </mxCell>
                <mxCell id="Zl3rUJQbuVN9b4rkIxgS-218" value="" style="ellipse;html=1;shape=endState;fillColor=#000000;strokeColor=#ff0000;" parent="1" vertex="1">
                    <mxGeometry x="-131" y="4027" width="30" height="30" as="geometry"/>
                </mxCell>
                <mxCell id="Zl3rUJQbuVN9b4rkIxgS-219" value="Membuat Admin System" style="text;html=1;align=center;verticalAlign=middle;whiteSpace=wrap;rounded=0;" parent="1" vertex="1">
                    <mxGeometry x="-43" y="3740" width="90" height="30" as="geometry"/>
                </mxCell>
                <mxCell id="Zl3rUJQbuVN9b4rkIxgS-220" value="User Sudah Login" style="rhombus;whiteSpace=wrap;html=1;fontColor=#000000;fillColor=#ffffc0;strokeColor=#ff0000;" parent="1" vertex="1">
                    <mxGeometry x="-160.5" y="3800" width="85" height="70" as="geometry"/>
                </mxCell>
                <mxCell id="Zl3rUJQbuVN9b4rkIxgS-221" value="no" style="edgeStyle=orthogonalEdgeStyle;html=1;align=left;verticalAlign=bottom;endArrow=open;endSize=8;strokeColor=#ff0000;" parent="1" source="Zl3rUJQbuVN9b4rkIxgS-220" target="Zl3rUJQbuVN9b4rkIxgS-223" edge="1">
                    <mxGeometry x="-1" relative="1" as="geometry">
                        <mxPoint x="27" y="3820" as="targetPoint"/>
                    </mxGeometry>
                </mxCell>
                <mxCell id="Zl3rUJQbuVN9b4rkIxgS-222" value="yes" style="html=1;align=left;verticalAlign=top;endArrow=open;endSize=8;strokeColor=#ff0000;" parent="1" source="Zl3rUJQbuVN9b4rkIxgS-220" target="Zl3rUJQbuVN9b4rkIxgS-224" edge="1">
                    <mxGeometry x="-1" relative="1" as="geometry">
                        <mxPoint x="-115.52173913043475" y="3929.9999999999995" as="targetPoint"/>
                    </mxGeometry>
                </mxCell>
                <mxCell id="Zl3rUJQbuVN9b4rkIxgS-223" value="Redirect System Login" style="rounded=1;whiteSpace=wrap;html=1;arcSize=40;fontColor=#000000;fillColor=#ffffc0;strokeColor=#ff0000;" parent="1" vertex="1">
                    <mxGeometry x="-13" y="3815" width="120" height="40" as="geometry"/>
                </mxCell>
                <mxCell id="Zl3rUJQbuVN9b4rkIxgS-224" value="&lt;span style=&quot;color: rgb(0, 0, 0);&quot;&gt;Input Data(name, email, password)&lt;/span&gt;" style="rounded=1;whiteSpace=wrap;html=1;arcSize=40;fontColor=#000000;fillColor=#ffffc0;strokeColor=#ff0000;" parent="1" vertex="1">
                    <mxGeometry x="-176" y="3937" width="120" height="40" as="geometry"/>
                </mxCell>
                <mxCell id="Zl3rUJQbuVN9b4rkIxgS-225" value="" style="edgeStyle=orthogonalEdgeStyle;html=1;verticalAlign=bottom;endArrow=open;endSize=8;strokeColor=#ff0000;" parent="1" source="Zl3rUJQbuVN9b4rkIxgS-224" target="Zl3rUJQbuVN9b4rkIxgS-218" edge="1">
                    <mxGeometry relative="1" as="geometry">
                        <mxPoint x="-118" y="4110" as="targetPoint"/>
                    </mxGeometry>
                </mxCell>
                <mxCell id="Zl3rUJQbuVN9b4rkIxgS-226" value="" style="rounded=0;whiteSpace=wrap;html=1;" parent="1" vertex="1">
                    <mxGeometry x="175" y="3720" width="310" height="450" as="geometry"/>
                </mxCell>
                <mxCell id="Zl3rUJQbuVN9b4rkIxgS-227" value="" style="ellipse;html=1;shape=startState;fillColor=#000000;strokeColor=#ff0000;" parent="1" vertex="1">
                    <mxGeometry x="232" y="3730" width="30" height="30" as="geometry"/>
                </mxCell>
                <mxCell id="Zl3rUJQbuVN9b4rkIxgS-228" value="" style="edgeStyle=orthogonalEdgeStyle;html=1;verticalAlign=bottom;endArrow=open;endSize=8;strokeColor=#ff0000;" parent="1" source="Zl3rUJQbuVN9b4rkIxgS-227" target="Zl3rUJQbuVN9b4rkIxgS-232" edge="1">
                    <mxGeometry relative="1" as="geometry">
                        <mxPoint x="247" y="3800" as="targetPoint"/>
                    </mxGeometry>
                </mxCell>
                <mxCell id="Zl3rUJQbuVN9b4rkIxgS-229" value="Pilih Admin" style="rounded=1;whiteSpace=wrap;html=1;arcSize=40;fontColor=#000000;fillColor=#ffffc0;strokeColor=#ff0000;" parent="1" vertex="1">
                    <mxGeometry x="190" y="3930" width="120" height="40" as="geometry"/>
                </mxCell>
                <mxCell id="Zl3rUJQbuVN9b4rkIxgS-230" value="" style="ellipse;html=1;shape=endState;fillColor=#000000;strokeColor=#ff0000;" parent="1" vertex="1">
                    <mxGeometry x="235" y="4125" width="30" height="30" as="geometry"/>
                </mxCell>
                <mxCell id="Zl3rUJQbuVN9b4rkIxgS-231" value="Mengupdate&amp;nbsp; Admin System" style="text;html=1;align=center;verticalAlign=middle;whiteSpace=wrap;rounded=0;" parent="1" vertex="1">
                    <mxGeometry x="322" y="3740" width="90" height="30" as="geometry"/>
                </mxCell>
                <mxCell id="Zl3rUJQbuVN9b4rkIxgS-232" value="User Sudah Login" style="rhombus;whiteSpace=wrap;html=1;fontColor=#000000;fillColor=#ffffc0;strokeColor=#ff0000;" parent="1" vertex="1">
                    <mxGeometry x="204.5" y="3800" width="85" height="70" as="geometry"/>
                </mxCell>
                <mxCell id="Zl3rUJQbuVN9b4rkIxgS-233" value="no" style="edgeStyle=orthogonalEdgeStyle;html=1;align=left;verticalAlign=bottom;endArrow=open;endSize=8;strokeColor=#ff0000;" parent="1" source="Zl3rUJQbuVN9b4rkIxgS-232" target="Zl3rUJQbuVN9b4rkIxgS-235" edge="1">
                    <mxGeometry x="-1" relative="1" as="geometry">
                        <mxPoint x="392" y="3820" as="targetPoint"/>
                    </mxGeometry>
                </mxCell>
                <mxCell id="Zl3rUJQbuVN9b4rkIxgS-234" value="yes" style="html=1;align=left;verticalAlign=top;endArrow=open;endSize=8;strokeColor=#ff0000;" parent="1" source="Zl3rUJQbuVN9b4rkIxgS-232" target="Zl3rUJQbuVN9b4rkIxgS-229" edge="1">
                    <mxGeometry x="-1" relative="1" as="geometry">
                        <mxPoint x="262" y="3900" as="targetPoint"/>
                    </mxGeometry>
                </mxCell>
                <mxCell id="Zl3rUJQbuVN9b4rkIxgS-235" value="Redirect System Login" style="rounded=1;whiteSpace=wrap;html=1;arcSize=40;fontColor=#000000;fillColor=#ffffc0;strokeColor=#ff0000;" parent="1" vertex="1">
                    <mxGeometry x="352" y="3815" width="120" height="40" as="geometry"/>
                </mxCell>
                <mxCell id="Zl3rUJQbuVN9b4rkIxgS-236" value="&lt;span style=&quot;color: rgb(0, 0, 0);&quot;&gt;Input Data(name, email, password) Baru&lt;/span&gt;" style="rounded=1;whiteSpace=wrap;html=1;arcSize=40;fontColor=#000000;fillColor=#ffffc0;strokeColor=#ff0000;" parent="1" vertex="1">
                    <mxGeometry x="190" y="4030" width="120" height="40" as="geometry"/>
                </mxCell>
                <mxCell id="Zl3rUJQbuVN9b4rkIxgS-237" value="" style="edgeStyle=orthogonalEdgeStyle;html=1;verticalAlign=bottom;endArrow=open;endSize=8;strokeColor=#ff0000;" parent="1" source="Zl3rUJQbuVN9b4rkIxgS-236" target="Zl3rUJQbuVN9b4rkIxgS-230" edge="1">
                    <mxGeometry relative="1" as="geometry">
                        <mxPoint x="247" y="4110" as="targetPoint"/>
                    </mxGeometry>
                </mxCell>
                <mxCell id="Zl3rUJQbuVN9b4rkIxgS-238" value="" style="html=1;verticalAlign=bottom;endArrow=open;endSize=8;strokeColor=#ff0000;" parent="1" source="Zl3rUJQbuVN9b4rkIxgS-229" target="Zl3rUJQbuVN9b4rkIxgS-236" edge="1">
                    <mxGeometry relative="1" as="geometry">
                        <mxPoint x="255" y="4135" as="targetPoint"/>
                        <mxPoint x="355" y="4100" as="sourcePoint"/>
                    </mxGeometry>
                </mxCell>
                <mxCell id="Zl3rUJQbuVN9b4rkIxgS-239" value="" style="rounded=0;whiteSpace=wrap;html=1;" parent="1" vertex="1">
                    <mxGeometry x="520" y="3720" width="310" height="575" as="geometry"/>
                </mxCell>
                <mxCell id="Zl3rUJQbuVN9b4rkIxgS-240" value="" style="ellipse;html=1;shape=startState;fillColor=#000000;strokeColor=#ff0000;" parent="1" vertex="1">
                    <mxGeometry x="577" y="3730" width="30" height="30" as="geometry"/>
                </mxCell>
                <mxCell id="Zl3rUJQbuVN9b4rkIxgS-241" value="" style="edgeStyle=orthogonalEdgeStyle;html=1;verticalAlign=bottom;endArrow=open;endSize=8;strokeColor=#ff0000;" parent="1" source="Zl3rUJQbuVN9b4rkIxgS-240" target="Zl3rUJQbuVN9b4rkIxgS-245" edge="1">
                    <mxGeometry relative="1" as="geometry">
                        <mxPoint x="592" y="3800" as="targetPoint"/>
                    </mxGeometry>
                </mxCell>
                <mxCell id="Zl3rUJQbuVN9b4rkIxgS-242" value="Pilih Admin" style="rounded=1;whiteSpace=wrap;html=1;arcSize=40;fontColor=#000000;fillColor=#ffffc0;strokeColor=#ff0000;" parent="1" vertex="1">
                    <mxGeometry x="535" y="3930" width="120" height="40" as="geometry"/>
                </mxCell>
                <mxCell id="Zl3rUJQbuVN9b4rkIxgS-243" value="" style="ellipse;html=1;shape=endState;fillColor=#000000;strokeColor=#ff0000;" parent="1" vertex="1">
                    <mxGeometry x="580" y="4245" width="30" height="30" as="geometry"/>
                </mxCell>
                <mxCell id="Zl3rUJQbuVN9b4rkIxgS-244" value="Menghapus&amp;nbsp; Admin System" style="text;html=1;align=center;verticalAlign=middle;whiteSpace=wrap;rounded=0;" parent="1" vertex="1">
                    <mxGeometry x="667" y="3740" width="90" height="30" as="geometry"/>
                </mxCell>
                <mxCell id="Zl3rUJQbuVN9b4rkIxgS-245" value="User Sudah Login" style="rhombus;whiteSpace=wrap;html=1;fontColor=#000000;fillColor=#ffffc0;strokeColor=#ff0000;" parent="1" vertex="1">
                    <mxGeometry x="549.5" y="3800" width="85" height="70" as="geometry"/>
                </mxCell>
                <mxCell id="Zl3rUJQbuVN9b4rkIxgS-246" value="no" style="edgeStyle=orthogonalEdgeStyle;html=1;align=left;verticalAlign=bottom;endArrow=open;endSize=8;strokeColor=#ff0000;" parent="1" source="Zl3rUJQbuVN9b4rkIxgS-245" target="Zl3rUJQbuVN9b4rkIxgS-248" edge="1">
                    <mxGeometry x="-1" relative="1" as="geometry">
                        <mxPoint x="737" y="3820" as="targetPoint"/>
                    </mxGeometry>
                </mxCell>
                <mxCell id="Zl3rUJQbuVN9b4rkIxgS-247" value="yes" style="html=1;align=left;verticalAlign=top;endArrow=open;endSize=8;strokeColor=#ff0000;" parent="1" source="Zl3rUJQbuVN9b4rkIxgS-245" target="Zl3rUJQbuVN9b4rkIxgS-242" edge="1">
                    <mxGeometry x="-1" relative="1" as="geometry">
                        <mxPoint x="607" y="3900" as="targetPoint"/>
                    </mxGeometry>
                </mxCell>
                <mxCell id="Zl3rUJQbuVN9b4rkIxgS-248" value="Redirect System Login" style="rounded=1;whiteSpace=wrap;html=1;arcSize=40;fontColor=#000000;fillColor=#ffffc0;strokeColor=#ff0000;" parent="1" vertex="1">
                    <mxGeometry x="697" y="3815" width="120" height="40" as="geometry"/>
                </mxCell>
                <mxCell id="Zl3rUJQbuVN9b4rkIxgS-249" value="&lt;span style=&quot;color: rgb(0, 0, 0);&quot;&gt;Masukkan Password&lt;/span&gt;" style="rounded=1;whiteSpace=wrap;html=1;arcSize=40;fontColor=#000000;fillColor=#ffffc0;strokeColor=#ff0000;" parent="1" vertex="1">
                    <mxGeometry x="535" y="4030" width="120" height="40" as="geometry"/>
                </mxCell>
                <mxCell id="Zl3rUJQbuVN9b4rkIxgS-250" value="" style="edgeStyle=orthogonalEdgeStyle;html=1;verticalAlign=bottom;endArrow=open;endSize=8;strokeColor=#ff0000;" parent="1" source="Zl3rUJQbuVN9b4rkIxgS-249" target="Zl3rUJQbuVN9b4rkIxgS-252" edge="1">
                    <mxGeometry relative="1" as="geometry">
                        <mxPoint x="592" y="4110" as="targetPoint"/>
                    </mxGeometry>
                </mxCell>
                <mxCell id="Zl3rUJQbuVN9b4rkIxgS-251" value="" style="html=1;verticalAlign=bottom;endArrow=open;endSize=8;strokeColor=#ff0000;" parent="1" source="Zl3rUJQbuVN9b4rkIxgS-242" target="Zl3rUJQbuVN9b4rkIxgS-249" edge="1">
                    <mxGeometry relative="1" as="geometry">
                        <mxPoint x="600" y="4135" as="targetPoint"/>
                        <mxPoint x="700" y="4100" as="sourcePoint"/>
                    </mxGeometry>
                </mxCell>
                <mxCell id="Zl3rUJQbuVN9b4rkIxgS-252" value="Is Valid" style="rhombus;whiteSpace=wrap;html=1;fontColor=#000000;fillColor=#ffffc0;strokeColor=#ff0000;" parent="1" vertex="1">
                    <mxGeometry x="554.5" y="4125" width="80" height="40" as="geometry"/>
                </mxCell>
                <mxCell id="Zl3rUJQbuVN9b4rkIxgS-253" value="no" style="edgeStyle=orthogonalEdgeStyle;html=1;align=left;verticalAlign=bottom;endArrow=open;endSize=8;strokeColor=#ff0000;" parent="1" source="Zl3rUJQbuVN9b4rkIxgS-252" target="Zl3rUJQbuVN9b4rkIxgS-255" edge="1">
                    <mxGeometry x="-1" relative="1" as="geometry">
                        <mxPoint x="877.5" y="4040" as="targetPoint"/>
                    </mxGeometry>
                </mxCell>
                <mxCell id="Zl3rUJQbuVN9b4rkIxgS-254" value="yes" style="edgeStyle=orthogonalEdgeStyle;html=1;align=left;verticalAlign=top;endArrow=open;endSize=8;strokeColor=#ff0000;" parent="1" source="Zl3rUJQbuVN9b4rkIxgS-252" target="Zl3rUJQbuVN9b4rkIxgS-243" edge="1">
                    <mxGeometry x="-1" relative="1" as="geometry">
                        <mxPoint x="737.5" y="4120" as="targetPoint"/>
                    </mxGeometry>
                </mxCell>
                <mxCell id="Zl3rUJQbuVN9b4rkIxgS-255" value="Tampilkan Error" style="rounded=1;whiteSpace=wrap;html=1;arcSize=40;fontColor=#000000;fillColor=#ffffc0;strokeColor=#ff0000;" parent="1" vertex="1">
                    <mxGeometry x="677.5" y="4125" width="120" height="40" as="geometry"/>
                </mxCell>
                <mxCell id="Zl3rUJQbuVN9b4rkIxgS-256" value="" style="edgeStyle=orthogonalEdgeStyle;html=1;verticalAlign=bottom;endArrow=open;endSize=8;strokeColor=#ff0000;exitX=0.5;exitY=0;exitDx=0;exitDy=0;entryX=1;entryY=0.5;entryDx=0;entryDy=0;" parent="1" source="Zl3rUJQbuVN9b4rkIxgS-255" target="Zl3rUJQbuVN9b4rkIxgS-249" edge="1">
                    <mxGeometry relative="1" as="geometry">
                        <mxPoint x="604.5" y="4135" as="targetPoint"/>
                        <mxPoint x="605.5" y="4080" as="sourcePoint"/>
                    </mxGeometry>
                </mxCell>
            </root>
        </mxGraphModel>
    </diagram>
    <diagram id="jZwCMFn0VlZ58xtwUyS1" name="use-case">
        <mxGraphModel dx="987" dy="993" grid="1" gridSize="10" guides="1" tooltips="1" connect="1" arrows="1" fold="1" page="1" pageScale="1" pageWidth="850" pageHeight="1100" math="0" shadow="0">
            <root>
                <mxCell id="0"/>
                <mxCell id="1" parent="0"/>
                <mxCell id="8EpfwRVk3yYIWyFaG7ZX-2" value="" style="rounded=0;whiteSpace=wrap;html=1;" parent="1" vertex="1">
                    <mxGeometry x="340" y="165" width="430" height="620" as="geometry"/>
                </mxCell>
                <mxCell id="8EpfwRVk3yYIWyFaG7ZX-12" style="html=1;exitX=1;exitY=0.3333333333333333;exitDx=0;exitDy=0;exitPerimeter=0;endArrow=none;endFill=0;" parent="1" source="8EpfwRVk3yYIWyFaG7ZX-1" target="8EpfwRVk3yYIWyFaG7ZX-6" edge="1">
                    <mxGeometry relative="1" as="geometry"/>
                </mxCell>
                <mxCell id="8EpfwRVk3yYIWyFaG7ZX-13" style="html=1;exitX=1;exitY=0.3333333333333333;exitDx=0;exitDy=0;exitPerimeter=0;endArrow=none;endFill=0;" parent="1" source="8EpfwRVk3yYIWyFaG7ZX-1" target="8EpfwRVk3yYIWyFaG7ZX-7" edge="1">
                    <mxGeometry relative="1" as="geometry"/>
                </mxCell>
                <mxCell id="8EpfwRVk3yYIWyFaG7ZX-22" style="edgeStyle=none;html=1;exitX=1;exitY=0.3333333333333333;exitDx=0;exitDy=0;exitPerimeter=0;endArrow=none;endFill=0;" parent="1" source="8EpfwRVk3yYIWyFaG7ZX-1" target="8EpfwRVk3yYIWyFaG7ZX-14" edge="1">
                    <mxGeometry relative="1" as="geometry"/>
                </mxCell>
                <mxCell id="8EpfwRVk3yYIWyFaG7ZX-1" value="user" style="shape=umlActor;verticalLabelPosition=bottom;verticalAlign=top;html=1;" parent="1" vertex="1">
                    <mxGeometry x="220" y="340" width="30" height="60" as="geometry"/>
                </mxCell>
                <mxCell id="8EpfwRVk3yYIWyFaG7ZX-5" value="Use Case User" style="text;html=1;align=center;verticalAlign=middle;whiteSpace=wrap;rounded=0;" parent="1" vertex="1">
                    <mxGeometry x="520" y="170" width="60" height="30" as="geometry"/>
                </mxCell>
                <mxCell id="8EpfwRVk3yYIWyFaG7ZX-6" value="Register" style="ellipse;whiteSpace=wrap;html=1;" parent="1" vertex="1">
                    <mxGeometry x="370" y="230" width="140" height="70" as="geometry"/>
                </mxCell>
                <mxCell id="8EpfwRVk3yYIWyFaG7ZX-7" value="Login" style="ellipse;whiteSpace=wrap;html=1;" parent="1" vertex="1">
                    <mxGeometry x="580" y="230" width="140" height="70" as="geometry"/>
                </mxCell>
                <mxCell id="8EpfwRVk3yYIWyFaG7ZX-11" value="&amp;lt;&amp;lt;include&amp;gt;&amp;gt;" style="html=1;verticalAlign=bottom;labelBackgroundColor=none;endArrow=open;endFill=0;dashed=1;" parent="1" source="8EpfwRVk3yYIWyFaG7ZX-6" target="8EpfwRVk3yYIWyFaG7ZX-7" edge="1">
                    <mxGeometry width="160" relative="1" as="geometry">
                        <mxPoint x="490" y="330" as="sourcePoint"/>
                        <mxPoint x="650" y="330" as="targetPoint"/>
                    </mxGeometry>
                </mxCell>
                <mxCell id="8EpfwRVk3yYIWyFaG7ZX-14" value="Update Own Account" style="ellipse;whiteSpace=wrap;html=1;" parent="1" vertex="1">
                    <mxGeometry x="400" y="330" width="140" height="70" as="geometry"/>
                </mxCell>
                <mxCell id="8EpfwRVk3yYIWyFaG7ZX-15" value="Delete Own Account" style="ellipse;whiteSpace=wrap;html=1;" parent="1" vertex="1">
                    <mxGeometry x="390" y="420" width="140" height="70" as="geometry"/>
                </mxCell>
                <mxCell id="8EpfwRVk3yYIWyFaG7ZX-16" value="Kelola Komentar Berita" style="ellipse;whiteSpace=wrap;html=1;" parent="1" vertex="1">
                    <mxGeometry x="620" y="530" width="140" height="70" as="geometry"/>
                </mxCell>
                <mxCell id="8EpfwRVk3yYIWyFaG7ZX-17" value="Kelola Komentar Agenda" style="ellipse;whiteSpace=wrap;html=1;" parent="1" vertex="1">
                    <mxGeometry x="570" y="640" width="140" height="70" as="geometry"/>
                </mxCell>
                <mxCell id="8EpfwRVk3yYIWyFaG7ZX-18" value="Melihat Berita" style="ellipse;whiteSpace=wrap;html=1;" parent="1" vertex="1">
                    <mxGeometry x="390" y="515" width="140" height="70" as="geometry"/>
                </mxCell>
                <mxCell id="8EpfwRVk3yYIWyFaG7ZX-19" value="Melihat Agenda" style="ellipse;whiteSpace=wrap;html=1;" parent="1" vertex="1">
                    <mxGeometry x="390" y="600" width="140" height="70" as="geometry"/>
                </mxCell>
                <mxCell id="8EpfwRVk3yYIWyFaG7ZX-20" value="Melihat Galeri" style="ellipse;whiteSpace=wrap;html=1;" parent="1" vertex="1">
                    <mxGeometry x="370" y="690" width="140" height="70" as="geometry"/>
                </mxCell>
                <mxCell id="8EpfwRVk3yYIWyFaG7ZX-23" style="edgeStyle=none;html=1;exitX=1;exitY=0.3333333333333333;exitDx=0;exitDy=0;exitPerimeter=0;endArrow=none;endFill=0;" parent="1" source="8EpfwRVk3yYIWyFaG7ZX-1" target="8EpfwRVk3yYIWyFaG7ZX-15" edge="1">
                    <mxGeometry relative="1" as="geometry">
                        <mxPoint x="260" y="370" as="sourcePoint"/>
                        <mxPoint x="410" y="373" as="targetPoint"/>
                    </mxGeometry>
                </mxCell>
                <mxCell id="8EpfwRVk3yYIWyFaG7ZX-25" style="edgeStyle=none;html=1;exitX=1;exitY=0.3333333333333333;exitDx=0;exitDy=0;exitPerimeter=0;endArrow=none;endFill=0;" parent="1" source="8EpfwRVk3yYIWyFaG7ZX-1" target="8EpfwRVk3yYIWyFaG7ZX-18" edge="1">
                    <mxGeometry relative="1" as="geometry">
                        <mxPoint x="260" y="370" as="sourcePoint"/>
                        <mxPoint x="418" y="442" as="targetPoint"/>
                    </mxGeometry>
                </mxCell>
                <mxCell id="8EpfwRVk3yYIWyFaG7ZX-26" style="edgeStyle=none;html=1;exitX=1;exitY=0.3333333333333333;exitDx=0;exitDy=0;exitPerimeter=0;endArrow=none;endFill=0;entryX=0.245;entryY=0.082;entryDx=0;entryDy=0;entryPerimeter=0;" parent="1" source="8EpfwRVk3yYIWyFaG7ZX-1" target="8EpfwRVk3yYIWyFaG7ZX-19" edge="1">
                    <mxGeometry relative="1" as="geometry">
                        <mxPoint x="260" y="370" as="sourcePoint"/>
                        <mxPoint x="436" y="529" as="targetPoint"/>
                    </mxGeometry>
                </mxCell>
                <mxCell id="8EpfwRVk3yYIWyFaG7ZX-27" style="edgeStyle=none;html=1;exitX=1;exitY=0.3333333333333333;exitDx=0;exitDy=0;exitPerimeter=0;endArrow=none;endFill=0;" parent="1" source="8EpfwRVk3yYIWyFaG7ZX-1" target="8EpfwRVk3yYIWyFaG7ZX-20" edge="1">
                    <mxGeometry relative="1" as="geometry">
                        <mxPoint x="260" y="370" as="sourcePoint"/>
                        <mxPoint x="414" y="626" as="targetPoint"/>
                    </mxGeometry>
                </mxCell>
                <mxCell id="8EpfwRVk3yYIWyFaG7ZX-28" style="edgeStyle=none;html=1;exitX=1;exitY=0.3333333333333333;exitDx=0;exitDy=0;exitPerimeter=0;endArrow=none;endFill=0;" parent="1" source="8EpfwRVk3yYIWyFaG7ZX-1" target="8EpfwRVk3yYIWyFaG7ZX-16" edge="1">
                    <mxGeometry relative="1" as="geometry">
                        <mxPoint x="260" y="370" as="sourcePoint"/>
                        <mxPoint x="432" y="701" as="targetPoint"/>
                    </mxGeometry>
                </mxCell>
                <mxCell id="8EpfwRVk3yYIWyFaG7ZX-29" style="edgeStyle=none;html=1;exitX=1;exitY=0.3333333333333333;exitDx=0;exitDy=0;exitPerimeter=0;endArrow=none;endFill=0;" parent="1" source="8EpfwRVk3yYIWyFaG7ZX-1" target="8EpfwRVk3yYIWyFaG7ZX-17" edge="1">
                    <mxGeometry relative="1" as="geometry">
                        <mxPoint x="260" y="370" as="sourcePoint"/>
                        <mxPoint x="587" y="577" as="targetPoint"/>
                    </mxGeometry>
                </mxCell>
                <mxCell id="8EpfwRVk3yYIWyFaG7ZX-30" value="&amp;lt;&amp;lt;include&amp;gt;&amp;gt;" style="html=1;verticalAlign=bottom;labelBackgroundColor=none;endArrow=open;endFill=0;dashed=1;" parent="1" source="8EpfwRVk3yYIWyFaG7ZX-7" target="8EpfwRVk3yYIWyFaG7ZX-14" edge="1">
                    <mxGeometry width="160" relative="1" as="geometry">
                        <mxPoint x="520" y="275" as="sourcePoint"/>
                        <mxPoint x="590" y="275" as="targetPoint"/>
                    </mxGeometry>
                </mxCell>
                <mxCell id="8EpfwRVk3yYIWyFaG7ZX-31" value="&amp;lt;&amp;lt;include&amp;gt;&amp;gt;" style="html=1;verticalAlign=bottom;labelBackgroundColor=none;endArrow=open;endFill=0;dashed=1;" parent="1" source="8EpfwRVk3yYIWyFaG7ZX-7" target="8EpfwRVk3yYIWyFaG7ZX-15" edge="1">
                    <mxGeometry width="160" relative="1" as="geometry">
                        <mxPoint x="613" y="301" as="sourcePoint"/>
                        <mxPoint x="527" y="349" as="targetPoint"/>
                    </mxGeometry>
                </mxCell>
                <mxCell id="8EpfwRVk3yYIWyFaG7ZX-32" value="&amp;lt;&amp;lt;include&amp;gt;&amp;gt;" style="html=1;verticalAlign=bottom;labelBackgroundColor=none;endArrow=open;endFill=0;dashed=1;" parent="1" source="8EpfwRVk3yYIWyFaG7ZX-7" target="8EpfwRVk3yYIWyFaG7ZX-16" edge="1">
                    <mxGeometry width="160" relative="1" as="geometry">
                        <mxPoint x="629" y="306" as="sourcePoint"/>
                        <mxPoint x="501" y="434" as="targetPoint"/>
                    </mxGeometry>
                </mxCell>
                <mxCell id="8EpfwRVk3yYIWyFaG7ZX-33" value="&amp;lt;&amp;lt;include&amp;gt;&amp;gt;" style="html=1;verticalAlign=bottom;labelBackgroundColor=none;endArrow=open;endFill=0;dashed=1;" parent="1" source="8EpfwRVk3yYIWyFaG7ZX-7" target="8EpfwRVk3yYIWyFaG7ZX-17" edge="1">
                    <mxGeometry width="160" relative="1" as="geometry">
                        <mxPoint x="660" y="310" as="sourcePoint"/>
                        <mxPoint x="660" y="540" as="targetPoint"/>
                    </mxGeometry>
                </mxCell>
                <mxCell id="GbDejkY4D0QVBYw5IoDv-1" value="" style="rounded=0;whiteSpace=wrap;html=1;" parent="1" vertex="1">
                    <mxGeometry x="340" y="820" width="430" height="620" as="geometry"/>
                </mxCell>
                <mxCell id="GbDejkY4D0QVBYw5IoDv-3" style="html=1;exitX=1;exitY=0.3333333333333333;exitDx=0;exitDy=0;exitPerimeter=0;endArrow=none;endFill=0;" parent="1" source="GbDejkY4D0QVBYw5IoDv-5" target="GbDejkY4D0QVBYw5IoDv-8" edge="1">
                    <mxGeometry relative="1" as="geometry"/>
                </mxCell>
                <mxCell id="GbDejkY4D0QVBYw5IoDv-4" style="edgeStyle=none;html=1;exitX=1;exitY=0.3333333333333333;exitDx=0;exitDy=0;exitPerimeter=0;endArrow=none;endFill=0;" parent="1" source="GbDejkY4D0QVBYw5IoDv-5" target="GbDejkY4D0QVBYw5IoDv-10" edge="1">
                    <mxGeometry relative="1" as="geometry"/>
                </mxCell>
                <mxCell id="GbDejkY4D0QVBYw5IoDv-5" value="admin" style="shape=umlActor;verticalLabelPosition=bottom;verticalAlign=top;html=1;" parent="1" vertex="1">
                    <mxGeometry x="220" y="995" width="30" height="60" as="geometry"/>
                </mxCell>
                <mxCell id="GbDejkY4D0QVBYw5IoDv-6" value="Use Case&amp;nbsp;&lt;div&gt;Admin&lt;/div&gt;" style="text;html=1;align=center;verticalAlign=middle;whiteSpace=wrap;rounded=0;" parent="1" vertex="1">
                    <mxGeometry x="520" y="825" width="60" height="30" as="geometry"/>
                </mxCell>
                <mxCell id="GbDejkY4D0QVBYw5IoDv-8" value="Login" style="ellipse;whiteSpace=wrap;html=1;" parent="1" vertex="1">
                    <mxGeometry x="580" y="885" width="140" height="70" as="geometry"/>
                </mxCell>
                <mxCell id="GbDejkY4D0QVBYw5IoDv-10" value="Update Own Account" style="ellipse;whiteSpace=wrap;html=1;" parent="1" vertex="1">
                    <mxGeometry x="400" y="985" width="140" height="70" as="geometry"/>
                </mxCell>
                <mxCell id="GbDejkY4D0QVBYw5IoDv-11" value="Delete Own Account" style="ellipse;whiteSpace=wrap;html=1;" parent="1" vertex="1">
                    <mxGeometry x="390" y="1075" width="140" height="70" as="geometry"/>
                </mxCell>
                <mxCell id="GbDejkY4D0QVBYw5IoDv-12" value="Membuat Berita" style="ellipse;whiteSpace=wrap;html=1;" parent="1" vertex="1">
                    <mxGeometry x="620" y="1185" width="140" height="70" as="geometry"/>
                </mxCell>
                <mxCell id="GbDejkY4D0QVBYw5IoDv-13" value="Membuat Agenda" style="ellipse;whiteSpace=wrap;html=1;" parent="1" vertex="1">
                    <mxGeometry x="580" y="1275" width="140" height="70" as="geometry"/>
                </mxCell>
                <mxCell id="GbDejkY4D0QVBYw5IoDv-14" value="Melihat Berita" style="ellipse;whiteSpace=wrap;html=1;" parent="1" vertex="1">
                    <mxGeometry x="390" y="1170" width="140" height="70" as="geometry"/>
                </mxCell>
                <mxCell id="GbDejkY4D0QVBYw5IoDv-15" value="Melihat Agenda" style="ellipse;whiteSpace=wrap;html=1;" parent="1" vertex="1">
                    <mxGeometry x="390" y="1255" width="140" height="70" as="geometry"/>
                </mxCell>
                <mxCell id="GbDejkY4D0QVBYw5IoDv-16" value="Melihat Galeri" style="ellipse;whiteSpace=wrap;html=1;" parent="1" vertex="1">
                    <mxGeometry x="340" y="1345" width="140" height="70" as="geometry"/>
                </mxCell>
                <mxCell id="GbDejkY4D0QVBYw5IoDv-17" style="edgeStyle=none;html=1;exitX=1;exitY=0.3333333333333333;exitDx=0;exitDy=0;exitPerimeter=0;endArrow=none;endFill=0;" parent="1" source="GbDejkY4D0QVBYw5IoDv-5" target="GbDejkY4D0QVBYw5IoDv-11" edge="1">
                    <mxGeometry relative="1" as="geometry">
                        <mxPoint x="260" y="1025" as="sourcePoint"/>
                        <mxPoint x="410" y="1028" as="targetPoint"/>
                    </mxGeometry>
                </mxCell>
                <mxCell id="GbDejkY4D0QVBYw5IoDv-18" style="edgeStyle=none;html=1;exitX=1;exitY=0.3333333333333333;exitDx=0;exitDy=0;exitPerimeter=0;endArrow=none;endFill=0;" parent="1" source="GbDejkY4D0QVBYw5IoDv-5" target="GbDejkY4D0QVBYw5IoDv-14" edge="1">
                    <mxGeometry relative="1" as="geometry">
                        <mxPoint x="260" y="1025" as="sourcePoint"/>
                        <mxPoint x="418" y="1097" as="targetPoint"/>
                    </mxGeometry>
                </mxCell>
                <mxCell id="GbDejkY4D0QVBYw5IoDv-19" style="edgeStyle=none;html=1;exitX=1;exitY=0.3333333333333333;exitDx=0;exitDy=0;exitPerimeter=0;endArrow=none;endFill=0;entryX=0.245;entryY=0.082;entryDx=0;entryDy=0;entryPerimeter=0;" parent="1" source="GbDejkY4D0QVBYw5IoDv-5" target="GbDejkY4D0QVBYw5IoDv-15" edge="1">
                    <mxGeometry relative="1" as="geometry">
                        <mxPoint x="260" y="1025" as="sourcePoint"/>
                        <mxPoint x="436" y="1184" as="targetPoint"/>
                    </mxGeometry>
                </mxCell>
                <mxCell id="GbDejkY4D0QVBYw5IoDv-20" style="edgeStyle=none;html=1;exitX=1;exitY=0.3333333333333333;exitDx=0;exitDy=0;exitPerimeter=0;endArrow=none;endFill=0;" parent="1" source="GbDejkY4D0QVBYw5IoDv-5" target="GbDejkY4D0QVBYw5IoDv-16" edge="1">
                    <mxGeometry relative="1" as="geometry">
                        <mxPoint x="260" y="1025" as="sourcePoint"/>
                        <mxPoint x="414" y="1281" as="targetPoint"/>
                    </mxGeometry>
                </mxCell>
                <mxCell id="GbDejkY4D0QVBYw5IoDv-21" style="edgeStyle=none;html=1;exitX=1;exitY=0.3333333333333333;exitDx=0;exitDy=0;exitPerimeter=0;endArrow=none;endFill=0;" parent="1" source="GbDejkY4D0QVBYw5IoDv-5" target="GbDejkY4D0QVBYw5IoDv-12" edge="1">
                    <mxGeometry relative="1" as="geometry">
                        <mxPoint x="260" y="1025" as="sourcePoint"/>
                        <mxPoint x="432" y="1356" as="targetPoint"/>
                    </mxGeometry>
                </mxCell>
                <mxCell id="GbDejkY4D0QVBYw5IoDv-22" style="edgeStyle=none;html=1;exitX=1;exitY=0.3333333333333333;exitDx=0;exitDy=0;exitPerimeter=0;endArrow=none;endFill=0;" parent="1" source="GbDejkY4D0QVBYw5IoDv-5" target="GbDejkY4D0QVBYw5IoDv-13" edge="1">
                    <mxGeometry relative="1" as="geometry">
                        <mxPoint x="260" y="1025" as="sourcePoint"/>
                        <mxPoint x="587" y="1232" as="targetPoint"/>
                    </mxGeometry>
                </mxCell>
                <mxCell id="GbDejkY4D0QVBYw5IoDv-23" value="&amp;lt;&amp;lt;include&amp;gt;&amp;gt;" style="html=1;verticalAlign=bottom;labelBackgroundColor=none;endArrow=open;endFill=0;dashed=1;" parent="1" source="GbDejkY4D0QVBYw5IoDv-8" target="GbDejkY4D0QVBYw5IoDv-10" edge="1">
                    <mxGeometry width="160" relative="1" as="geometry">
                        <mxPoint x="520" y="930" as="sourcePoint"/>
                        <mxPoint x="590" y="930" as="targetPoint"/>
                    </mxGeometry>
                </mxCell>
                <mxCell id="GbDejkY4D0QVBYw5IoDv-24" value="&amp;lt;&amp;lt;include&amp;gt;&amp;gt;" style="html=1;verticalAlign=bottom;labelBackgroundColor=none;endArrow=open;endFill=0;dashed=1;" parent="1" source="GbDejkY4D0QVBYw5IoDv-8" target="GbDejkY4D0QVBYw5IoDv-11" edge="1">
                    <mxGeometry width="160" relative="1" as="geometry">
                        <mxPoint x="613" y="956" as="sourcePoint"/>
                        <mxPoint x="527" y="1004" as="targetPoint"/>
                    </mxGeometry>
                </mxCell>
                <mxCell id="GbDejkY4D0QVBYw5IoDv-25" value="&amp;lt;&amp;lt;include&amp;gt;&amp;gt;" style="html=1;verticalAlign=bottom;labelBackgroundColor=none;endArrow=open;endFill=0;dashed=1;" parent="1" source="GbDejkY4D0QVBYw5IoDv-8" target="GbDejkY4D0QVBYw5IoDv-12" edge="1">
                    <mxGeometry width="160" relative="1" as="geometry">
                        <mxPoint x="629" y="961" as="sourcePoint"/>
                        <mxPoint x="501" y="1089" as="targetPoint"/>
                    </mxGeometry>
                </mxCell>
                <mxCell id="GbDejkY4D0QVBYw5IoDv-26" value="&amp;lt;&amp;lt;include&amp;gt;&amp;gt;" style="html=1;verticalAlign=bottom;labelBackgroundColor=none;endArrow=open;endFill=0;dashed=1;" parent="1" source="GbDejkY4D0QVBYw5IoDv-8" target="GbDejkY4D0QVBYw5IoDv-13" edge="1">
                    <mxGeometry width="160" relative="1" as="geometry">
                        <mxPoint x="660" y="965" as="sourcePoint"/>
                        <mxPoint x="660" y="1195" as="targetPoint"/>
                    </mxGeometry>
                </mxCell>
                <mxCell id="GbDejkY4D0QVBYw5IoDv-29" value="" style="rounded=0;whiteSpace=wrap;html=1;" parent="1" vertex="1">
                    <mxGeometry x="1040" y="170" width="430" height="620" as="geometry"/>
                </mxCell>
                <mxCell id="GbDejkY4D0QVBYw5IoDv-31" style="html=1;exitX=1;exitY=0.3333333333333333;exitDx=0;exitDy=0;exitPerimeter=0;endArrow=none;endFill=0;" parent="1" source="GbDejkY4D0QVBYw5IoDv-33" target="GbDejkY4D0QVBYw5IoDv-36" edge="1">
                    <mxGeometry relative="1" as="geometry"/>
                </mxCell>
                <mxCell id="GbDejkY4D0QVBYw5IoDv-32" style="edgeStyle=none;html=1;exitX=1;exitY=0.3333333333333333;exitDx=0;exitDy=0;exitPerimeter=0;endArrow=none;endFill=0;" parent="1" source="GbDejkY4D0QVBYw5IoDv-33" target="GbDejkY4D0QVBYw5IoDv-38" edge="1">
                    <mxGeometry relative="1" as="geometry"/>
                </mxCell>
                <mxCell id="GbDejkY4D0QVBYw5IoDv-33" value="super admin" style="shape=umlActor;verticalLabelPosition=bottom;verticalAlign=top;html=1;" parent="1" vertex="1">
                    <mxGeometry x="920" y="345" width="30" height="60" as="geometry"/>
                </mxCell>
                <mxCell id="GbDejkY4D0QVBYw5IoDv-34" value="Use Case Super Admin" style="text;html=1;align=center;verticalAlign=middle;whiteSpace=wrap;rounded=0;" parent="1" vertex="1">
                    <mxGeometry x="1220" y="175" width="90" height="30" as="geometry"/>
                </mxCell>
                <mxCell id="GbDejkY4D0QVBYw5IoDv-36" value="Login" style="ellipse;whiteSpace=wrap;html=1;" parent="1" vertex="1">
                    <mxGeometry x="1280" y="235" width="140" height="70" as="geometry"/>
                </mxCell>
                <mxCell id="GbDejkY4D0QVBYw5IoDv-38" value="Update Own Account" style="ellipse;whiteSpace=wrap;html=1;" parent="1" vertex="1">
                    <mxGeometry x="1100" y="335" width="140" height="70" as="geometry"/>
                </mxCell>
                <mxCell id="GbDejkY4D0QVBYw5IoDv-39" value="Kelola Admin" style="ellipse;whiteSpace=wrap;html=1;" parent="1" vertex="1">
                    <mxGeometry x="1090" y="425" width="140" height="70" as="geometry"/>
                </mxCell>
                <mxCell id="GbDejkY4D0QVBYw5IoDv-40" value="Kelola Komentar Berita" style="ellipse;whiteSpace=wrap;html=1;" parent="1" vertex="1">
                    <mxGeometry x="1320" y="535" width="140" height="70" as="geometry"/>
                </mxCell>
                <mxCell id="GbDejkY4D0QVBYw5IoDv-41" value="Kelola Komentar Agenda" style="ellipse;whiteSpace=wrap;html=1;" parent="1" vertex="1">
                    <mxGeometry x="1270" y="645" width="140" height="70" as="geometry"/>
                </mxCell>
                <mxCell id="GbDejkY4D0QVBYw5IoDv-42" value="Melihat Berita" style="ellipse;whiteSpace=wrap;html=1;" parent="1" vertex="1">
                    <mxGeometry x="1090" y="520" width="140" height="70" as="geometry"/>
                </mxCell>
                <mxCell id="GbDejkY4D0QVBYw5IoDv-43" value="Melihat Agenda" style="ellipse;whiteSpace=wrap;html=1;" parent="1" vertex="1">
                    <mxGeometry x="1090" y="605" width="140" height="70" as="geometry"/>
                </mxCell>
                <mxCell id="GbDejkY4D0QVBYw5IoDv-44" value="Melihat Galeri" style="ellipse;whiteSpace=wrap;html=1;" parent="1" vertex="1">
                    <mxGeometry x="1070" y="695" width="140" height="70" as="geometry"/>
                </mxCell>
                <mxCell id="GbDejkY4D0QVBYw5IoDv-45" style="edgeStyle=none;html=1;exitX=1;exitY=0.3333333333333333;exitDx=0;exitDy=0;exitPerimeter=0;endArrow=none;endFill=0;" parent="1" source="GbDejkY4D0QVBYw5IoDv-33" target="GbDejkY4D0QVBYw5IoDv-39" edge="1">
                    <mxGeometry relative="1" as="geometry">
                        <mxPoint x="960" y="375" as="sourcePoint"/>
                        <mxPoint x="1110" y="378" as="targetPoint"/>
                    </mxGeometry>
                </mxCell>
                <mxCell id="GbDejkY4D0QVBYw5IoDv-46" style="edgeStyle=none;html=1;exitX=1;exitY=0.3333333333333333;exitDx=0;exitDy=0;exitPerimeter=0;endArrow=none;endFill=0;" parent="1" source="GbDejkY4D0QVBYw5IoDv-33" target="GbDejkY4D0QVBYw5IoDv-42" edge="1">
                    <mxGeometry relative="1" as="geometry">
                        <mxPoint x="960" y="375" as="sourcePoint"/>
                        <mxPoint x="1118" y="447" as="targetPoint"/>
                    </mxGeometry>
                </mxCell>
                <mxCell id="GbDejkY4D0QVBYw5IoDv-47" style="edgeStyle=none;html=1;exitX=1;exitY=0.3333333333333333;exitDx=0;exitDy=0;exitPerimeter=0;endArrow=none;endFill=0;entryX=0.245;entryY=0.082;entryDx=0;entryDy=0;entryPerimeter=0;" parent="1" source="GbDejkY4D0QVBYw5IoDv-33" target="GbDejkY4D0QVBYw5IoDv-43" edge="1">
                    <mxGeometry relative="1" as="geometry">
                        <mxPoint x="960" y="375" as="sourcePoint"/>
                        <mxPoint x="1136" y="534" as="targetPoint"/>
                    </mxGeometry>
                </mxCell>
                <mxCell id="GbDejkY4D0QVBYw5IoDv-48" style="edgeStyle=none;html=1;exitX=1;exitY=0.3333333333333333;exitDx=0;exitDy=0;exitPerimeter=0;endArrow=none;endFill=0;" parent="1" source="GbDejkY4D0QVBYw5IoDv-33" target="GbDejkY4D0QVBYw5IoDv-44" edge="1">
                    <mxGeometry relative="1" as="geometry">
                        <mxPoint x="960" y="375" as="sourcePoint"/>
                        <mxPoint x="1114" y="631" as="targetPoint"/>
                    </mxGeometry>
                </mxCell>
                <mxCell id="GbDejkY4D0QVBYw5IoDv-49" style="edgeStyle=none;html=1;exitX=1;exitY=0.3333333333333333;exitDx=0;exitDy=0;exitPerimeter=0;endArrow=none;endFill=0;" parent="1" source="GbDejkY4D0QVBYw5IoDv-33" target="GbDejkY4D0QVBYw5IoDv-40" edge="1">
                    <mxGeometry relative="1" as="geometry">
                        <mxPoint x="960" y="375" as="sourcePoint"/>
                        <mxPoint x="1132" y="706" as="targetPoint"/>
                    </mxGeometry>
                </mxCell>
                <mxCell id="GbDejkY4D0QVBYw5IoDv-50" style="edgeStyle=none;html=1;exitX=1;exitY=0.3333333333333333;exitDx=0;exitDy=0;exitPerimeter=0;endArrow=none;endFill=0;" parent="1" source="GbDejkY4D0QVBYw5IoDv-33" target="GbDejkY4D0QVBYw5IoDv-41" edge="1">
                    <mxGeometry relative="1" as="geometry">
                        <mxPoint x="960" y="375" as="sourcePoint"/>
                        <mxPoint x="1287" y="582" as="targetPoint"/>
                    </mxGeometry>
                </mxCell>
                <mxCell id="GbDejkY4D0QVBYw5IoDv-51" value="&amp;lt;&amp;lt;include&amp;gt;&amp;gt;" style="html=1;verticalAlign=bottom;labelBackgroundColor=none;endArrow=open;endFill=0;dashed=1;" parent="1" source="GbDejkY4D0QVBYw5IoDv-36" target="GbDejkY4D0QVBYw5IoDv-38" edge="1">
                    <mxGeometry width="160" relative="1" as="geometry">
                        <mxPoint x="1220" y="280" as="sourcePoint"/>
                        <mxPoint x="1290" y="280" as="targetPoint"/>
                    </mxGeometry>
                </mxCell>
                <mxCell id="GbDejkY4D0QVBYw5IoDv-52" value="&amp;lt;&amp;lt;include&amp;gt;&amp;gt;" style="html=1;verticalAlign=bottom;labelBackgroundColor=none;endArrow=open;endFill=0;dashed=1;" parent="1" source="GbDejkY4D0QVBYw5IoDv-36" target="GbDejkY4D0QVBYw5IoDv-39" edge="1">
                    <mxGeometry width="160" relative="1" as="geometry">
                        <mxPoint x="1313" y="306" as="sourcePoint"/>
                        <mxPoint x="1227" y="354" as="targetPoint"/>
                    </mxGeometry>
                </mxCell>
                <mxCell id="GbDejkY4D0QVBYw5IoDv-53" value="&amp;lt;&amp;lt;include&amp;gt;&amp;gt;" style="html=1;verticalAlign=bottom;labelBackgroundColor=none;endArrow=open;endFill=0;dashed=1;" parent="1" source="GbDejkY4D0QVBYw5IoDv-36" target="GbDejkY4D0QVBYw5IoDv-40" edge="1">
                    <mxGeometry width="160" relative="1" as="geometry">
                        <mxPoint x="1329" y="311" as="sourcePoint"/>
                        <mxPoint x="1201" y="439" as="targetPoint"/>
                    </mxGeometry>
                </mxCell>
                <mxCell id="GbDejkY4D0QVBYw5IoDv-54" value="&amp;lt;&amp;lt;include&amp;gt;&amp;gt;" style="html=1;verticalAlign=bottom;labelBackgroundColor=none;endArrow=open;endFill=0;dashed=1;" parent="1" source="GbDejkY4D0QVBYw5IoDv-36" target="GbDejkY4D0QVBYw5IoDv-41" edge="1">
                    <mxGeometry width="160" relative="1" as="geometry">
                        <mxPoint x="1360" y="315" as="sourcePoint"/>
                        <mxPoint x="1360" y="545" as="targetPoint"/>
                    </mxGeometry>
                </mxCell>
                <mxCell id="rEt57Waoe_Q2Gb6IZUjH-1" value="Membuat Galeri" style="ellipse;whiteSpace=wrap;html=1;" parent="1" vertex="1">
                    <mxGeometry x="485" y="1360" width="140" height="70" as="geometry"/>
                </mxCell>
                <mxCell id="rEt57Waoe_Q2Gb6IZUjH-2" style="edgeStyle=none;html=1;entryX=1;entryY=0.3333333333333333;entryDx=0;entryDy=0;entryPerimeter=0;endArrow=none;endFill=0;" parent="1" source="rEt57Waoe_Q2Gb6IZUjH-1" target="GbDejkY4D0QVBYw5IoDv-5" edge="1">
                    <mxGeometry relative="1" as="geometry"/>
                </mxCell>
                <mxCell id="rEt57Waoe_Q2Gb6IZUjH-3" value="&amp;lt;&amp;lt;include&amp;gt;&amp;gt;" style="html=1;verticalAlign=bottom;labelBackgroundColor=none;endArrow=open;endFill=0;dashed=1;" parent="1" source="GbDejkY4D0QVBYw5IoDv-8" target="rEt57Waoe_Q2Gb6IZUjH-1" edge="1">
                    <mxGeometry width="160" relative="1" as="geometry">
                        <mxPoint x="660" y="965" as="sourcePoint"/>
                        <mxPoint x="660" y="1285" as="targetPoint"/>
                    </mxGeometry>
                </mxCell>
            </root>
        </mxGraphModel>
    </diagram>
</mxfile>